{
.appVersion = "1160";
classes = (
{
automatic = 1;
code = "A A.alt1 A.alt2 AA.ss01 Aacute Abreve Acircumflex Adieresis Agrave Amacron Aogonek Aring Aringacute Atilde AE AEacute B C Cacute Ccaron Ccedilla Ccircumflex Cdotaccent D Eth Dcaron Dcroat E Eacute Ebreve Ecaron Ecircumflex Edieresis Edotaccent Egrave Emacron Eogonek F G Gbreve Gcircumflex Gcommaaccent Gdotaccent H Hbar Hcaron Hcircumflex I IJ Iacute Ibreve Icircumflex Idieresis Idotaccent Igrave Imacron Iogonek Itilde J Jcircumflex K Kcommaaccent L Lacute Lcaron Lcommaaccent Ldot Lslash M N Nacute Ncaron Ncommaaccent Eng Ntilde O OO.ss01 Oacute Obreve Ocircumflex Odieresis Ograve Ohungarumlaut Omacron Oslash Oslashacute Otilde OE P Thorn Q R Racute Rcaron Rcommaaccent S S.alt1 Sacute Scaron Scedilla Scircumflex Scommaaccent T Tbar Tcaron Tcedilla Tcommaaccent U Uacute Ubreve Ucircumflex Udieresis Ugrave Uhungarumlaut Umacron Uogonek Uring Utilde V W Wacute Wcircumflex Wdieresis Wgrave X Y Yacute Ycircumflex Ydieresis Ygrave Z Zacute Zcaron Zdotaccent Delta";
name = Uppercase;
}
);
copyright = "2018";
customParameters = (
{
name = vendorID;
value = TYPB;
},
{
name = fsType;
value = (
);
},
{
name = licenseURL;
value = "http://scripts.sil.org/OFL";
},
{
name = "Family Alignment Zones";
value = (
"{1006, 5}",
"{911, 6}",
"{696, 11}",
"{-10, 10}",
"{-286, -10}"
);
}
);
date = "2018-05-21 14:43:59 +0000";
designer = "Brian LaRossa & Erica Carras";
designerURL = "larossa.co and ericacarras.com";
familyName = Staatliches;
featurePrefixes = (
{
automatic = 1;
code = "languagesystem DFLT dflt;\012languagesystem latn dflt;\012languagesystem latn CAT;\012languagesystem latn ROM;\012languagesystem latn MOL;\012languagesystem latn KAZ;\012languagesystem latn TAT;\012languagesystem latn TRK;\012languagesystem latn CRT;\012languagesystem latn AZE;\012";
name = Languagesystems;
}
);
features = (
{
automatic = 1;

glyphs = (
{
glyphname = A;
lastChange = "2018-10-09 20:28:36 +0000";
layers = (
{
anchors = (
{
name = ogonek;
position = "{348, -11}";
},
{
name = top;
position = "{204, 835}";
}
);
layerId = "105671D0-52CD-46B5-9B81-8ED8F76D0899";
paths = (
{
closed = 1;
nodes = (
"6 3 OFFCURVE",
"7 0 OFFCURVE",
"10 0 CURVE SMOOTH",
"121 0 LINE SMOOTH",
"124 0 OFFCURVE",
"125 1 OFFCURVE",
"126 5 CURVE SMOOTH",
"137 78 LINE",
"273 78 LINE",
"284 5 LINE SMOOTH",
"285 1 OFFCURVE",
"286 0 OFFCURVE",
"289 0 CURVE SMOOTH",
"400 0 LINE SMOOTH",
"403 0 OFFCURVE",
"405 1 OFFCURVE",
"404 5 CURVE SMOOTH",
"285 692 LINE SMOOTH",
"284 695 OFFCURVE",
"282 696 OFFCURVE",
"280 696 CURVE SMOOTH",
"135 696 LINE SMOOTH",
"133 696 OFFCURVE",
"131 695 OFFCURVE",
"130 692 CURVE SMOOTH",
"6 5 LINE"
);
},
{
closed = 1;
nodes = (
"202 466 LINE",
"205.932 503.35 LINE",
"212 466 LINE",
"253 185 LINE",
"157 185 LINE"
);
}
);
width = 427;
}
);
leftKerningGroup = A;
rightKerningGroup = A;
unicode = 0041;
},
{
glyphname = A.alt1;
lastChange = "2018-10-09 15:01:31 +0000";
layers = (
{
layerId = "105671D0-52CD-46B5-9B81-8ED8F76D0899";
paths = (
{
closed = 1;
nodes = (
"96 0 LINE SMOOTH",
"98 0 OFFCURVE",
"101 0 OFFCURVE",
"102 4 CURVE SMOOTH",
"126 78 LINE",
"393 78 LINE",
"416 4 LINE SMOOTH",
"417 1 OFFCURVE",
"419 0 OFFCURVE",
"422 0 CURVE SMOOTH",
"536 0 LINE SMOOTH",
"539 0 OFFCURVE",
"541 1 OFFCURVE",
"540 4 CURVE SMOOTH",
"340 692 LINE",
"339 695 OFFCURVE",
"338 696 OFFCURVE",
"335 696 CURVE",
"194 696 LINE",
"192 696 OFFCURVE",
"190 695 OFFCURVE",
"189 692 CURVE",
"-21 4 LINE SMOOTH",
"-22 1 OFFCURVE",
"-21 0 OFFCURVE",
"-18 0 CURVE SMOOTH"
);
},
{
closed = 1;
nodes = (
"259 544 LINE",
"262 551 LINE",
"265 544 LINE",
"363 185 LINE",
"156 185 LINE"
);
}
);
width = 530;
}
);
leftKerningGroup = A;
rightKerningGroup = A;
},
{
glyphname = A.alt2;
lastChange = "2018-10-09 15:01:31 +0000";
layers = (
{
layerId = "105671D0-52CD-46B5-9B81-8ED8F76D0899";
paths = (
{
closed = 1;
nodes = (
"106 0 LINE SMOOTH",
"109 0 OFFCURVE",
"110 1 OFFCURVE",
"111 4 CURVE SMOOTH",
"123 75 LINE",
"285 75 LINE",
"298 4 LINE SMOOTH",
"299 1 OFFCURVE",
"300 0 OFFCURVE",
"304 0 CURVE SMOOTH",
"420 0 LINE SMOOTH",
"423 0 OFFCURVE",
"423 1 OFFCURVE",
"423 4 CURVE SMOOTH",
"290 692 LINE SMOOTH",
"289 695 OFFCURVE",
"287 696 OFFCURVE",
"284 696 CURVE SMOOTH",
"123 696 LINE SMOOTH",
"120 696 OFFCURVE",
"118 695 OFFCURVE",
"118 692 CURVE SMOOTH",
"-10 4 LINE SMOOTH",
"-10 1 OFFCURVE",
"-9 0 OFFCURVE",
"-7 0 CURVE SMOOTH"
);
},
{
closed = 1;
nodes = (
"202 532 LINE",
"264 189 LINE",
"143 189 LINE"
);
}
);
width = 423;
}
);
},
{
glyphname = AA.ss01;
lastChange = "2018-10-12 15:41:33 +0000";
layers = (
{
components = (
{
name = A;
}
);
layerId = "105671D0-52CD-46B5-9B81-8ED8F76D0899";
paths = (
{
closed = 1;
nodes = (
"679 0 LINE SMOOTH",
"682 0 OFFCURVE",
"684 1 OFFCURVE",
"683 5 CURVE",
"565 692 LINE",
"564 695 OFFCURVE",
"562 696 OFFCURVE",
"560 696 CURVE",
"415 696 LINE",
"413 696 OFFCURVE",
"411 695 OFFCURVE",
"410 692 CURVE",
"369 430 LINE",
"426 78 LINE",
"552 78 LINE",
"563 5 LINE",
"564 1 OFFCURVE",
"565 0 OFFCURVE",
"568 0 CURVE SMOOTH"
);
},
{
closed = 1;
nodes = (
"482 466 LINE",
"486 503 LINE",
"492 466 LINE",
"532 185 LINE",
"442 185 LINE"
);
}
);
width = 706;
}
);
leftKerningGroup = A;
leftMetricsKey = A;
rightKerningGroup = A;
rightMetricsKey = A;
},
{
glyphname = Aringacute;
lastChange = "2018-10-09 15:01:31 +0000";
layers = (
{
anchors = (
{
name = _top;
position = "{204, 835}";
}
);
components = (
{
name = A;
}
);
layerId = "105671D0-52CD-46B5-9B81-8ED8F76D0899";
paths = (
{
closed = 1;
nodes = (
"254 740 OFFCURVE",
"299 781 OFFCURVE",
"299 834 CURVE",
"299 886 OFFCURVE",
"255 929 OFFCURVE",
"207 929 CURVE",
"157 929 OFFCURVE",
"114 886 OFFCURVE",
"114 834 CURVE",
"114 784 OFFCURVE",
"157 740 OFFCURVE",
"207 740 CURVE"
);
},
{
closed = 1;
nodes = (
"181 787 OFFCURVE",
"161 809 OFFCURVE",
"161 834 CURVE",
"161 860 OFFCURVE",
"181 882 OFFCURVE",
"206 882 CURVE",
"230 882 OFFCURVE",
"250 860 OFFCURVE",
"250 834 CURVE",
"250 808 OFFCURVE",
"230 787 OFFCURVE",
"206 787 CURVE"
);
},
{
closed = 1;
nodes = (
"251 898 LINE",
"307 1002 LINE",
"308 1004 OFFCURVE",
"307 1006 OFFCURVE",
"304 1006 CURVE",
"210 1006 LINE",
"209 1006 OFFCURVE",
"207 1005 OFFCURVE",
"206 1002 CURVE",
"158 898 LINE"
);
}
);
width = 427;
}
);
leftKerningGroup = A;
rightKerningGroup = A;
unicode = 01FA;
},
{
glyphname = AE;
lastChange = "2018-10-09 15:01:31 +0000";
layers = (
{
anchors = (
{
name = ogonek;
position = "{592, -11}";
},
{
name = top;
position = "{366, 835}";
}
);
background = {
anchors = (
{
name = ogonek;
position = "{592, -11}";
},
{
name = top;
position = "{366, 835}";
}
);
paths = (
{
closed = 1;
nodes = (
"111 185 LINE SMOOTH",
"110 185 OFFCURVE",
"109 185 OFFCURVE",
"109 184 CURVE",
"108 184 OFFCURVE",
"108 184 OFFCURVE",
"108 183 CURVE",
"107 183 OFFCURVE",
"107 183 OFFCURVE",
"107 182 CURVE",
"106 182 OFFCURVE",
"106 181 OFFCURVE",
"106 180 CURVE SMOOTH",
"106 83 LINE",
"106 81 LINE",
"107 80 OFFCURVE",
"107 80 OFFCURVE",
"107 79 CURVE",
"109 79 LINE",
"109 78 OFFCURVE",
"110 78 OFFCURVE",
"110 78 CURVE",
"337 78 LINE SMOOTH",
"338 78 OFFCURVE",
"338 78 OFFCURVE",
"339 79 CURVE",
"340 79 LINE",
"341 80 OFFCURVE",
"341 80 OFFCURVE",
"341 81 CURVE SMOOTH",
"341 83 LINE",
"341 180 LINE",
"341 182 LINE SMOOTH",
"341 183 OFFCURVE",
"340 183 OFFCURVE",
"340 183 CURVE",
"340 184 OFFCURVE",
"339 184 OFFCURVE",
"339 184 CURVE",
"338 185 OFFCURVE",
"337 185 OFFCURVE",
"337 185 CURVE SMOOTH"
);
},
{
closed = 1;
nodes = (
"316 2 OFFCURVE",
"317 0 OFFCURVE",
"320 0 CURVE SMOOTH",
"643 0 LINE SMOOTH",
"645 0 OFFCURVE",
"647 2 OFFCURVE",
"647 4 CURVE SMOOTH",
"647 118 LINE SMOOTH",
"647 121 OFFCURVE",
"645 123 OFFCURVE",
"643 123 CURVE SMOOTH",
"437 123 LINE",
"437 298 LINE",
"643 298 LINE SMOOTH",
"646 298 OFFCURVE",
"647 300 OFFCURVE",
"647 302 CURVE",
"646 415 LINE",
"646 418 OFFCURVE",
"645 419 OFFCURVE",
"642 419 CURVE SMOOTH",
"437 419 LINE",
"437 575 LINE",
"642 575 LINE SMOOTH",
"644 575 OFFCURVE",
"646 577 OFFCURVE",
"646 579 CURVE SMOOTH",
"646 691 LINE SMOOTH",
"646 694 OFFCURVE",
"645 696 OFFCURVE",
"642 696 CURVE SMOOTH",
"321 696 LINE SMOOTH",
"319 696 OFFCURVE",
"317 695 OFFCURVE",
"317 692 CURVE SMOOTH",
"316 5 LINE SMOOTH"
);
},
{
closed = 1;
nodes = (
"125 0 LINE SMOOTH",
"126 0 OFFCURVE",
"128 1 OFFCURVE",
"128 2 CURVE SMOOTH",
"303 451 LINE",
"318 492 LINE",
"329 696 LINE",
"287 696 LINE SMOOTH",
"285 696 OFFCURVE",
"282 695 OFFCURVE",
"281 693 CURVE",
"2 6 LINE SMOOTH",
"1 3 OFFCURVE",
"3 0 OFFCURVE",
"6 0 CURVE SMOOTH"
);
}
);
};
guideLines = (
{
position = "{245, 34}";
},
{
position = "{252, 185}";
}
);
layerId = "105671D0-52CD-46B5-9B81-8ED8F76D0899";
paths = (
{
closed = 1;
nodes = (
"125 0 LINE SMOOTH",
"126 0 OFFCURVE",
"128 1 OFFCURVE",
"128 2 CURVE",
"157.621 78 LINE",
"316.106 78 LINE",
"316 5 LINE SMOOTH",
"316 2 OFFCURVE",
"317 0 OFFCURVE",
"320 0 CURVE SMOOTH",
"643 0 LINE SMOOTH",
"645 0 OFFCURVE",
"647 2 OFFCURVE",
"647 4 CURVE SMOOTH",
"647 118 LINE SMOOTH",
"647 121 OFFCURVE",
"645 123 OFFCURVE",
"643 123 CURVE SMOOTH",
"437 123 LINE",
"437 298 LINE",
"643 298 LINE SMOOTH",
"646 298 OFFCURVE",
"647 300 OFFCURVE",
"647 302 CURVE",
"646 415 LINE",
"646 418 OFFCURVE",
"645 419 OFFCURVE",
"642 419 CURVE SMOOTH",
"437 419 LINE",
"437 575 LINE",
"642 575 LINE SMOOTH",
"644 575 OFFCURVE",
"646 577 OFFCURVE",
"646 579 CURVE SMOOTH",
"646 691 LINE SMOOTH",
"646 694 OFFCURVE",
"645 696 OFFCURVE",
"642 696 CURVE SMOOTH",
"287 696 LINE SMOOTH",
"285 696 OFFCURVE",
"282 695 OFFCURVE",
"281 693 CURVE",
"2 6 LINE",
"1 3 OFFCURVE",
"3 0 OFFCURVE",
"6 0 CURVE SMOOTH"
);
},
{
closed = 1;
nodes = (
"303 451 LINE",
"316.704 488.457 LINE",
"316.262 185 LINE",
"199.325 185 LINE"
);
}
);
width = 696;
}
);
leftKerningGroup = AE;
rightKerningGroup = E;
rightMetricsKey = E;
unicode = 00C6;
},
{
glyphname = B;
lastChange = "2018-10-09 15:01:31 +0000";
layers = (
{
anchors = (
{
name = top;
position = "{208, 835}";
}
);
guideLines = (
{
position = "{199, 122}";
},
{
position = "{203, 577}";
}
);
layerId = "105671D0-52CD-46B5-9B81-8ED8F76D0899";
paths = (
{
closed = 1;
nodes = (
"223 0 LINE SMOOTH",
"339 0 OFFCURVE",
"432 94 OFFCURVE",
"432 211 CURVE SMOOTH",
"432 267.05 OFFCURVE",
"408.959 319.343 OFFCURVE",
"371.274 357.602 CURVE",
"407.369 389.01 OFFCURVE",
"437 440.264 OFFCURVE",
"437 498 CURVE SMOOTH",
"437 603 OFFCURVE",
"351 696 OFFCURVE",
"238 696 CURVE SMOOTH",
"46 696 LINE SMOOTH",
"44 696 OFFCURVE",
"42 695 OFFCURVE",
"42 692 CURVE SMOOTH",
"40 5 LINE SMOOTH",
"40 2 OFFCURVE",
"41 0 OFFCURVE",
"44 0 CURVE SMOOTH"
);
},
{
closed = 1;
nodes = (
"162 299 LINE",
"223 299 LINE SMOOTH",
"271 299 OFFCURVE",
"311 259 OFFCURVE",
"311 211 CURVE SMOOTH",
"311 163 OFFCURVE",
"271 122 OFFCURVE",
"223 122 CURVE SMOOTH",
"161 122 LINE"
);
},
{
closed = 1;
nodes = (
"162 577 LINE",
"238 577 LINE SMOOTH",
"281 577 OFFCURVE",
"316 541 OFFCURVE",
"316 498 CURVE SMOOTH",
"316 459 OFFCURVE",
"284 420 OFFCURVE",
"238 420 CURVE SMOOTH",
"162 420 LINE"
);
}
);
width = 464;
}
);
leftKerningGroup = H;
leftMetricsKey = H;
rightKerningGroup = B;
unicode = 0042;
},
{
glyphname = C;
lastChange = "2018-10-12 15:17:58 +0000";
layers = (
{
anchors = (
{
name = bottom;
position = "{225, -11}";
},
{
name = top;
position = "{224, 835}";
}
);
layerId = "105671D0-52CD-46B5-9B81-8ED8F76D0899";
paths = (
{
closed = 1;
nodes = (
"333 -10 OFFCURVE",
"420 80 OFFCURVE",
"420 194 CURVE",
"420 240 LINE",
"420 243 OFFCURVE",
"419 244 OFFCURVE",
"416 244 CURVE",
"303 244 LINE",
"301 244 OFFCURVE",
"299 243 OFFCURVE",
"299 240 CURVE",
"299 194 OFFCURVE",
"299 194 OFFCURVE",
"299 194 CURVE SMOOTH",
"299 151 OFFCURVE",
"266 111 OFFCURVE",
"224 111 CURVE SMOOTH",
"182 111 OFFCURVE",
"150 145 OFFCURVE",
"150 194 CURVE SMOOTH",
"150 506 LINE SMOOTH",
"150 549 OFFCURVE",
"176 587 OFFCURVE",
"224 587 CURVE SMOOTH",
"266 587 OFFCURVE",
"299 550 OFFCURVE",
"299 506 CURVE",
"299 460 LINE",
"299 458 OFFCURVE",
"301 456 OFFCURVE",
"303 456 CURVE",
"415 456 LINE",
"418 456 OFFCURVE",
"419 458 OFFCURVE",
"419 460 CURVE",
"419 506 LINE SMOOTH",
"419 617 OFFCURVE",
"333 707 OFFCURVE",
"224 707 CURVE SMOOTH",
"113 707 OFFCURVE",
"29 615 OFFCURVE",
"29 506 CURVE SMOOTH",
"28 194 LINE SMOOTH",
"28 80 OFFCURVE",
"114 -10 OFFCURVE",
"224 -10 CURVE SMOOTH"
);
}
);
width = 453;
},
{
associatedMasterId = "105671D0-52CD-46B5-9B81-8ED8F76D0899";
layerId = "6C12C801-2028-4EDE-92A7-2C97ECE187E2";
name = "May 22 18, 14:14";
paths = (
{
closed = 1;
nodes = (
"214 712 OFFCURVE",
"201 711 OFFCURVE",
"189 708 CURVE",
"177 706 OFFCURVE",
"164 702 OFFCURVE",
"153 697 CURVE",
"141 692 OFFCURVE",
"130 686 OFFCURVE",
"119 679 CURVE",
"109 671 OFFCURVE",
"99 663 OFFCURVE",
"90 654 CURVE",
"80 644 OFFCURVE",
"72 634 OFFCURVE",
"65 623 CURVE",
"58 612 OFFCURVE",
"52 600 OFFCURVE",
"47 588 CURVE",
"42 576 OFFCURVE",
"39 564 OFFCURVE",
"36 551 CURVE",
"34 538 OFFCURVE",
"32 525 OFFCURVE",
"32 511 CURVE",
"31 195 LINE",
"31 181 OFFCURVE",
"33 168 OFFCURVE",
"35 155 CURVE",
"38 142 OFFCURVE",
"41 129 OFFCURVE",
"46 117 CURVE",
"51 105 OFFCURVE",
"57 93 OFFCURVE",
"64 82 CURVE",
"71 71 OFFCURVE",
"79 61 OFFCURVE",
"88 51 CURVE",
"98 41 OFFCURVE",
"108 33 OFFCURVE",
"118 25 CURVE",
"129 18 OFFCURVE",
"140 12 OFFCURVE",
"152 7 CURVE",
"164 1 OFFCURVE",
"176 -2 OFFCURVE",
"189 -5 CURVE",
"201 -8 OFFCURVE",
"214 -9 OFFCURVE",
"227 -9 CURVE",
"240 -9 OFFCURVE",
"253 -8 OFFCURVE",
"266 -5 CURVE",
"278 -2 OFFCURVE",
"291 1 OFFCURVE",
"302 7 CURVE",
"314 12 OFFCURVE",
"325 18 OFFCURVE",
"336 25 CURVE",
"347 33 OFFCURVE",
"357 41 OFFCURVE",
"366 51 CURVE",
"375 61 OFFCURVE",
"383 71 OFFCURVE",
"391 82 CURVE",
"398 93 OFFCURVE",
"404 105 OFFCURVE",
"408 117 CURVE",
"413 129 OFFCURVE",
"417 142 OFFCURVE",
"419 155 CURVE",
"422 168 OFFCURVE",
"423 181 OFFCURVE",
"423 195 CURVE",
"423 195 LINE",
"423 195 OFFCURVE",
"422 194 OFFCURVE",
"422 194 CURVE",
"422 194 OFFCURVE",
"421 193 OFFCURVE",
"421 193 CURVE",
"421 193 OFFCURVE",
"420 193 OFFCURVE",
"420 193 CURVE",
"420 192 OFFCURVE",
"419 192 OFFCURVE",
"419 192 CURVE",
"306 192 LINE",
"306 192 OFFCURVE",
"305 192 OFFCURVE",
"305 193 CURVE",
"305 193 OFFCURVE",
"304 193 OFFCURVE",
"304 193 CURVE",
"304 193 OFFCURVE",
"303 194 OFFCURVE",
"303 194 CURVE",
"303 194 OFFCURVE",
"303 195 OFFCURVE",
"302 195 CURVE",
"302 195 LINE",
"302 184 OFFCURVE",
"300 174 OFFCURVE",
"296 165 CURVE",
"292 156 OFFCURVE",
"287 147 OFFCURVE",
"280 140 CURVE",
"273 133 OFFCURVE",
"265 127 OFFCURVE",
"256 123 CURVE",
"247 119 OFFCURVE",
"238 117 OFFCURVE",
"227 117 CURVE",
"217 117 OFFCURVE",
"207 119 OFFCURVE",
"198 123 CURVE",
"189 127 OFFCURVE",
"181 133 OFFCURVE",
"174 140 CURVE",
"168 147 OFFCURVE",
"162 156 OFFCURVE",
"158 165 CURVE",
"155 174 OFFCURVE",
"153 184 OFFCURVE",
"153 195 CURVE",
"153 511 LINE",
"153 522 OFFCURVE",
"155 532 OFFCURVE",
"159 541 CURVE",
"163 550 OFFCURVE",
"168 559 OFFCURVE",
"175 566 CURVE",
"181 572 OFFCURVE",
"189 578 OFFCURVE",
"198 582 CURVE",
"207 586 OFFCURVE",
"217 588 OFFCURVE",
"227 588 CURVE",
"238 588 OFFCURVE",
"247 586 OFFCURVE",
"256 582 CURVE",
"265 578 OFFCURVE",
"273 572 OFFCURVE",
"280 566 CURVE",
"287 559 OFFCURVE",
"292 550 OFFCURVE",
"296 541 CURVE",
"300 532 OFFCURVE",
"302 522 OFFCURVE",
"302 511 CURVE",
"302 481 LINE",
"302 503 LINE",
"302 504 OFFCURVE",
"302 504 OFFCURVE",
"302 505 CURVE",
"302 505 OFFCURVE",
"303 506 OFFCURVE",
"303 506 CURVE",
"303 507 OFFCURVE",
"304 507 OFFCURVE",
"304 507 CURVE",
"305 507 OFFCURVE",
"305 508 OFFCURVE",
"306 508 CURVE",
"418 508 LINE",
"419 508 OFFCURVE",
"419 507 OFFCURVE",
"420 507 CURVE",
"420 507 OFFCURVE",
"421 507 OFFCURVE",
"421 506 CURVE",
"421 506 OFFCURVE",
"422 505 OFFCURVE",
"422 505 CURVE",
"422 504 OFFCURVE",
"422 504 OFFCURVE",
"422 503 CURVE",
"422 511 LINE",
"422 525 OFFCURVE",
"421 538 OFFCURVE",
"418 551 CURVE",
"416 564 OFFCURVE",
"412 576 OFFCURVE",
"407 588 CURVE",
"402 600 OFFCURVE",
"396 612 OFFCURVE",
"389 623 CURVE",
"382 634 OFFCURVE",
"374 644 OFFCURVE",
"365 654 CURVE",
"356 663 OFFCURVE",
"346 671 OFFCURVE",
"335 679 CURVE",
"325 686 OFFCURVE",
"313 692 OFFCURVE",
"302 697 CURVE",
"290 702 OFFCURVE",
"278 706 OFFCURVE",
"265 708 CURVE",
"253 711 OFFCURVE",
"240 712 OFFCURVE",
"227 712 CURVE"
);
},
{
closed = 1;
nodes = (
"306 508 LINE",
"305 508 OFFCURVE",
"305 507 OFFCURVE",
"304 507 CURVE",
"304 507 OFFCURVE",
"303 507 OFFCURVE",
"303 506 CURVE",
"303 506 OFFCURVE",
"302 505 OFFCURVE",
"302 505 CURVE",
"302 504 OFFCURVE",
"302 504 OFFCURVE",
"302 503 CURVE",
"302 481 LINE",
"302 465 LINE",
"302 464 OFFCURVE",
"302 464 OFFCURVE",
"302 463 CURVE",
"302 463 OFFCURVE",
"303 462 OFFCURVE",
"303 462 CURVE",
"303 461 OFFCURVE",
"304 461 OFFCURVE",
"304 461 CURVE",
"305 461 OFFCURVE",
"305 461 OFFCURVE",
"306 461 CURVE",
"418 461 LINE",
"419 461 OFFCURVE",
"419 461 OFFCURVE",
"420 461 CURVE",
"420 461 OFFCURVE",
"421 461 OFFCURVE",
"421 462 CURVE",
"422 462 OFFCURVE",
"422 463 OFFCURVE",
"422 463 CURVE",
"422 464 OFFCURVE",
"422 464 OFFCURVE",
"422 465 CURVE",
"422 503 LINE",
"422 504 OFFCURVE",
"422 504 OFFCURVE",
"422 505 CURVE",
"422 505 OFFCURVE",
"421 506 OFFCURVE",
"421 506 CURVE",
"421 507 OFFCURVE",
"420 507 OFFCURVE",
"420 507 CURVE",
"419 507 OFFCURVE",
"419 508 OFFCURVE",
"418 508 CURVE"
);
},
{
closed = 1;
nodes = (
"306 245 LINE",
"306 245 OFFCURVE",
"305 245 OFFCURVE",
"305 245 CURVE",
"304 245 OFFCURVE",
"304 244 OFFCURVE",
"303 244 CURVE",
"303 244 OFFCURVE",
"303 243 OFFCURVE",
"302 243 CURVE",
"302 242 OFFCURVE",
"302 241 OFFCURVE",
"302 241 CURVE",
"302 197 LINE",
"302 197 OFFCURVE",
"302 197 OFFCURVE",
"302 196 CURVE",
"302 196 OFFCURVE",
"302 196 OFFCURVE",
"302 196 CURVE",
"302 196 OFFCURVE",
"302 196 OFFCURVE",
"302 195 CURVE",
"302 195 OFFCURVE",
"302 195 OFFCURVE",
"302 195 CURVE",
"303 195 OFFCURVE",
"303 194 OFFCURVE",
"303 194 CURVE",
"303 194 OFFCURVE",
"304 193 OFFCURVE",
"304 193 CURVE",
"304 193 OFFCURVE",
"305 193 OFFCURVE",
"305 193 CURVE",
"305 192 OFFCURVE",
"306 192 OFFCURVE",
"306 192 CURVE",
"419 192 LINE",
"419 192 OFFCURVE",
"420 192 OFFCURVE",
"420 193 CURVE",
"420 193 OFFCURVE",
"421 193 OFFCURVE",
"421 193 CURVE",
"421 193 OFFCURVE",
"422 194 OFFCURVE",
"422 194 CURVE",
"422 194 OFFCURVE",
"423 195 OFFCURVE",
"423 195 CURVE",
"423 195 OFFCURVE",
"423 195 OFFCURVE",
"423 195 CURVE",
"423 196 OFFCURVE",
"423 196 OFFCURVE",
"423 196 CURVE",
"423 196 OFFCURVE",
"423 196 OFFCURVE",
"423 196 CURVE",
"423 197 OFFCURVE",
"423 197 OFFCURVE",
"423 197 CURVE",
"423 241 LINE",
"423 241 OFFCURVE",
"423 242 OFFCURVE",
"423 243 CURVE",
"422 243 OFFCURVE",
"422 244 OFFCURVE",
"422 244 CURVE",
"421 244 OFFCURVE",
"421 245 OFFCURVE",
"420 245 CURVE",
"420 245 OFFCURVE",
"419 245 OFFCURVE",
"419 245 CURVE"
);
}
);
width = 470;
},
{
associatedMasterId = "105671D0-52CD-46B5-9B81-8ED8F76D0899";
layerId = "7F18DACA-8926-4E0A-804F-54819D501241";
name = "May 22 18, 14:15";
paths = (
{
closed = 1;
nodes = (
"214 705 OFFCURVE",
"201 704 OFFCURVE",
"189 701 CURVE",
"177 699 OFFCURVE",
"164 695 OFFCURVE",
"153 690 CURVE",
"141 685 OFFCURVE",
"130 679 OFFCURVE",
"119 672 CURVE",
"109 664 OFFCURVE",
"99 656 OFFCURVE",
"90 647 CURVE",
"80 637 OFFCURVE",
"72 627 OFFCURVE",
"65 616 CURVE",
"58 605 OFFCURVE",
"52 593 OFFCURVE",
"47 581 CURVE",
"42 569 OFFCURVE",
"39 557 OFFCURVE",
"36 544 CURVE",
"34 531 OFFCURVE",
"32 518 OFFCURVE",
"32 504 CURVE",
"31 195 LINE",
"31 181 OFFCURVE",
"33 168 OFFCURVE",
"35 155 CURVE",
"38 142 OFFCURVE",
"41 129 OFFCURVE",
"46 117 CURVE",
"51 105 OFFCURVE",
"57 93 OFFCURVE",
"64 82 CURVE",
"71 71 OFFCURVE",
"79 61 OFFCURVE",
"88 51 CURVE",
"98 41 OFFCURVE",
"108 33 OFFCURVE",
"118 25 CURVE",
"129 18 OFFCURVE",
"140 12 OFFCURVE",
"152 7 CURVE",
"164 1 OFFCURVE",
"176 -2 OFFCURVE",
"189 -5 CURVE",
"201 -8 OFFCURVE",
"214 -9 OFFCURVE",
"227 -9 CURVE",
"240 -9 OFFCURVE",
"253 -8 OFFCURVE",
"266 -5 CURVE",
"278 -2 OFFCURVE",
"291 1 OFFCURVE",
"302 7 CURVE",
"314 12 OFFCURVE",
"325 18 OFFCURVE",
"336 25 CURVE",
"347 33 OFFCURVE",
"357 41 OFFCURVE",
"366 51 CURVE",
"375 61 OFFCURVE",
"383 71 OFFCURVE",
"391 82 CURVE",
"398 93 OFFCURVE",
"404 105 OFFCURVE",
"408 117 CURVE",
"413 129 OFFCURVE",
"417 142 OFFCURVE",
"419 155 CURVE",
"422 168 OFFCURVE",
"423 181 OFFCURVE",
"423 195 CURVE",
"423 195 LINE",
"423 195 OFFCURVE",
"422 194 OFFCURVE",
"422 194 CURVE",
"422 194 OFFCURVE",
"421 193 OFFCURVE",
"421 193 CURVE",
"421 193 OFFCURVE",
"420 193 OFFCURVE",
"420 193 CURVE",
"420 192 OFFCURVE",
"419 192 OFFCURVE",
"419 192 CURVE",
"306 192 LINE",
"306 192 OFFCURVE",
"305 192 OFFCURVE",
"305 193 CURVE",
"305 193 OFFCURVE",
"304 193 OFFCURVE",
"304 193 CURVE",
"304 193 OFFCURVE",
"303 194 OFFCURVE",
"303 194 CURVE",
"303 194 OFFCURVE",
"303 195 OFFCURVE",
"302 195 CURVE",
"302 195 LINE",
"302 184 OFFCURVE",
"300 174 OFFCURVE",
"296 165 CURVE",
"292 156 OFFCURVE",
"287 147 OFFCURVE",
"280 140 CURVE",
"273 133 OFFCURVE",
"265 127 OFFCURVE",
"256 123 CURVE",
"247 119 OFFCURVE",
"238 117 OFFCURVE",
"227 117 CURVE",
"217 117 OFFCURVE",
"207 119 OFFCURVE",
"198 123 CURVE",
"189 127 OFFCURVE",
"181 133 OFFCURVE",
"174 140 CURVE",
"168 147 OFFCURVE",
"162 156 OFFCURVE",
"158 165 CURVE",
"155 174 OFFCURVE",
"153 184 OFFCURVE",
"153 195 CURVE",
"153 504 LINE",
"153 515 OFFCURVE",
"155 525 OFFCURVE",
"159 534 CURVE",
"163 543 OFFCURVE",
"168 552 OFFCURVE",
"175 559 CURVE",
"181 565 OFFCURVE",
"189 571 OFFCURVE",
"198 575 CURVE",
"207 579 OFFCURVE",
"217 581 OFFCURVE",
"227 581 CURVE",
"238 581 OFFCURVE",
"247 579 OFFCURVE",
"256 575 CURVE",
"265 571 OFFCURVE",
"273 565 OFFCURVE",
"280 559 CURVE",
"287 552 OFFCURVE",
"292 543 OFFCURVE",
"296 534 CURVE",
"300 525 OFFCURVE",
"302 515 OFFCURVE",
"302 504 CURVE",
"302 474 LINE",
"302 496 LINE",
"302 497 OFFCURVE",
"302 497 OFFCURVE",
"302 498 CURVE",
"302 498 OFFCURVE",
"303 499 OFFCURVE",
"303 499 CURVE",
"303 500 OFFCURVE",
"304 500 OFFCURVE",
"304 500 CURVE",
"305 500 OFFCURVE",
"305 501 OFFCURVE",
"306 501 CURVE",
"418 501 LINE",
"419 501 OFFCURVE",
"419 500 OFFCURVE",
"420 500 CURVE",
"420 500 OFFCURVE",
"421 500 OFFCURVE",
"421 499 CURVE",
"421 499 OFFCURVE",
"422 498 OFFCURVE",
"422 498 CURVE",
"422 497 OFFCURVE",
"422 497 OFFCURVE",
"422 496 CURVE",
"422 504 LINE",
"422 518 OFFCURVE",
"421 531 OFFCURVE",
"418 544 CURVE",
"416 557 OFFCURVE",
"412 569 OFFCURVE",
"407 581 CURVE",
"402 593 OFFCURVE",
"396 605 OFFCURVE",
"389 616 CURVE",
"382 627 OFFCURVE",
"374 637 OFFCURVE",
"365 647 CURVE",
"356 656 OFFCURVE",
"346 664 OFFCURVE",
"335 672 CURVE",
"325 679 OFFCURVE",
"313 685 OFFCURVE",
"302 690 CURVE",
"290 695 OFFCURVE",
"278 699 OFFCURVE",
"265 701 CURVE",
"253 704 OFFCURVE",
"240 705 OFFCURVE",
"227 705 CURVE"
);
},
{
closed = 1;
nodes = (
"306 501 LINE",
"305 501 OFFCURVE",
"305 500 OFFCURVE",
"304 500 CURVE",
"304 500 OFFCURVE",
"303 500 OFFCURVE",
"303 499 CURVE",
"303 499 OFFCURVE",
"302 498 OFFCURVE",
"302 498 CURVE",
"302 497 OFFCURVE",
"302 497 OFFCURVE",
"302 496 CURVE",
"302 474 LINE",
"302 458 LINE",
"302 457 OFFCURVE",
"302 457 OFFCURVE",
"302 456 CURVE",
"302 456 OFFCURVE",
"303 455 OFFCURVE",
"303 455 CURVE",
"303 454 OFFCURVE",
"304 454 OFFCURVE",
"304 454 CURVE",
"305 454 OFFCURVE",
"305 454 OFFCURVE",
"306 454 CURVE",
"418 454 LINE",
"419 454 OFFCURVE",
"419 454 OFFCURVE",
"420 454 CURVE",
"420 454 OFFCURVE",
"421 454 OFFCURVE",
"421 455 CURVE",
"422 455 OFFCURVE",
"422 456 OFFCURVE",
"422 456 CURVE",
"422 457 OFFCURVE",
"422 457 OFFCURVE",
"422 458 CURVE",
"422 496 LINE",
"422 497 OFFCURVE",
"422 497 OFFCURVE",
"422 498 CURVE",
"422 498 OFFCURVE",
"421 499 OFFCURVE",
"421 499 CURVE",
"421 500 OFFCURVE",
"420 500 OFFCURVE",
"420 500 CURVE",
"419 500 OFFCURVE",
"419 501 OFFCURVE",
"418 501 CURVE"
);
},
{
closed = 1;
nodes = (
"306 245 LINE",
"306 245 OFFCURVE",
"305 245 OFFCURVE",
"305 245 CURVE",
"304 245 OFFCURVE",
"304 244 OFFCURVE",
"303 244 CURVE",
"303 244 OFFCURVE",
"303 243 OFFCURVE",
"302 243 CURVE",
"302 242 OFFCURVE",
"302 241 OFFCURVE",
"302 241 CURVE",
"302 197 LINE",
"302 197 OFFCURVE",
"302 197 OFFCURVE",
"302 196 CURVE",
"302 196 OFFCURVE",
"302 196 OFFCURVE",
"302 196 CURVE",
"302 196 OFFCURVE",
"302 196 OFFCURVE",
"302 195 CURVE",
"302 195 OFFCURVE",
"302 195 OFFCURVE",
"302 195 CURVE",
"303 195 OFFCURVE",
"303 194 OFFCURVE",
"303 194 CURVE",
"303 194 OFFCURVE",
"304 193 OFFCURVE",
"304 193 CURVE",
"304 193 OFFCURVE",
"305 193 OFFCURVE",
"305 193 CURVE",
"305 192 OFFCURVE",
"306 192 OFFCURVE",
"306 192 CURVE",
"419 192 LINE",
"419 192 OFFCURVE",
"420 192 OFFCURVE",
"420 193 CURVE",
"420 193 OFFCURVE",
"421 193 OFFCURVE",
"421 193 CURVE",
"421 193 OFFCURVE",
"422 194 OFFCURVE",
"422 194 CURVE",
"422 194 OFFCURVE",
"423 195 OFFCURVE",
"423 195 CURVE",
"423 195 OFFCURVE",
"423 195 OFFCURVE",
"423 195 CURVE",
"423 196 OFFCURVE",
"423 196 OFFCURVE",
"423 196 CURVE",
"423 196 OFFCURVE",
"423 196 OFFCURVE",
"423 196 CURVE",
"423 197 OFFCURVE",
"423 197 OFFCURVE",
"423 197 CURVE",
"423 241 LINE",
"423 241 OFFCURVE",
"423 242 OFFCURVE",
"423 243 CURVE",
"422 243 OFFCURVE",
"422 244 OFFCURVE",
"422 244 CURVE",
"421 244 OFFCURVE",
"421 245 OFFCURVE",
"420 245 CURVE",
"420 245 OFFCURVE",
"419 245 OFFCURVE",
"419 245 CURVE"
);
}
);
width = 470;
},
{
associatedMasterId = "105671D0-52CD-46B5-9B81-8ED8F76D0899";
layerId = "C54F88B8-D619-4524-838B-1278F4A0F3A7";
name = "May 23 18, 09:50";
paths = (
{
closed = 1;
nodes = (
"38 181 OFFCURVE",
"40 168 OFFCURVE",
"42 155 CURVE",
"45 142 OFFCURVE",
"48 129 OFFCURVE",
"53 117 CURVE SMOOTH",
"58 105 OFFCURVE",
"64 93 OFFCURVE",
"71 82 CURVE SMOOTH",
"78 71 OFFCURVE",
"86 61 OFFCURVE",
"95 51 CURVE",
"105 41 OFFCURVE",
"115 33 OFFCURVE",
"125 25 CURVE",
"136 18 OFFCURVE",
"147 12 OFFCURVE",
"159 7 CURVE",
"171 1 OFFCURVE",
"183 -2 OFFCURVE",
"196 -5 CURVE SMOOTH",
"208 -8 OFFCURVE",
"221 -9 OFFCURVE",
"234 -9 CURVE SMOOTH",
"247 -9 OFFCURVE",
"260 -8 OFFCURVE",
"273 -5 CURVE SMOOTH",
"285 -2 OFFCURVE",
"298 1 OFFCURVE",
"309 7 CURVE",
"321 12 OFFCURVE",
"332 18 OFFCURVE",
"343 25 CURVE",
"354 33 OFFCURVE",
"364 41 OFFCURVE",
"373 51 CURVE SMOOTH",
"382 61 OFFCURVE",
"390 71 OFFCURVE",
"398 82 CURVE",
"405 93 OFFCURVE",
"411 105 OFFCURVE",
"415 117 CURVE",
"420 129 OFFCURVE",
"424 142 OFFCURVE",
"426 155 CURVE",
"429 168 OFFCURVE",
"430 181 OFFCURVE",
"430 195 CURVE SMOOTH",
"430 196 LINE",
"430 196 OFFCURVE",
"430 196 OFFCURVE",
"430 196 CURVE",
"430 197 LINE",
"430 241 LINE",
"430 243 OFFCURVE",
"428 245 OFFCURVE",
"426 245 CURVE",
"313 245 LINE",
"311 245 OFFCURVE",
"309 243 OFFCURVE",
"309 241 CURVE",
"309 197 LINE",
"309 196 LINE",
"309 196 OFFCURVE",
"309 196 OFFCURVE",
"309 196 CURVE",
"309 195 LINE SMOOTH",
"309 184 OFFCURVE",
"307 174 OFFCURVE",
"303 165 CURVE SMOOTH",
"299 156 OFFCURVE",
"294 147 OFFCURVE",
"287 140 CURVE SMOOTH",
"280 133 OFFCURVE",
"272 127 OFFCURVE",
"263 123 CURVE SMOOTH",
"254 119 OFFCURVE",
"245 117 OFFCURVE",
"234 117 CURVE SMOOTH",
"224 117 OFFCURVE",
"214 119 OFFCURVE",
"205 123 CURVE SMOOTH",
"196 127 OFFCURVE",
"188 133 OFFCURVE",
"181 140 CURVE",
"175 147 OFFCURVE",
"169 156 OFFCURVE",
"165 165 CURVE",
"162 174 OFFCURVE",
"160 184 OFFCURVE",
"160 195 CURVE SMOOTH",
"160 504 LINE SMOOTH",
"160 515 OFFCURVE",
"162 525 OFFCURVE",
"166 534 CURVE SMOOTH",
"170 543 OFFCURVE",
"175 552 OFFCURVE",
"182 559 CURVE SMOOTH",
"188 565 OFFCURVE",
"196 571 OFFCURVE",
"205 575 CURVE SMOOTH",
"214 579 OFFCURVE",
"224 581 OFFCURVE",
"234 581 CURVE SMOOTH",
"245 581 OFFCURVE",
"254 579 OFFCURVE",
"263 575 CURVE SMOOTH",
"272 571 OFFCURVE",
"280 565 OFFCURVE",
"287 559 CURVE",
"294 552 OFFCURVE",
"299 543 OFFCURVE",
"303 534 CURVE SMOOTH",
"307 525 OFFCURVE",
"309 515 OFFCURVE",
"309 504 CURVE SMOOTH",
"309 498 LINE",
"309 496 LINE",
"309 458 LINE",
"309 456 OFFCURVE",
"311 454 OFFCURVE",
"313 454 CURVE",
"425 454 LINE",
"428 454 OFFCURVE",
"429 456 OFFCURVE",
"429 458 CURVE",
"429 504 LINE SMOOTH",
"429 518 OFFCURVE",
"428 531 OFFCURVE",
"425 544 CURVE",
"423 557 OFFCURVE",
"419 569 OFFCURVE",
"414 581 CURVE SMOOTH",
"409 593 OFFCURVE",
"403 605 OFFCURVE",
"396 616 CURVE SMOOTH",
"389 627 OFFCURVE",
"381 637 OFFCURVE",
"372 647 CURVE",
"363 656 OFFCURVE",
"353 664 OFFCURVE",
"342 672 CURVE SMOOTH",
"332 679 OFFCURVE",
"320 685 OFFCURVE",
"309 690 CURVE SMOOTH",
"297 695 OFFCURVE",
"285 699 OFFCURVE",
"272 701 CURVE",
"260 704 OFFCURVE",
"247 705 OFFCURVE",
"234 705 CURVE SMOOTH",
"221 705 OFFCURVE",
"208 704 OFFCURVE",
"196 701 CURVE",
"184 699 OFFCURVE",
"171 695 OFFCURVE",
"160 690 CURVE SMOOTH",
"148 685 OFFCURVE",
"137 679 OFFCURVE",
"126 672 CURVE",
"116 664 OFFCURVE",
"106 656 OFFCURVE",
"97 647 CURVE SMOOTH",
"87 637 OFFCURVE",
"79 627 OFFCURVE",
"72 616 CURVE SMOOTH",
"65 605 OFFCURVE",
"59 593 OFFCURVE",
"54 581 CURVE SMOOTH",
"49 569 OFFCURVE",
"46 557 OFFCURVE",
"43 544 CURVE",
"41 531 OFFCURVE",
"39 518 OFFCURVE",
"39 504 CURVE SMOOTH",
"38 195 LINE SMOOTH"
);
},
{
closed = 1;
nodes = (
"309 496 LINE SMOOTH",
"309 498 LINE"
);
},
{
closed = 1;
nodes = (
"429 497 OFFCURVE",
"429 497 OFFCURVE",
"429 498 CURVE",
"429 496 LINE"
);
}
);
width = 471;
},
{
annotations = (
{
position = "{1128.937, -416.736}";
type = Text;
}
);
associatedMasterId = "105671D0-52CD-46B5-9B81-8ED8F76D0899";
layerId = "6DB4D9BD-583B-4E8C-A7CB-39E756BECB19";
name = "compare o";
paths = (
{
closed = 1;
nodes = (
"195 111 OFFCURVE",
"158 143 OFFCURVE",
"158 191 CURVE",
"158 508 LINE",
"158 549 OFFCURVE",
"187 587 OFFCURVE",
"233 587 CURVE",
"276 587 OFFCURVE",
"307 551 OFFCURVE",
"307 508 CURVE",
"308 191 LINE",
"308 154 OFFCURVE",
"278 111 OFFCURVE",
"233 111 CURVE"
);
},
{
closed = 1;
nodes = (
"123 707 OFFCURVE",
"37 614 OFFCURVE",
"37 508 CURVE",
"36 191 LINE",
"36 80 OFFCURVE",
"126 -10 OFFCURVE",
"233 -10 CURVE",
"339 -10 OFFCURVE",
"429 79 OFFCURVE",
"429 191 CURVE",
"428 508 LINE",
"428 619 OFFCURVE",
"339 707 OFFCURVE",
"233 707 CURVE"
);
}
);
width = 466;
},
{
annotations = (
{
position = "{1128.937, -416.736}";
type = Text;
}
);
associatedMasterId = "105671D0-52CD-46B5-9B81-8ED8F76D0899";
layerId = "33534BC5-0CD1-4E72-B0CC-58D9E2C50F29";
name = "May 28 18, 12:44";
paths = (
{
closed = 1;
nodes = (
"37 88 OFFCURVE",
"120 -10 OFFCURVE",
"233 -10 CURVE SMOOTH",
"338 -10 OFFCURVE",
"429 76 OFFCURVE",
"429 194 CURVE",
"429 240 LINE",
"429 242 OFFCURVE",
"427 244 OFFCURVE",
"425 244 CURVE",
"312 244 LINE",
"310 244 OFFCURVE",
"308 242 OFFCURVE",
"308 240 CURVE",
"308 194 OFFCURVE",
"308 194 OFFCURVE",
"308 194 CURVE SMOOTH",
"308 152 OFFCURVE",
"275 116 OFFCURVE",
"233 116 CURVE SMOOTH",
"191 116 OFFCURVE",
"159 151 OFFCURVE",
"159 194 CURVE SMOOTH",
"159 506 LINE SMOOTH",
"159 545 OFFCURVE",
"188 583 OFFCURVE",
"233 583 CURVE SMOOTH",
"275 583 OFFCURVE",
"308 548 OFFCURVE",
"308 506 CURVE",
"308 460 LINE",
"308 458 OFFCURVE",
"310 456 OFFCURVE",
"312 456 CURVE",
"424 456 LINE",
"427 456 OFFCURVE",
"428 458 OFFCURVE",
"428 460 CURVE",
"428 506 LINE SMOOTH",
"428 617 OFFCURVE",
"342 707 OFFCURVE",
"233 707 CURVE SMOOTH",
"122 707 OFFCURVE",
"38 613 OFFCURVE",
"38 506 CURVE SMOOTH",
"37 194 LINE SMOOTH"
);
}
);
width = 466;
}
);
leftKerningGroup = O;
leftMetricsKey = O;
rightKerningGroup = O;
unicode = 0043;
},
{
glyphname = D;
lastChange = "2018-10-09 15:01:31 +0000";
layers = (
{
anchors = (
{
name = top;
position = "{220, 835}";
}
);
layerId = "105671D0-52CD-46B5-9B81-8ED8F76D0899";
paths = (
{
closed = 1;
nodes = (
"224 1 LINE SMOOTH",
"341 2 OFFCURVE",
"433 95 OFFCURVE",
"433 211 CURVE",
"433 498 LINE SMOOTH",
"433 608 OFFCURVE",
"343 698 OFFCURVE",
"233 697 CURVE SMOOTH",
"46 696 LINE",
"44 696 OFFCURVE",
"42 694 OFFCURVE",
"42 692 CURVE",
"40 5 LINE",
"40 2 OFFCURVE",
"42 0 OFFCURVE",
"45 0 CURVE SMOOTH"
);
},
{
closed = 1;
nodes = (
"163 576 LINE",
"233 577 LINE SMOOTH",
"275 578 OFFCURVE",
"312 542 OFFCURVE",
"312 499 CURVE SMOOTH",
"312 211 LINE SMOOTH",
"312 163 OFFCURVE",
"273 123 OFFCURVE",
"224 123 CURVE SMOOTH",
"162 123 LINE"
);
}
);
width = 472;
},
{
associatedMasterId = "105671D0-52CD-46B5-9B81-8ED8F76D0899";
layerId = "294E8172-E824-430C-A5F2-A087A0031B6E";
name = "May 24 18, 10:52";
paths = (
{
closed = 1;
nodes = (
"7.3 800.182 LINE",
"6.616 800.182 OFFCURVE",
"5.964 800.042 OFFCURVE",
"5.369 799.79 CURVE",
"4.774 799.539 OFFCURVE",
"4.237 799.175 OFFCURVE",
"3.785 798.726 CURVE",
"3.333 798.276 OFFCURVE",
"2.967 797.741 OFFCURVE",
"2.712 797.148 CURVE",
"2.458 796.556 OFFCURVE",
"2.316 795.904 OFFCURVE",
"2.314 795.222 CURVE",
"0.222 5.043 LINE",
"0.22 4.351 OFFCURVE",
"0.359 3.689 OFFCURVE",
"0.612 3.086 CURVE",
"0.866 2.483 OFFCURVE",
"1.233 1.939 OFFCURVE",
"1.687 1.482 CURVE",
"2.141 1.025 OFFCURVE",
"2.681 0.655 OFFCURVE",
"3.28 0.398 CURVE",
"3.879 0.143 OFFCURVE",
"4.537 0 OFFCURVE",
"5.227 0 CURVE",
"134.844 0 LINE",
"135.037 0 OFFCURVE",
"135.229 0.012 OFFCURVE",
"135.417 0.033 CURVE",
"135.605 0.056 OFFCURVE",
"135.791 0.088 OFFCURVE",
"135.973 0.131 CURVE",
"136.154 0.173 OFFCURVE",
"136.332 0.226 OFFCURVE",
"136.506 0.287 CURVE",
"136.68 0.349 OFFCURVE",
"136.85 0.42 OFFCURVE",
"137.015 0.5 CURVE",
"65.054 0.5 LINE",
"65.318 140.618 LINE",
"140.005 140.618 LINE",
"140.533 662.341 LINE",
"77.689 662.037 LINE",
"77.251 799.985 LINE",
"117.486 800.182 LINE"
);
},
{
closed = 1;
nodes = (
"117.486 800.182 LINE",
"77.251 799.985 LINE",
"77.689 662.037 LINE",
"140.533 662.341 LINE",
"221.886 662.735 LINE",
"234.321 662.715 OFFCURVE",
"246.178 660.178 OFFCURVE",
"256.969 655.607 CURVE",
"267.761 651.036 OFFCURVE",
"277.488 644.431 OFFCURVE",
"285.665 636.276 CURVE",
"293.844 628.12 OFFCURVE",
"300.471 618.413 OFFCURVE",
"305.061 607.64 CURVE",
"309.652 596.863 OFFCURVE",
"312.205 585.02 OFFCURVE",
"312.23 572.593 CURVE",
"311.564 242.029 LINE",
"311.564 241.821 LINE",
"311.579 227.884 OFFCURVE",
"308.763 214.592 OFFCURVE",
"303.66 202.493 CURVE",
"298.557 190.391 OFFCURVE",
"291.165 179.482 OFFCURVE",
"282.03 170.316 CURVE",
"272.894 161.149 OFFCURVE",
"262.015 153.725 OFFCURVE",
"249.938 148.592 CURVE",
"237.86 143.459 OFFCURVE",
"224.587 140.618 OFFCURVE",
"210.664 140.618 CURVE",
"140.005 140.618 LINE",
"65.318 140.618 LINE",
"65.054 0.5 LINE",
"137.015 0.5 LINE",
"210.638 0.5 LINE",
"226.721 0.5 OFFCURVE",
"242.562 2.073 OFFCURVE",
"257.986 5.147 CURVE",
"273.411 8.221 OFFCURVE",
"288.418 12.795 OFFCURVE",
"302.834 18.796 CURVE",
"317.247 24.796 OFFCURVE",
"331.068 32.223 OFFCURVE",
"344.122 41.002 CURVE",
"357.173 49.78 OFFCURVE",
"369.457 59.911 OFFCURVE",
"380.8 71.32 CURVE",
"392.13 82.72 OFFCURVE",
"402.182 95.054 OFFCURVE",
"410.884 108.147 CURVE",
"419.583 121.236 OFFCURVE",
"426.933 135.085 OFFCURVE",
"432.862 149.518 CURVE",
"438.789 163.945 OFFCURVE",
"443.297 178.957 OFFCURVE",
"446.314 194.378 CURVE",
"449.33 209.793 OFFCURVE",
"450.857 225.617 OFFCURVE",
"450.824 241.677 CURVE",
"450.949 572.278 LINE",
"450.948 572.493 LINE",
"451 588 OFFCURVE",
"449 603 OFFCURVE",
"446 617 CURVE",
"443 632 OFFCURVE",
"439 646 OFFCURVE",
"433 660 CURVE",
"428 674 OFFCURVE",
"421 687 OFFCURVE",
"412 699 CURVE",
"404 712 OFFCURVE",
"394 723 OFFCURVE",
"384 734 CURVE",
"373 745 OFFCURVE",
"361 754 OFFCURVE",
"349 763 CURVE",
"336 771 OFFCURVE",
"323 778 OFFCURVE",
"309.283 783.475 CURVE",
"295.584 789.123 OFFCURVE",
"281.329 793.427 OFFCURVE",
"266.683 796.318 CURVE",
"252.036 799.21 OFFCURVE",
"236.998 800.689 OFFCURVE",
"221.731 800.689 CURVE"
);
}
);
visible = 1;
width = 600;
}
);
leftKerningGroup = H;
leftMetricsKey = H;
rightKerningGroup = D;
rightMetricsKey = "=O+3";
unicode = 0044;
},
{
glyphname = Eth;
lastChange = "2018-10-09 15:01:31 +0000";
layers = (
{
components = (
{
name = D;
}
);
layerId = "105671D0-52CD-46B5-9B81-8ED8F76D0899";
paths = (
{
closed = 1;
nodes = (
"241 310 LINE",
"244 310 OFFCURVE",
"245 312 OFFCURVE",
"245 315 CURVE",
"245 419 LINE",
"245 422 OFFCURVE",
"243 424 OFFCURVE",
"241 424 CURVE",
"-9 424 LINE",
"-12 424 OFFCURVE",
"-14 422 OFFCURVE",
"-14 419 CURVE",
"-14 315 LINE",
"-14 312 OFFCURVE",
"-13 310 OFFCURVE",
"-10 310 CURVE"
);
}
);
width = 472;
}
);
leftKerningGroup = D;
rightKerningGroup = D;
unicode = 00D0;
},
{
glyphname = E;
lastChange = "2018-10-09 15:01:31 +0000";
layers = (
{
anchors = (
{
name = ogonek;
position = "{316, -11}";
},
{
name = top;
position = "{202, 835}";
}
);
guideLines = (
{
position = "{202, 575}";
}
);
layerId = "105671D0-52CD-46B5-9B81-8ED8F76D0899";
paths = (
{
closed = 1;
nodes = (
"367 0 LINE SMOOTH",
"369 0 OFFCURVE",
"371 2 OFFCURVE",
"371 4 CURVE SMOOTH",
"371 118 LINE SMOOTH",
"371 121 OFFCURVE",
"369 123 OFFCURVE",
"367 123 CURVE SMOOTH",
"161 123 LINE",
"161 298 LINE",
"367 298 LINE SMOOTH",
"370 298 OFFCURVE",
"371 300 OFFCURVE",
"371 302 CURVE",
"370 415 LINE",
"370 418 OFFCURVE",
"369 419 OFFCURVE",
"366 419 CURVE SMOOTH",
"161 419 LINE",
"161 575 LINE",
"366 575 LINE SMOOTH",
"368 575 OFFCURVE",
"370 577 OFFCURVE",
"370 579 CURVE SMOOTH",
"370 691 LINE SMOOTH",
"370 694 OFFCURVE",
"369 696 OFFCURVE",
"366 696 CURVE SMOOTH",
"45 696 LINE SMOOTH",
"43 696 OFFCURVE",
"41 695 OFFCURVE",
"41 692 CURVE",
"40 5 LINE",
"40 2 OFFCURVE",
"41 0 OFFCURVE",
"44 0 CURVE SMOOTH"
);
}
);
width = 420;
},
{
associatedMasterId = "105671D0-52CD-46B5-9B81-8ED8F76D0899";
layerId = "C906BB14-AB62-4166-847F-54E49090FE2B";
name = "May 24 18, 11:02";
paths = (
{
closed = 1;
nodes = (
"38 5 LINE",
"38 118 LINE",
"38 119 OFFCURVE",
"38 119 OFFCURVE",
"38 120 CURVE",
"39 121 OFFCURVE",
"39 121 OFFCURVE",
"39 122 CURVE",
"40 122 OFFCURVE",
"40 122 OFFCURVE",
"40 123 CURVE",
"41 123 OFFCURVE",
"41 123 OFFCURVE",
"42 123 CURVE",
"159 123 LINE",
"159 298 LINE",
"42 298 LINE",
"42 298 OFFCURVE",
"41 299 OFFCURVE",
"40 299 CURVE",
"40 299 OFFCURVE",
"40 299 OFFCURVE",
"40 299 CURVE",
"39 299 OFFCURVE",
"39 300 OFFCURVE",
"39 300 CURVE",
"38 301 OFFCURVE",
"38 302 OFFCURVE",
"38 302 CURVE",
"39 415 LINE",
"39 416 OFFCURVE",
"39 417 OFFCURVE",
"39 417 CURVE",
"39 418 OFFCURVE",
"40 418 OFFCURVE",
"40 419 CURVE",
"40 419 OFFCURVE",
"40 419 OFFCURVE",
"41 419 CURVE",
"41 419 OFFCURVE",
"42 419 OFFCURVE",
"43 419 CURVE",
"159 419 LINE",
"159 575 LINE",
"43 575 LINE",
"42 575 OFFCURVE",
"42 575 OFFCURVE",
"41 576 CURVE",
"40 576 OFFCURVE",
"40 576 OFFCURVE",
"40 577 CURVE",
"40 577 OFFCURVE",
"40 578 OFFCURVE",
"39 578 CURVE",
"39 579 OFFCURVE",
"39 579 OFFCURVE",
"39 579 CURVE",
"39 692 LINE"
);
},
{
closed = 1;
nodes = (
"43 696 LINE",
"41 696 OFFCURVE",
"39 695 OFFCURVE",
"39 692 CURVE",
"39 579 LINE",
"39 579 OFFCURVE",
"39 579 OFFCURVE",
"39 578 CURVE",
"40 578 OFFCURVE",
"40 577 OFFCURVE",
"40 577 CURVE",
"40 576 OFFCURVE",
"40 576 OFFCURVE",
"41 576 CURVE",
"42 575 OFFCURVE",
"42 575 OFFCURVE",
"43 575 CURVE",
"159 575 LINE",
"364 575 LINE",
"366 575 OFFCURVE",
"368 577 OFFCURVE",
"368 579 CURVE",
"368 691 LINE",
"368 694 OFFCURVE",
"367 696 OFFCURVE",
"364 696 CURVE"
);
},
{
closed = 1;
nodes = (
"159 419 LINE",
"43 419 LINE",
"42 419 OFFCURVE",
"41 419 OFFCURVE",
"41 419 CURVE",
"40 419 OFFCURVE",
"40 419 OFFCURVE",
"40 419 CURVE",
"40 418 OFFCURVE",
"39 418 OFFCURVE",
"39 417 CURVE",
"39 417 OFFCURVE",
"39 416 OFFCURVE",
"39 415 CURVE",
"38 302 LINE",
"38 302 OFFCURVE",
"38 301 OFFCURVE",
"39 300 CURVE",
"39 300 OFFCURVE",
"39 299 OFFCURVE",
"40 299 CURVE",
"40 299 OFFCURVE",
"40 299 OFFCURVE",
"40 299 CURVE",
"41 299 OFFCURVE",
"42 298 OFFCURVE",
"42 298 CURVE",
"159 298 LINE",
"365 298 LINE",
"368 298 OFFCURVE",
"369 300 OFFCURVE",
"369 302 CURVE",
"368 415 LINE",
"368 418 OFFCURVE",
"367 419 OFFCURVE",
"364 419 CURVE"
);
},
{
closed = 1;
nodes = (
"159 123 LINE",
"42 123 LINE",
"41 123 OFFCURVE",
"41 123 OFFCURVE",
"40 123 CURVE",
"40 122 OFFCURVE",
"40 122 OFFCURVE",
"39 122 CURVE",
"39 121 OFFCURVE",
"39 121 OFFCURVE",
"38 120 CURVE",
"38 119 OFFCURVE",
"38 119 OFFCURVE",
"38 118 CURVE",
"38 5 LINE",
"38 2 OFFCURVE",
"39 0 OFFCURVE",
"42 0 CURVE",
"365 0 LINE",
"367 0 OFFCURVE",
"369 2 OFFCURVE",
"369 4 CURVE",
"369 118 LINE",
"369 121 OFFCURVE",
"367 123 OFFCURVE",
"365 123 CURVE"
);
}
);
width = 414;
},
{
anchors = (
{
name = ogonek;
position = "{316, -11}";
},
{
name = top;
position = "{226, 835}";
}
);
associatedMasterId = "105671D0-52CD-46B5-9B81-8ED8F76D0899";
guideLines = (
{
position = "{202, 575}";
}
);
layerId = "C64DE35D-D33E-4479-A58B-DEA314B7E2A3";
name = "Aug 14 18, 18:49";
paths = (
{
closed = 1;
nodes = (
"40 2 OFFCURVE",
"41 0 OFFCURVE",
"44 0 CURVE SMOOTH",
"367 0 LINE SMOOTH",
"369 0 OFFCURVE",
"371 2 OFFCURVE",
"371 4 CURVE SMOOTH",
"371 118 LINE SMOOTH",
"371 121 OFFCURVE",
"369 123 OFFCURVE",
"367 123 CURVE SMOOTH",
"161 123 LINE",
"161 298 LINE",
"367 298 LINE SMOOTH",
"370 298 OFFCURVE",
"371 300 OFFCURVE",
"371 302 CURVE",
"370 415 LINE",
"370 418 OFFCURVE",
"369 419 OFFCURVE",
"366 419 CURVE SMOOTH",
"161 419 LINE",
"161 575 LINE",
"366 575 LINE SMOOTH",
"368 575 OFFCURVE",
"370 577 OFFCURVE",
"370 579 CURVE SMOOTH",
"370 691 LINE SMOOTH",
"370 694 OFFCURVE",
"369 696 OFFCURVE",
"366 696 CURVE SMOOTH",
"45 696 LINE SMOOTH",
"43 696 OFFCURVE",
"41 695 OFFCURVE",
"41 692 CURVE",
"40 5 LINE"
);
},
{
closed = 1;
nodes = (
"290 -223 LINE SMOOTH",
"292 -222 OFFCURVE",
"294 -220 OFFCURVE",
"293 -218 CURVE SMOOTH",
"273 -179 OFFCURVE",
"268 -142 OFFCURVE",
"268 -117 CURVE SMOOTH",
"268 -71 OFFCURVE",
"311 1 OFFCURVE",
"369 1 CURVE",
"335 59 LINE",
"239 59 OFFCURVE",
"153 -55 OFFCURVE",
"153 -120 CURVE SMOOTH",
"153 -159 OFFCURVE",
"155 -202 OFFCURVE",
"179 -251 CURVE SMOOTH",
"180 -253 OFFCURVE",
"178 -254 OFFCURVE",
"180 -253 CURVE SMOOTH"
);
}
);
width = 419;
},
{
anchors = (
{
name = ogonek;
position = "{316, -11}";
},
{
name = top;
position = "{202, 835}";
}
);
associatedMasterId = "105671D0-52CD-46B5-9B81-8ED8F76D0899";
guideLines = (
{
position = "{202, 575}";
}
);
layerId = "77E74E91-5AB4-4FE7-9067-49EFCD8BD0C5";
name = "Sep 25 18, 15:44";
paths = (
{
closed = 1;
nodes = (
"40 2 OFFCURVE",
"41 0 OFFCURVE",
"44 0 CURVE SMOOTH",
"367 0 LINE SMOOTH",
"369 0 OFFCURVE",
"371 2 OFFCURVE",
"371 4 CURVE SMOOTH",
"371 118 LINE SMOOTH",
"371 121 OFFCURVE",
"369 123 OFFCURVE",
"367 123 CURVE SMOOTH",
"161 123 LINE",
"161 298 LINE",
"367 298 LINE SMOOTH",
"370 298 OFFCURVE",
"371 300 OFFCURVE",
"371 302 CURVE",
"370 415 LINE",
"370 418 OFFCURVE",
"369 419 OFFCURVE",
"366 419 CURVE SMOOTH",
"161 419 LINE",
"161 575 LINE",
"366 575 LINE SMOOTH",
"368 575 OFFCURVE",
"370 577 OFFCURVE",
"370 579 CURVE SMOOTH",
"370 691 LINE SMOOTH",
"370 694 OFFCURVE",
"369 696 OFFCURVE",
"366 696 CURVE SMOOTH",
"45 696 LINE SMOOTH",
"43 696 OFFCURVE",
"41 695 OFFCURVE",
"41 692 CURVE",
"40 5 LINE"
);
}
);
width = 420;
}
);
leftKerningGroup = H;
leftMetricsKey = H;
rightKerningGroup = E;
unicode = 0045;
},
{
glyphname = F;
lastChange = "2018-10-09 15:01:31 +0000";
layers = (
{
anchors = (
{
name = top;
position = "{205, 835}";
}
);
background = {
paths = (
{
closed = 1;
nodes = (
"51 3 OFFCURVE",
"53 0 OFFCURVE",
"56 0 CURVE SMOOTH",
"168 0 LINE",
"170 0 OFFCURVE",
"173 2 OFFCURVE",
"173 5 CURVE",
"173 298 LINE",
"378 298 LINE",
"381 298 OFFCURVE",
"383 300 OFFCURVE",
"383 302 CURVE",
"382 415 LINE",
"382 418 OFFCURVE",
"380 420 OFFCURVE",
"378 420 CURVE SMOOTH",
"173 420 LINE",
"173 575 LINE",
"378 575 LINE",
"380 575 OFFCURVE",
"382 577 OFFCURVE",
"382 579 CURVE",
"382 692 LINE",
"382 694 OFFCURVE",
"380 696 OFFCURVE",
"377 696 CURVE",
"57 696 LINE",
"55 696 OFFCURVE",
"53 694 OFFCURVE",
"53 692 CURVE",
"51 5 LINE SMOOTH"
);
}
);
};
layerId = "105671D0-52CD-46B5-9B81-8ED8F76D0899";
paths = (
{
closed = 1;
nodes = (
"157 0 LINE",
"159 0 OFFCURVE",
"162 2 OFFCURVE",
"162 5 CURVE",
"162 298 LINE",
"367 298 LINE",
"370 298 OFFCURVE",
"372 300 OFFCURVE",
"372 302 CURVE",
"371 415 LINE",
"371 418 OFFCURVE",
"369 420 OFFCURVE",
"367 420 CURVE SMOOTH",
"162 420 LINE",
"162 575 LINE",
"367 575 LINE",
"369 575 OFFCURVE",
"371 577 OFFCURVE",
"371 579 CURVE",
"371 692 LINE",
"371 694 OFFCURVE",
"369 696 OFFCURVE",
"366 696 CURVE",
"46 696 LINE",
"44 696 OFFCURVE",
"42 694 OFFCURVE",
"42 692 CURVE",
"40 5 LINE SMOOTH",
"40 3 OFFCURVE",
"42 0 OFFCURVE",
"45 0 CURVE SMOOTH"
);
}
);
width = 421;
},
{
associatedMasterId = "105671D0-52CD-46B5-9B81-8ED8F76D0899";
layerId = "E1973039-E5FE-41E7-8177-25609D3B8CCD";
name = "May 24 18, 11:05";
paths = (
{
closed = 1;
nodes = (
"0.467 5.052 LINE",
"0.465 4.356 OFFCURVE",
"0.605 3.693 OFFCURVE",
"0.858 3.09 CURVE",
"1.112 2.485 OFFCURVE",
"1.479 1.941 OFFCURVE",
"1.934 1.483 CURVE",
"2.388 1.025 OFFCURVE",
"2.928 0.654 OFFCURVE",
"3.527 0.398 CURVE",
"4.127 0.142 OFFCURVE",
"4.785 0 OFFCURVE",
"5.475 0 CURVE",
"135.091 0 LINE",
"135.78 0 OFFCURVE",
"136.438 0.142 OFFCURVE",
"137.038 0.398 CURVE",
"137.639 0.654 OFFCURVE",
"138.18 1.025 OFFCURVE",
"138.635 1.483 CURVE",
"139.09 1.941 OFFCURVE",
"139.459 2.485 OFFCURVE",
"139.715 3.09 CURVE",
"139.97 3.693 OFFCURVE",
"140.112 4.356 OFFCURVE",
"140.112 5.052 CURVE",
"140.314 342.366 LINE",
"6.22 342.366 LINE",
"5.533 342.366 OFFCURVE",
"4.878 342.507 OFFCURVE",
"4.28 342.762 CURVE",
"3.684 343.016 OFFCURVE",
"3.146 343.384 OFFCURVE",
"2.693 343.838 CURVE",
"2.241 344.292 OFFCURVE",
"1.875 344.832 OFFCURVE",
"1.623 345.431 CURVE",
"1.37 346.03 OFFCURVE",
"1.23 346.688 OFFCURVE",
"1.232 347.378 CURVE",
"1.523 477.366 LINE",
"1.524 478.054 OFFCURVE",
"1.667 478.709 OFFCURVE",
"1.922 479.307 CURVE",
"2.177 479.903 OFFCURVE",
"2.544 480.442 OFFCURVE",
"2.998 480.895 CURVE",
"3.451 481.348 OFFCURVE",
"3.99 481.714 OFFCURVE",
"4.587 481.968 CURVE",
"5.184 482.221 OFFCURVE",
"5.839 482.361 OFFCURVE",
"6.524 482.361 CURVE",
"140.398 482.361 LINE",
"140.506 661.227 LINE",
"6.914 661.227 LINE",
"6.23 661.227 OFFCURVE",
"5.577 661.367 OFFCURVE",
"4.982 661.619 CURVE",
"4.388 661.871 OFFCURVE",
"3.852 662.236 OFFCURVE",
"3.401 662.687 CURVE",
"2.951 663.137 OFFCURVE",
"2.586 663.672 OFFCURVE",
"2.334 664.266 CURVE",
"2.083 664.858 OFFCURVE",
"1.944 665.51 OFFCURVE",
"1.945 666.192 CURVE",
"2.234 795.217 LINE"
);
},
{
closed = 1;
nodes = (
"7.217 800.166 LINE",
"6.534 800.166 OFFCURVE",
"5.881 800.027 OFFCURVE",
"5.286 799.775 CURVE",
"4.691 799.524 OFFCURVE",
"4.155 799.16 OFFCURVE",
"3.703 798.712 CURVE",
"3.251 798.263 OFFCURVE",
"2.885 797.729 OFFCURVE",
"2.631 797.138 CURVE",
"2.377 796.546 OFFCURVE",
"2.235 795.896 OFFCURVE",
"2.234 795.217 CURVE",
"1.945 666.192 LINE",
"1.944 665.51 OFFCURVE",
"2.083 664.858 OFFCURVE",
"2.334 664.266 CURVE",
"2.586 663.672 OFFCURVE",
"2.951 663.137 OFFCURVE",
"3.401 662.687 CURVE",
"3.852 662.236 OFFCURVE",
"4.388 661.871 OFFCURVE",
"4.982 661.619 CURVE",
"5.577 661.367 OFFCURVE",
"6.23 661.227 OFFCURVE",
"6.914 661.227 CURVE",
"140.506 661.227 LINE",
"375.784 661.227 LINE",
"376.471 661.227 OFFCURVE",
"377.125 661.367 OFFCURVE",
"377.721 661.619 CURVE",
"378.316 661.871 OFFCURVE",
"378.854 662.236 OFFCURVE",
"379.305 662.687 CURVE",
"379.756 663.137 OFFCURVE",
"380.121 663.672 OFFCURVE",
"380.372 664.266 CURVE",
"380.624 664.858 OFFCURVE",
"380.763 665.51 OFFCURVE",
"380.762 666.192 CURVE",
"380.473 795.217 LINE",
"380.472 795.896 OFFCURVE",
"380.33 796.546 OFFCURVE",
"380.076 797.138 CURVE",
"379.822 797.729 OFFCURVE",
"379.455 798.263 OFFCURVE",
"379.003 798.712 CURVE",
"378.551 799.16 OFFCURVE",
"378.013 799.524 OFFCURVE",
"377.417 799.775 CURVE",
"376.821 800.027 OFFCURVE",
"376.167 800.166 OFFCURVE",
"375.481 800.166 CURVE"
);
},
{
closed = 1;
nodes = (
"140.398 482.361 LINE",
"6.524 482.361 LINE",
"5.839 482.361 OFFCURVE",
"5.184 482.221 OFFCURVE",
"4.587 481.968 CURVE",
"3.99 481.714 OFFCURVE",
"3.451 481.348 OFFCURVE",
"2.998 480.895 CURVE",
"2.544 480.442 OFFCURVE",
"2.177 479.903 OFFCURVE",
"1.922 479.307 CURVE",
"1.667 478.709 OFFCURVE",
"1.524 478.054 OFFCURVE",
"1.523 477.366 CURVE",
"1.232 347.378 LINE",
"1.23 346.688 OFFCURVE",
"1.37 346.03 OFFCURVE",
"1.623 345.431 CURVE",
"1.875 344.832 OFFCURVE",
"2.241 344.292 OFFCURVE",
"2.693 343.838 CURVE",
"3.146 343.384 OFFCURVE",
"3.684 343.016 OFFCURVE",
"4.28 342.762 CURVE",
"4.878 342.507 OFFCURVE",
"5.533 342.366 OFFCURVE",
"6.22 342.366 CURVE",
"140.314 342.366 LINE",
"376.479 342.366 LINE",
"377.167 342.366 OFFCURVE",
"377.824 342.507 OFFCURVE",
"378.423 342.762 CURVE",
"379.021 343.016 OFFCURVE",
"379.56 343.384 OFFCURVE",
"380.013 343.838 CURVE",
"380.465 344.292 OFFCURVE",
"380.831 344.832 OFFCURVE",
"381.084 345.431 CURVE",
"381.337 346.03 OFFCURVE",
"381.477 346.688 OFFCURVE",
"381.475 347.378 CURVE",
"381.184 477.366 LINE",
"381.183 478.054 OFFCURVE",
"381.04 478.709 OFFCURVE",
"380.785 479.307 CURVE",
"380.53 479.903 OFFCURVE",
"380.162 480.442 OFFCURVE",
"379.708 480.895 CURVE",
"379.254 481.348 OFFCURVE",
"378.715 481.714 OFFCURVE",
"378.116 481.968 CURVE",
"377.519 482.221 OFFCURVE",
"376.861 482.361 OFFCURVE",
"376.174 482.361 CURVE"
);
}
);
width = 600;
}
);
leftKerningGroup = H;
leftMetricsKey = H;
rightKerningGroup = F;
rightMetricsKey = E;
unicode = 0046;
},
{
glyphname = G;
lastChange = "2018-10-09 15:01:31 +0000";
layers = (
{
anchors = (
{
name = bottom;
position = "{225, -11}";
},
{
name = top;
position = "{224, 835}";
}
);
layerId = "105671D0-52CD-46B5-9B81-8ED8F76D0899";
paths = (
{
closed = 1;
nodes = (
"332 -10 OFFCURVE",
"419 79 OFFCURVE",
"419 191 CURVE",
"419 357 LINE",
"419 360 OFFCURVE",
"417 362 OFFCURVE",
"415 362 CURVE",
"228 362 LINE",
"225 362 OFFCURVE",
"223 360 OFFCURVE",
"223 357 CURVE SMOOTH",
"223 245 LINE SMOOTH",
"223 242 OFFCURVE",
"225 240 OFFCURVE",
"228 240 CURVE SMOOTH",
"298 240 LINE",
"298 191 LINE SMOOTH",
"298 146 OFFCURVE",
"265 111 OFFCURVE",
"223 111 CURVE SMOOTH",
"183 111 OFFCURVE",
"149 147 OFFCURVE",
"149 191 CURVE SMOOTH",
"149 508 LINE SMOOTH",
"149 551 OFFCURVE",
"184 588 OFFCURVE",
"223 588 CURVE SMOOTH",
"266 588 OFFCURVE",
"298 551 OFFCURVE",
"298 500 CURVE",
"298 462 LINE",
"298 460 OFFCURVE",
"300 458 OFFCURVE",
"302 458 CURVE",
"414 458 LINE",
"417 458 OFFCURVE",
"419 460 OFFCURVE",
"419 462 CURVE",
"419 508 LINE",
"419 620 OFFCURVE",
"333 707 OFFCURVE",
"223 707 CURVE SMOOTH",
"117 707 OFFCURVE",
"28 616 OFFCURVE",
"28 508 CURVE",
"28 191 LINE SMOOTH",
"28 79 OFFCURVE",
"115 -10 OFFCURVE",
"223 -10 CURVE SMOOTH"
);
}
);
width = 450;
}
);
leftKerningGroup = O;
leftMetricsKey = O;
rightKerningGroup = O;
rightMetricsKey = "=C-2";
unicode = 0047;
},
{
glyphname = H;
lastChange = "2018-10-09 15:01:31 +0000";
layers = (
{
anchors = (
{
name = bottom;
position = "{237, -11}";
},
{
name = top;
position = "{233, 835}";
}
);
layerId = "105671D0-52CD-46B5-9B81-8ED8F76D0899";
paths = (
{
closed = 1;
nodes = (
"157 0 LINE SMOOTH",
"159 0 OFFCURVE",
"161 2 OFFCURVE",
"161 5 CURVE SMOOTH",
"161 299 LINE",
"311 299 LINE",
"311 5 LINE SMOOTH",
"311 2 OFFCURVE",
"313 0 OFFCURVE",
"316 0 CURVE SMOOTH",
"428 0 LINE SMOOTH",
"431 0 OFFCURVE",
"433 2 OFFCURVE",
"433 5 CURVE",
"431 692 LINE",
"431 695 OFFCURVE",
"429 696 OFFCURVE",
"426 696 CURVE SMOOTH",
"315 696 LINE SMOOTH",
"312 696 OFFCURVE",
"311 695 OFFCURVE",
"311 692 CURVE SMOOTH",
"311 420 LINE",
"161 420 LINE",
"162 692 LINE SMOOTH",
"162 695 OFFCURVE",
"160 696 OFFCURVE",
"157 696 CURVE SMOOTH",
"46 696 LINE SMOOTH",
"43 696 OFFCURVE",
"41 695 OFFCURVE",
"41 692 CURVE SMOOTH",
"40 5 LINE SMOOTH",
"40 2 OFFCURVE",
"41 0 OFFCURVE",
"44 0 CURVE SMOOTH"
);
}
);
width = 475;
},
{
associatedMasterId = "105671D0-52CD-46B5-9B81-8ED8F76D0899";
layerId = "762B6714-8D9E-45F3-BB11-B4F8EBC1D29F";
name = "May 22 18, 14:18";
paths = (
{
closed = 1;
nodes = (
"45 696 LINE",
"42 696 OFFCURVE",
"40 695 OFFCURVE",
"40 692 CURVE",
"39 5 LINE",
"39 2 OFFCURVE",
"40 0 OFFCURVE",
"43 0 CURVE",
"156 0 LINE",
"158 0 OFFCURVE",
"160 2 OFFCURVE",
"160 5 CURVE",
"160 299 LINE",
"104 299 LINE",
"104 299 OFFCURVE",
"103 299 OFFCURVE",
"102 299 CURVE",
"102 299 OFFCURVE",
"101 300 OFFCURVE",
"101 300 CURVE",
"101 300 OFFCURVE",
"100 301 OFFCURVE",
"100 301 CURVE",
"100 302 OFFCURVE",
"100 303 OFFCURVE",
"100 303 CURVE",
"100 415 LINE",
"100 416 OFFCURVE",
"100 417 OFFCURVE",
"100 417 CURVE",
"101 418 OFFCURVE",
"101 418 OFFCURVE",
"101 418 CURVE",
"102 419 OFFCURVE",
"102 419 OFFCURVE",
"103 419 CURVE",
"103 420 OFFCURVE",
"104 420 OFFCURVE",
"104 420 CURVE",
"160 420 LINE",
"161 692 LINE",
"161 695 OFFCURVE",
"159 696 OFFCURVE",
"156 696 CURVE"
);
},
{
closed = 1;
nodes = (
"314 696 LINE",
"311 696 OFFCURVE",
"310 695 OFFCURVE",
"310 692 CURVE",
"310 420 LINE",
"366 420 LINE",
"366 420 OFFCURVE",
"367 420 OFFCURVE",
"368 419 CURVE",
"368 419 OFFCURVE",
"368 419 OFFCURVE",
"369 418 CURVE",
"369 418 OFFCURVE",
"370 418 OFFCURVE",
"370 417 CURVE",
"370 417 OFFCURVE",
"370 416 OFFCURVE",
"370 415 CURVE",
"370 303 LINE",
"370 303 OFFCURVE",
"370 302 OFFCURVE",
"370 301 CURVE",
"370 301 OFFCURVE",
"369 300 OFFCURVE",
"369 300 CURVE",
"369 300 OFFCURVE",
"368 299 OFFCURVE",
"368 299 CURVE",
"367 299 OFFCURVE",
"367 299 OFFCURVE",
"366 299 CURVE",
"310 299 LINE",
"310 5 LINE",
"310 4 OFFCURVE",
"310 3 OFFCURVE",
"311 3 CURVE",
"311 2 OFFCURVE",
"311 2 OFFCURVE",
"311 1 CURVE",
"312 1 OFFCURVE",
"312 1 OFFCURVE",
"313 1 CURVE",
"313 0 OFFCURVE",
"314 0 OFFCURVE",
"315 0 CURVE",
"427 0 LINE",
"428 0 OFFCURVE",
"428 0 OFFCURVE",
"429 1 CURVE",
"430 1 OFFCURVE",
"430 1 OFFCURVE",
"430 1 CURVE",
"431 2 OFFCURVE",
"431 2 OFFCURVE",
"431 3 CURVE",
"432 3 OFFCURVE",
"432 4 OFFCURVE",
"432 5 CURVE",
"430 692 LINE",
"430 695 OFFCURVE",
"428 696 OFFCURVE",
"425 696 CURVE"
);
},
{
closed = 1;
nodes = (
"310 420 LINE",
"160 420 LINE",
"104 420 LINE",
"104 420 OFFCURVE",
"103 420 OFFCURVE",
"103 419 CURVE",
"102 419 OFFCURVE",
"102 419 OFFCURVE",
"101 418 CURVE",
"101 418 OFFCURVE",
"101 418 OFFCURVE",
"100 417 CURVE",
"100 417 OFFCURVE",
"100 416 OFFCURVE",
"100 415 CURVE",
"100 303 LINE",
"100 303 OFFCURVE",
"100 302 OFFCURVE",
"100 301 CURVE",
"100 301 OFFCURVE",
"101 300 OFFCURVE",
"101 300 CURVE",
"101 300 OFFCURVE",
"102 299 OFFCURVE",
"102 299 CURVE",
"103 299 OFFCURVE",
"104 299 OFFCURVE",
"104 299 CURVE",
"160 299 LINE",
"310 299 LINE",
"366 299 LINE",
"367 299 OFFCURVE",
"367 299 OFFCURVE",
"368 299 CURVE",
"368 299 OFFCURVE",
"369 300 OFFCURVE",
"369 300 CURVE",
"369 300 OFFCURVE",
"370 301 OFFCURVE",
"370 301 CURVE",
"370 302 OFFCURVE",
"370 303 OFFCURVE",
"370 303 CURVE",
"370 415 LINE",
"370 416 OFFCURVE",
"370 417 OFFCURVE",
"370 417 CURVE",
"370 418 OFFCURVE",
"369 418 OFFCURVE",
"369 418 CURVE",
"368 419 OFFCURVE",
"368 419 OFFCURVE",
"368 419 CURVE",
"367 420 OFFCURVE",
"366 420 OFFCURVE",
"366 420 CURVE"
);
}
);
width = 471;
},
{
associatedMasterId = "105671D0-52CD-46B5-9B81-8ED8F76D0899";
layerId = "21724C9A-FB4E-468F-A198-5B31AF958343";
name = "May 30 18, 08:33";
paths = (
{
closed = 1;
nodes = (
"37 2 OFFCURVE",
"38 0 OFFCURVE",
"41 0 CURVE SMOOTH",
"154 0 LINE SMOOTH",
"156 0 OFFCURVE",
"158 2 OFFCURVE",
"158 5 CURVE SMOOTH",
"158 299 LINE",
"308 299 LINE",
"308 5 LINE SMOOTH",
"308 2 OFFCURVE",
"310 0 OFFCURVE",
"313 0 CURVE SMOOTH",
"425 0 LINE SMOOTH",
"428 0 OFFCURVE",
"430 2 OFFCURVE",
"430 5 CURVE",
"428 692 LINE",
"428 695 OFFCURVE",
"426 696 OFFCURVE",
"423 696 CURVE SMOOTH",
"312 696 LINE SMOOTH",
"309 696 OFFCURVE",
"308 695 OFFCURVE",
"308 692 CURVE SMOOTH",
"308 420 LINE",
"158 420 LINE",
"159 692 LINE SMOOTH",
"159 695 OFFCURVE",
"157 696 OFFCURVE",
"154 696 CURVE SMOOTH",
"43 696 LINE SMOOTH",
"40 696 OFFCURVE",
"38 695 OFFCURVE",
"38 692 CURVE SMOOTH",
"37 5 LINE SMOOTH"
);
}
);
visible = 1;
width = 475;
}
);
leftKerningGroup = H;
rightKerningGroup = H;
unicode = 0048;
},
{
glyphname = Hbar;
lastChange = "2018-10-09 15:01:31 +0000";
layers = (
{
components = (
{
name = H;
}
);
layerId = "105671D0-52CD-46B5-9B81-8ED8F76D0899";
paths = (
{
closed = 1;
nodes = (
"480 512 LINE",
"483 512 OFFCURVE",
"484 514 OFFCURVE",
"484 517 CURVE",
"484 612 LINE",
"484 615 OFFCURVE",
"482 617 OFFCURVE",
"480 617 CURVE",
"-8 617 LINE",
"-11 617 OFFCURVE",
"-13 615 OFFCURVE",
"-13 612 CURVE",
"-13 517 LINE",
"-13 514 OFFCURVE",
"-12 512 OFFCURVE",
"-9 512 CURVE"
);
}
);
width = 475;
},
{
associatedMasterId = "105671D0-52CD-46B5-9B81-8ED8F76D0899";
components = (
{
name = H;
}
);
layerId = "A36C115A-2A5B-441B-B53A-F6110BFE797E";
name = "Aug 16 18, 21:35";
paths = (
{
closed = 1;
nodes = (
"-3 617 LINE",
"-6 617 OFFCURVE",
"-8 615 OFFCURVE",
"-8 612 CURVE",
"-8 517 LINE",
"-8 514 OFFCURVE",
"-7 512 OFFCURVE",
"-4 512 CURVE",
"475 512 LINE",
"478 512 OFFCURVE",
"479 514 OFFCURVE",
"479 517 CURVE",
"479 612 LINE",
"479 615 OFFCURVE",
"477 617 OFFCURVE",
"475 617 CURVE"
);
}
);
width = 475;
}
);
leftKerningGroup = H;
rightKerningGroup = H;
unicode = 0126;
},
{
glyphname = I;
lastChange = "2018-10-09 15:01:31 +0000";
layers = (
{
anchors = (
{
name = ogonek;
position = "{107, -11}";
},
{
name = top;
position = "{103, 835}";
}
);
layerId = "105671D0-52CD-46B5-9B81-8ED8F76D0899";
paths = (
{
closed = 1;
nodes = (
"158 0 LINE",
"161 0 OFFCURVE",
"162 1 OFFCURVE",
"162 5 CURVE",
"161 692 LINE",
"161 695 OFFCURVE",
"160 696 OFFCURVE",
"157 696 CURVE",
"45 696 LINE",
"42 696 OFFCURVE",
"41 695 OFFCURVE",
"41 692 CURVE",
"40 5 LINE",
"40 1 OFFCURVE",
"41 0 OFFCURVE",
"45 0 CURVE"
);
}
);
width = 210;
}
);
leftKerningGroup = I;
leftMetricsKey = H;
rightKerningGroup = I;
rightMetricsKey = "=H+6";
unicode = 0049;
},
{
glyphname = IJ;
lastChange = "2018-10-09 15:01:31 +0000";
layers = (
{
anchors = (
{
name = top;
position = "{422, 835}";
}
);
components = (
{
name = I;
}
);
layerId = "105671D0-52CD-46B5-9B81-8ED8F76D0899";
paths = (
{
closed = 1;
nodes = (
"491 -10 OFFCURVE",
"560 70 OFFCURVE",
"560 194 CURVE",
"559 690 LINE",
"559 693 OFFCURVE",
"558 695 OFFCURVE",
"555 695 CURVE",
"443 695 LINE",
"440 695 OFFCURVE",
"439 694 OFFCURVE",
"439 691 CURVE",
"439 194 LINE SMOOTH",
"439 150 OFFCURVE",
"427 111 OFFCURVE",
"387 111 CURVE SMOOTH",
"343 111 OFFCURVE",
"330 145 OFFCURVE",
"330 194 CURVE SMOOTH",
"330 239 LINE",
"330 242 OFFCURVE",
"328 244 OFFCURVE",
"326 244 CURVE",
"213 244 LINE",
"211 244 OFFCURVE",
"209 243 OFFCURVE",
"209 240 CURVE",
"209 194 LINE SMOOTH",
"209 77 OFFCURVE",
"275 -10 OFFCURVE",
"388 -10 CURVE SMOOTH"
);
}
);
width = 596;
},
{
associatedMasterId = "105671D0-52CD-46B5-9B81-8ED8F76D0899";
components = (
{
alignment = -1;
name = I;
},
{
alignment = -1;
name = J;
transform = "{1, 0, 0, 1, 211, 0}";
}
);
layerId = "6B35D680-5B6C-4742-8F9F-EC4BF61B0982";
name = "Aug 29 18, 12:11";
width = 646;
},
{
anchors = (
{
name = ogonek;
position = "{-73, -11}";
},
{
name = top;
position = "{-77, 835}";
}
);
associatedMasterId = "105671D0-52CD-46B5-9B81-8ED8F76D0899";
components = (
{
name = J;
transform = "{1, 0, 0, 1, 32, 0}";
}
);
layerId = "26E2E0FE-5C42-4938-934E-B42055AB4794";
name = "Aug 29 18, 12:13";
paths = (
{
closed = 1;
nodes = (
"44 696 LINE",
"41 696 OFFCURVE",
"40 695 OFFCURVE",
"40 692 CURVE",
"39 305 LINE",
"39 301 OFFCURVE",
"40 300 OFFCURVE",
"44 300 CURVE",
"157 300 LINE",
"160 300 OFFCURVE",
"161 301 OFFCURVE",
"161 305 CURVE",
"160 692 LINE",
"160 695 OFFCURVE",
"159 696 OFFCURVE",
"156 696 CURVE"
);
}
);
width = 467;
}
);
leftKerningGroup = I;
leftMetricsKey = I;
rightKerningGroup = I;
rightMetricsKey = J;
unicode = 0132;
},
{
glyphname = Itilde;
lastChange = "2018-10-09 15:01:31 +0000";
layers = (
{
anchors = (
{
name = _top;
position = "{102, 835}";
}
);
components = (
{
name = I;
}
);
layerId = "105671D0-52CD-46B5-9B81-8ED8F76D0899";
paths = (
{
closed = 1;
nodes = (
"238 753 OFFCURVE",
"295 797 OFFCURVE",
"295 879 CURVE SMOOTH",
"295 881 OFFCURVE",
"293 883 OFFCURVE",
"291 883 CURVE SMOOTH",
"201 883 LINE SMOOTH",
"199 883 OFFCURVE",
"197 881 OFFCURVE",
"197 879 CURVE SMOOTH",
"197 854 OFFCURVE",
"181 842 OFFCURVE",
"162 842 CURVE SMOOTH",
"136 842 OFFCURVE",
"98 881 OFFCURVE",
"41 881 CURVE SMOOTH",
"-39 881 OFFCURVE",
"-87 814 OFFCURVE",
"-87 762 CURVE SMOOTH",
"-87 760 OFFCURVE",
"-85 758 OFFCURVE",
"-83 758 CURVE SMOOTH",
"7 758 LINE SMOOTH",
"9 758 OFFCURVE",
"11 760 OFFCURVE",
"11 762 CURVE SMOOTH",
"11 781 OFFCURVE",
"24 795 OFFCURVE",
"50 795 CURVE SMOOTH",
"83 795 OFFCURVE",
"123 753 OFFCURVE",
"180 753 CURVE SMOOTH"
);
}
);
width = 211;
}
);
leftKerningGroup = I;
rightKerningGroup = I;
unicode = 0128;
},
{
glyphname = J;
lastChange = "2018-10-09 15:01:31 +0000";
layers = (
{
anchors = (
{
name = top;
position = "{341, 835}";
}
);
layerId = "105671D0-52CD-46B5-9B81-8ED8F76D0899";
paths = (
{
closed = 1;
nodes = (
"311 -10 OFFCURVE",
"399 83 OFFCURVE",
"399 194 CURVE",
"398 690 LINE",
"398 693 OFFCURVE",
"397 695 OFFCURVE",
"394 695 CURVE",
"282 695 LINE",
"279 695 OFFCURVE",
"278 694 OFFCURVE",
"278 691 CURVE",
"278 194 LINE SMOOTH",
"278 150 OFFCURVE",
"244 111 OFFCURVE",
"204 111 CURVE SMOOTH",
"160 111 OFFCURVE",
"129 145 OFFCURVE",
"129 194 CURVE SMOOTH",
"129 239 LINE",
"129 242 OFFCURVE",
"127 244 OFFCURVE",
"125 244 CURVE",
"12 244 LINE",
"10 244 OFFCURVE",
"8 243 OFFCURVE",
"8 240 CURVE",
"8 194 LINE SMOOTH",
"8 77 OFFCURVE",
"91 -10 OFFCURVE",
"204 -10 CURVE SMOOTH"
);
}
);
width = 435;
},
{
associatedMasterId = "105671D0-52CD-46B5-9B81-8ED8F76D0899";
layerId = "998ABEF7-0DF3-4E8F-96DD-0137E8826AC0";
name = "May 24 18, 11:14";
paths = (
{
closed = 1;
nodes = (
"373 195 LINE",
"373 184 OFFCURVE",
"371 174 OFFCURVE",
"368 165 CURVE",
"364 156 OFFCURVE",
"358 147 OFFCURVE",
"351 140 CURVE",
"345 133 OFFCURVE",
"337 127 OFFCURVE",
"328 124 CURVE",
"319 120 OFFCURVE",
"309 117 OFFCURVE",
"299 117 CURVE",
"288 117 OFFCURVE",
"279 120 OFFCURVE",
"270 124 CURVE",
"261 127 OFFCURVE",
"253 133 OFFCURVE",
"246 140 CURVE",
"239 147 OFFCURVE",
"234 156 OFFCURVE",
"230 165 CURVE",
"226 174 OFFCURVE",
"224 184 OFFCURVE",
"224 195 CURVE",
"103 195 LINE",
"103 181 OFFCURVE",
"104 168 OFFCURVE",
"106 155 CURVE",
"109 142 OFFCURVE",
"113 129 OFFCURVE",
"117 117 CURVE",
"122 105 OFFCURVE",
"128 93 OFFCURVE",
"135 82 CURVE",
"142 71 OFFCURVE",
"151 61 OFFCURVE",
"160 51 CURVE",
"169 41 OFFCURVE",
"179 33 OFFCURVE",
"190 25 CURVE",
"200 18 OFFCURVE",
"212 12 OFFCURVE",
"223 7 CURVE",
"235 2 OFFCURVE",
"247 -2 OFFCURVE",
"260 -5 CURVE",
"273 -7 OFFCURVE",
"286 -9 OFFCURVE",
"299 -9 CURVE",
"312 -9 OFFCURVE",
"325 -7 OFFCURVE",
"337 -5 CURVE",
"350 -2 OFFCURVE",
"362 2 OFFCURVE",
"374 7 CURVE",
"386 12 OFFCURVE",
"397 18 OFFCURVE",
"407 25 CURVE",
"418 33 OFFCURVE",
"428 41 OFFCURVE",
"437 51 CURVE",
"447 61 OFFCURVE",
"455 71 OFFCURVE",
"462 82 CURVE",
"469 93 OFFCURVE",
"475 105 OFFCURVE",
"480 117 CURVE",
"485 129 OFFCURVE",
"488 142 OFFCURVE",
"491 155 CURVE",
"493 168 OFFCURVE",
"495 181 OFFCURVE",
"494 195 CURVE",
"494 488 LINE",
"494 488 OFFCURVE",
"494 487 OFFCURVE",
"493 487 CURVE",
"493 486 OFFCURVE",
"493 486 OFFCURVE",
"492 485 CURVE",
"492 485 OFFCURVE",
"492 484 OFFCURVE",
"491 484 CURVE",
"491 484 OFFCURVE",
"490 484 OFFCURVE",
"489 484 CURVE",
"377 484 LINE",
"377 484 OFFCURVE",
"376 484 OFFCURVE",
"376 484 CURVE",
"375 485 OFFCURVE",
"375 485 OFFCURVE",
"374 485 CURVE",
"374 486 OFFCURVE",
"374 486 OFFCURVE",
"373 487 CURVE",
"373 487 OFFCURVE",
"373 488 OFFCURVE",
"373 488 CURVE",
"373 505 LINE"
);
},
{
closed = 1;
nodes = (
"377 696 LINE",
"377 696 OFFCURVE",
"376 696 OFFCURVE",
"376 695 CURVE",
"375 695 OFFCURVE",
"375 695 OFFCURVE",
"374 694 CURVE",
"374 694 OFFCURVE",
"373 693 OFFCURVE",
"373 693 CURVE",
"373 692 OFFCURVE",
"373 692 OFFCURVE",
"373 691 CURVE",
"373 505 LINE",
"373 488 LINE",
"373 488 OFFCURVE",
"373 487 OFFCURVE",
"373 487 CURVE",
"374 486 OFFCURVE",
"374 486 OFFCURVE",
"374 485 CURVE",
"375 485 OFFCURVE",
"375 485 OFFCURVE",
"376 484 CURVE",
"376 484 OFFCURVE",
"377 484 OFFCURVE",
"377 484 CURVE",
"489 484 LINE",
"490 484 OFFCURVE",
"491 484 OFFCURVE",
"491 484 CURVE",
"492 484 OFFCURVE",
"492 485 OFFCURVE",
"492 485 CURVE",
"493 486 OFFCURVE",
"493 486 OFFCURVE",
"493 487 CURVE",
"494 487 OFFCURVE",
"494 488 OFFCURVE",
"494 488 CURVE",
"494 488 OFFCURVE",
"494 488 OFFCURVE",
"494 488 CURVE",
"494 488 OFFCURVE",
"494 488 OFFCURVE",
"494 488 CURVE",
"494 488 OFFCURVE",
"494 488 OFFCURVE",
"494 488 CURVE",
"494 488 OFFCURVE",
"494 488 OFFCURVE",
"494 488 CURVE",
"493 691 LINE",
"493 692 OFFCURVE",
"493 692 OFFCURVE",
"493 693 CURVE",
"493 693 OFFCURVE",
"492 694 OFFCURVE",
"492 694 CURVE",
"492 695 OFFCURVE",
"491 695 OFFCURVE",
"491 695 CURVE",
"490 696 OFFCURVE",
"489 696 OFFCURVE",
"489 696 CURVE"
);
},
{
closed = 1;
nodes = (
"107 245 LINE",
"107 245 OFFCURVE",
"106 245 OFFCURVE",
"106 244 CURVE",
"105 244 OFFCURVE",
"105 244 OFFCURVE",
"104 243 CURVE",
"104 243 OFFCURVE",
"104 243 OFFCURVE",
"103 242 CURVE",
"103 241 OFFCURVE",
"103 241 OFFCURVE",
"103 240 CURVE",
"103 203 LINE",
"103 220 LINE",
"224 220 LINE",
"224 240 LINE",
"224 241 OFFCURVE",
"224 241 OFFCURVE",
"224 242 CURVE",
"223 243 OFFCURVE",
"223 243 OFFCURVE",
"223 243 CURVE",
"222 244 OFFCURVE",
"222 244 OFFCURVE",
"221 244 CURVE",
"221 245 OFFCURVE",
"220 245 OFFCURVE",
"220 245 CURVE"
);
},
{
closed = 1;
nodes = (
"224 220 LINE",
"103 220 LINE",
"103 203 LINE",
"103 195 LINE",
"224 195 LINE",
"224 220 LINE"
);
}
);
width = 600;
},
{
associatedMasterId = "105671D0-52CD-46B5-9B81-8ED8F76D0899";
layerId = "9F82046B-6A6C-4BB3-8CAA-1A872E60BD4A";
name = "May 28 18, 12:49";
paths = (
{
closed = 1;
nodes = (
"4 77 OFFCURVE",
"95 -9 OFFCURVE",
"200 -9 CURVE SMOOTH",
"305 -9 OFFCURVE",
"395 82 OFFCURVE",
"395 195 CURVE",
"394 691 LINE",
"394 694 OFFCURVE",
"393 696 OFFCURVE",
"390 696 CURVE",
"278 696 LINE",
"275 696 OFFCURVE",
"274 695 OFFCURVE",
"274 692 CURVE",
"274 195 LINE SMOOTH",
"274 150 OFFCURVE",
"239 117 OFFCURVE",
"200 117 CURVE SMOOTH",
"161 117 OFFCURVE",
"125 151 OFFCURVE",
"125 195 CURVE SMOOTH",
"125 240 LINE",
"125 243 OFFCURVE",
"123 245 OFFCURVE",
"121 245 CURVE",
"8 245 LINE",
"6 245 OFFCURVE",
"4 244 OFFCURVE",
"4 241 CURVE",
"4 195 LINE SMOOTH"
);
}
);
width = 432;
},
{
associatedMasterId = "105671D0-52CD-46B5-9B81-8ED8F76D0899";
layerId = "099EF6CD-6DDD-4F58-A489-2EDBAFF13CDD";
name = "May 28 18, 12:49";
paths = (
{
closed = 1;
nodes = (
"161 111 OFFCURVE",
"124 143 OFFCURVE",
"124 191 CURVE",
"124 508 LINE",
"124 549 OFFCURVE",
"153 587 OFFCURVE",
"199 587 CURVE",
"242 587 OFFCURVE",
"273 551 OFFCURVE",
"273 508 CURVE",
"274 191 LINE",
"274 154 OFFCURVE",
"244 111 OFFCURVE",
"199 111 CURVE"
);
},
{
closed = 1;
nodes = (
"89 707 OFFCURVE",
"3 614 OFFCURVE",
"3 508 CURVE",
"2 191 LINE",
"2 80 OFFCURVE",
"92 -10 OFFCURVE",
"199 -10 CURVE",
"305 -10 OFFCURVE",
"395 79 OFFCURVE",
"395 191 CURVE",
"394 508 LINE",
"394 619 OFFCURVE",
"305 707 OFFCURVE",
"199 707 CURVE"
);
}
);
visible = 1;
width = 432;
}
);
leftKerningGroup = J;
rightKerningGroup = J;
rightMetricsKey = O;
unicode = 004A;
},
{
glyphname = K;
lastChange = "2018-10-09 15:01:31 +0000";
layers = (
{
anchors = (
{
name = bottom;
position = "{232, -11}";
},
{
name = top;
position = "{237, 835}";
}
);
layerId = "105671D0-52CD-46B5-9B81-8ED8F76D0899";
paths = (
{
closed = 1;
nodes = (
"157 0 LINE",
"160 0 OFFCURVE",
"161 2 OFFCURVE",
"161 5 CURVE",
"161 243 LINE",
"196 298 LINE",
"331 4 LINE",
"332 1 OFFCURVE",
"335 0 OFFCURVE",
"337 0 CURVE",
"459 0 LINE",
"463 0 OFFCURVE",
"465 2 OFFCURVE",
"464 4 CURVE",
"269 418 LINE",
"267 412 LINE",
"443 692 LINE",
"444 694 OFFCURVE",
"442 696 OFFCURVE",
"441 696 CURVE",
"326 696 LINE SMOOTH",
"323 696 OFFCURVE",
"321 695 OFFCURVE",
"319 692 CURVE",
"162 454 LINE",
"162 691 LINE",
"162 694 OFFCURVE",
"161 696 OFFCURVE",
"158 696 CURVE SMOOTH",
"46 696 LINE",
"43 696 OFFCURVE",
"42 695 OFFCURVE",
"42 691 CURVE",
"40 5 LINE",
"40 1 OFFCURVE",
"41 0 OFFCURVE",
"44 0 CURVE SMOOTH"
);
}
);
width = 469;
},
{
associatedMasterId = "105671D0-52CD-46B5-9B81-8ED8F76D0899";
layerId = "EFF60A35-C72A-4E97-A4D2-8801891A0FE2";
name = "May 24 18, 11:26";
paths = (
{
closed = 1;
nodes = (
"6.807 799.932 LINE",
"6.121 799.932 OFFCURVE",
"5.467 799.792 OFFCURVE",
"4.871 799.541 CURVE",
"4.275 799.289 OFFCURVE",
"3.737 798.925 OFFCURVE",
"3.284 798.476 CURVE",
"2.832 798.026 OFFCURVE",
"2.465 797.492 OFFCURVE",
"2.211 796.899 CURVE",
"1.956 796.307 OFFCURVE",
"1.814 795.655 OFFCURVE",
"1.812 794.974 CURVE",
"-0.387 5.052 LINE",
"-0.389 4.356 OFFCURVE",
"-0.25 3.693 OFFCURVE",
"0.004 3.089 CURVE",
"0.257 2.485 OFFCURVE",
"0.625 1.94 OFFCURVE",
"1.079 1.483 CURVE",
"1.533 1.025 OFFCURVE",
"2.074 0.654 OFFCURVE",
"2.675 0.397 CURVE",
"3.274 0.142 OFFCURVE",
"3.935 0 OFFCURVE",
"4.626 0 CURVE",
"134.233 0 LINE",
"134.926 0 OFFCURVE",
"135.586 0.142 OFFCURVE",
"136.187 0.397 CURVE",
"136.788 0.654 OFFCURVE",
"137.331 1.025 OFFCURVE",
"137.787 1.483 CURVE",
"138.243 1.94 OFFCURVE",
"138.612 2.485 OFFCURVE",
"138.868 3.089 CURVE",
"139.124 3.693 OFFCURVE",
"139.267 4.356 OFFCURVE",
"139.267 5.052 CURVE",
"139.582 279.432 LINE",
"139.256 279.156 OFFCURVE",
"138.901 278.907 OFFCURVE",
"138.524 278.689 CURVE",
"138.148 278.473 OFFCURVE",
"137.751 278.286 OFFCURVE",
"137.342 278.134 CURVE",
"136.933 277.981 OFFCURVE",
"136.511 277.864 OFFCURVE",
"136.086 277.784 CURVE",
"135.66 277.705 OFFCURVE",
"135.231 277.663 OFFCURVE",
"134.809 277.663 CURVE",
"134.683 277.663 OFFCURVE",
"134.557 277.667 OFFCURVE",
"134.433 277.675 CURVE",
"134.308 277.682 OFFCURVE",
"134.184 277.693 OFFCURVE",
"134.061 277.708 CURVE",
"133.937 277.724 OFFCURVE",
"133.814 277.742 OFFCURVE",
"133.693 277.765 CURVE",
"133.572 277.788 OFFCURVE",
"133.452 277.814 OFFCURVE",
"133.334 277.846 CURVE",
"3.916 311.588 LINE",
"3.25 311.762 OFFCURVE",
"2.693 312.045 OFFCURVE",
"2.256 312.407 CURVE",
"1.818 312.771 OFFCURVE",
"1.501 313.213 OFFCURVE",
"1.315 313.705 CURVE",
"1.129 314.198 OFFCURVE",
"1.074 314.741 OFFCURVE",
"1.161 315.305 CURVE",
"1.248 315.868 OFFCURVE",
"1.478 316.452 OFFCURVE",
"1.86 317.027 CURVE",
"113.657 484.681 LINE",
"111.646 489.034 LINE",
"111.358 489.656 OFFCURVE",
"111.226 490.251 OFFCURVE",
"111.229 490.792 CURVE",
"111.233 491.333 OFFCURVE",
"111.375 491.821 OFFCURVE",
"111.638 492.231 CURVE",
"111.9 492.642 OFFCURVE",
"112.285 492.975 OFFCURVE",
"112.775 493.204 CURVE",
"113.266 493.435 OFFCURVE",
"113.861 493.562 OFFCURVE",
"114.547 493.562 CURVE",
"119.578 493.562 LINE",
"139.863 523.98 LINE",
"140.174 794.974 LINE",
"140.175 795.655 OFFCURVE",
"140.036 796.307 OFFCURVE",
"139.783 796.899 CURVE",
"139.531 797.492 OFFCURVE",
"139.166 798.026 OFFCURVE",
"138.716 798.476 CURVE",
"138.265 798.925 OFFCURVE",
"137.729 799.289 OFFCURVE",
"137.134 799.541 CURVE",
"136.538 799.792 OFFCURVE",
"135.885 799.932 OFFCURVE",
"135.199 799.932 CURVE"
);
},
{
closed = 1;
nodes = (
"1.86 317.027 LINE",
"1.478 316.452 OFFCURVE",
"1.248 315.868 OFFCURVE",
"1.161 315.305 CURVE",
"1.074 314.741 OFFCURVE",
"1.129 314.198 OFFCURVE",
"1.315 313.705 CURVE",
"1.501 313.213 OFFCURVE",
"1.818 312.771 OFFCURVE",
"2.256 312.407 CURVE",
"2.693 312.045 OFFCURVE",
"3.25 311.762 OFFCURVE",
"3.916 311.588 CURVE",
"133.334 277.846 LINE",
"133.452 277.814 OFFCURVE",
"133.572 277.788 OFFCURVE",
"133.693 277.765 CURVE",
"133.814 277.742 OFFCURVE",
"133.937 277.724 OFFCURVE",
"134.061 277.708 CURVE",
"134.184 277.693 OFFCURVE",
"134.308 277.682 OFFCURVE",
"134.433 277.675 CURVE",
"134.557 277.667 OFFCURVE",
"134.683 277.663 OFFCURVE",
"134.809 277.663 CURVE",
"135.231 277.663 OFFCURVE",
"135.66 277.705 OFFCURVE",
"136.086 277.784 CURVE",
"136.511 277.864 OFFCURVE",
"136.933 277.981 OFFCURVE",
"137.342 278.134 CURVE",
"137.751 278.286 OFFCURVE",
"138.148 278.473 OFFCURVE",
"138.524 278.689 CURVE",
"138.901 278.907 OFFCURVE",
"139.256 279.156 OFFCURVE",
"139.582 279.432 CURVE",
"139.704 279.535 OFFCURVE",
"139.822 279.642 OFFCURVE",
"139.936 279.753 CURVE",
"140.049 279.863 OFFCURVE",
"140.157 279.978 OFFCURVE",
"140.261 280.096 CURVE",
"140.365 280.214 OFFCURVE",
"140.463 280.335 OFFCURVE",
"140.557 280.46 CURVE",
"140.649 280.584 OFFCURVE",
"140.736 280.712 OFFCURVE",
"140.818 280.843 CURVE",
"179.2 342.833 LINE",
"113.657 484.681 LINE"
);
},
{
closed = 1;
nodes = (
"328.85 799.932 LINE",
"328.164 799.932 OFFCURVE",
"327.433 799.815 OFFCURVE",
"326.698 799.606 CURVE",
"325.964 799.396 OFFCURVE",
"325.225 799.094 OFFCURVE",
"324.525 798.72 CURVE",
"323.825 798.346 OFFCURVE",
"323.163 797.9 OFFCURVE",
"322.582 797.407 CURVE",
"322 796.913 OFFCURVE",
"321.501 796.371 OFFCURVE",
"321.123 795.803 CURVE",
"139.863 523.98 LINE",
"119.578 493.562 LINE",
"243.404 493.562 LINE",
"244.092 493.562 OFFCURVE",
"244.808 493.435 OFFCURVE",
"245.512 493.204 CURVE",
"246.216 492.975 OFFCURVE",
"246.908 492.642 OFFCURVE",
"247.552 492.231 CURVE",
"248.194 491.821 OFFCURVE",
"248.787 491.333 OFFCURVE",
"249.292 490.792 CURVE",
"249.796 490.251 OFFCURVE",
"250.211 489.656 OFFCURVE",
"250.499 489.034 CURVE",
"258.73 471.283 LINE",
"459.609 795.723 LINE",
"459.968 796.3 OFFCURVE",
"460.171 796.852 OFFCURVE",
"460.23 797.354 CURVE",
"460.29 797.857 OFFCURVE",
"460.206 798.312 OFFCURVE",
"459.992 798.693 CURVE",
"459.777 799.075 OFFCURVE",
"459.433 799.385 OFFCURVE",
"458.97 799.599 CURVE",
"458.508 799.812 OFFCURVE",
"457.927 799.932 OFFCURVE",
"457.242 799.932 CURVE"
);
},
{
closed = 1;
nodes = (
"119.578 493.562 LINE",
"114.547 493.562 LINE",
"113.861 493.562 OFFCURVE",
"113.266 493.435 OFFCURVE",
"112.775 493.204 CURVE",
"112.285 492.975 OFFCURVE",
"111.9 492.642 OFFCURVE",
"111.638 492.231 CURVE",
"111.375 491.821 OFFCURVE",
"111.233 491.333 OFFCURVE",
"111.229 490.792 CURVE",
"111.226 490.251 OFFCURVE",
"111.358 489.656 OFFCURVE",
"111.646 489.034 CURVE",
"113.657 484.681 LINE",
"179.2 342.833 LINE",
"335.28 5.043 LINE",
"335.57 4.411 OFFCURVE",
"335.989 3.809 OFFCURVE",
"336.497 3.26 CURVE",
"337.006 2.711 OFFCURVE",
"337.604 2.217 OFFCURVE",
"338.251 1.801 CURVE",
"338.898 1.386 OFFCURVE",
"339.596 1.049 OFFCURVE",
"340.305 0.815 CURVE",
"341.012 0.583 OFFCURVE",
"341.73 0.454 OFFCURVE",
"342.42 0.454 CURVE",
"472.026 0.454 LINE",
"472.719 0.454 OFFCURVE",
"473.319 0.583 OFFCURVE",
"473.812 0.815 CURVE",
"474.306 1.049 OFFCURVE",
"474.691 1.386 OFFCURVE",
"474.955 1.801 CURVE",
"475.218 2.217 OFFCURVE",
"475.358 2.711 OFFCURVE",
"475.36 3.26 CURVE",
"475.362 3.809 OFFCURVE",
"475.226 4.411 OFFCURVE",
"474.934 5.043 CURVE",
"258.73 471.283 LINE",
"250.499 489.034 LINE",
"250.211 489.656 OFFCURVE",
"249.796 490.251 OFFCURVE",
"249.292 490.792 CURVE",
"248.787 491.333 OFFCURVE",
"248.194 491.821 OFFCURVE",
"247.552 492.231 CURVE",
"246.908 492.642 OFFCURVE",
"246.216 492.975 OFFCURVE",
"245.512 493.204 CURVE",
"244.808 493.435 OFFCURVE",
"244.092 493.562 OFFCURVE",
"243.404 493.562 CURVE"
);
}
);
width = 600;
},
{
associatedMasterId = "105671D0-52CD-46B5-9B81-8ED8F76D0899";
layerId = "CA04F32D-394D-40E0-9900-CF3F79A76ABE";
name = "May 24 18, 11:27";
paths = (
{
closed = 1;
nodes = (
"37 696 LINE",
"36 696 OFFCURVE",
"36 696 OFFCURVE",
"35 695 CURVE",
"35 695 OFFCURVE",
"34 695 OFFCURVE",
"34 695 CURVE",
"33 694 OFFCURVE",
"33 694 OFFCURVE",
"33 693 CURVE",
"33 693 OFFCURVE",
"33 692 OFFCURVE",
"33 691 CURVE",
"31 5 LINE",
"31 4 OFFCURVE",
"31 3 OFFCURVE",
"31 3 CURVE",
"31 2 OFFCURVE",
"32 2 OFFCURVE",
"32 1 CURVE",
"32 1 OFFCURVE",
"33 1 OFFCURVE",
"33 1 CURVE",
"34 0 OFFCURVE",
"34 0 OFFCURVE",
"35 0 CURVE",
"148 0 LINE",
"148 0 OFFCURVE",
"149 0 OFFCURVE",
"149 1 CURVE",
"150 1 OFFCURVE",
"150 1 OFFCURVE",
"151 1 CURVE",
"151 2 OFFCURVE",
"152 2 OFFCURVE",
"152 3 CURVE",
"152 3 OFFCURVE",
"152 4 OFFCURVE",
"152 5 CURVE",
"152 243 LINE",
"152 243 OFFCURVE",
"152 243 OFFCURVE",
"151 243 CURVE",
"151 242 OFFCURVE",
"151 242 OFFCURVE",
"150 242 CURVE",
"150 242 OFFCURVE",
"150 242 OFFCURVE",
"149 242 CURVE",
"149 242 OFFCURVE",
"149 242 OFFCURVE",
"148 242 CURVE",
"148 242 OFFCURVE",
"148 242 OFFCURVE",
"148 242 CURVE",
"148 242 OFFCURVE",
"148 242 OFFCURVE",
"148 242 CURVE",
"147 242 OFFCURVE",
"147 242 OFFCURVE",
"147 242 CURVE",
"147 242 OFFCURVE",
"147 242 OFFCURVE",
"147 242 CURVE",
"34 271 LINE",
"34 271 OFFCURVE",
"33 272 OFFCURVE",
"33 272 CURVE",
"33 272 OFFCURVE",
"32 273 OFFCURVE",
"32 273 CURVE",
"32 273 OFFCURVE",
"32 274 OFFCURVE",
"32 274 CURVE",
"32 275 OFFCURVE",
"32 275 OFFCURVE",
"33 276 CURVE",
"130 422 LINE",
"128 425 LINE",
"128 426 OFFCURVE",
"128 426 OFFCURVE",
"128 427 CURVE",
"128 427 OFFCURVE",
"128 428 OFFCURVE",
"128 428 CURVE",
"128 429 OFFCURVE",
"129 429 OFFCURVE",
"129 429 CURVE",
"129 429 OFFCURVE",
"130 429 OFFCURVE",
"131 429 CURVE",
"135 429 LINE",
"153 456 LINE",
"153 691 LINE",
"153 692 OFFCURVE",
"153 693 OFFCURVE",
"153 693 CURVE",
"152 694 OFFCURVE",
"152 694 OFFCURVE",
"152 695 CURVE",
"151 695 OFFCURVE",
"151 695 OFFCURVE",
"150 695 CURVE",
"150 696 OFFCURVE",
"149 696 OFFCURVE",
"149 696 CURVE"
);
},
{
closed = 1;
nodes = (
"33 276 LINE",
"32 275 OFFCURVE",
"32 275 OFFCURVE",
"32 274 CURVE",
"32 274 OFFCURVE",
"32 273 OFFCURVE",
"32 273 CURVE",
"32 273 OFFCURVE",
"33 272 OFFCURVE",
"33 272 CURVE",
"33 272 OFFCURVE",
"34 271 OFFCURVE",
"34 271 CURVE",
"147 242 LINE",
"147 242 OFFCURVE",
"147 242 OFFCURVE",
"147 242 CURVE",
"147 242 OFFCURVE",
"147 242 OFFCURVE",
"148 242 CURVE",
"148 242 OFFCURVE",
"148 242 OFFCURVE",
"148 242 CURVE",
"148 242 OFFCURVE",
"148 242 OFFCURVE",
"148 242 CURVE",
"149 242 OFFCURVE",
"149 242 OFFCURVE",
"149 242 CURVE",
"150 242 OFFCURVE",
"150 242 OFFCURVE",
"150 242 CURVE",
"151 242 OFFCURVE",
"151 242 OFFCURVE",
"151 243 CURVE",
"152 243 OFFCURVE",
"152 243 OFFCURVE",
"152 243 CURVE",
"187 298 LINE",
"130 422 LINE"
);
},
{
closed = 1;
nodes = (
"317 696 LINE",
"316 696 OFFCURVE",
"316 696 OFFCURVE",
"315 695 CURVE",
"314 695 OFFCURVE",
"314 695 OFFCURVE",
"313 695 CURVE",
"313 694 OFFCURVE",
"312 694 OFFCURVE",
"311 694 CURVE",
"311 693 OFFCURVE",
"311 693 OFFCURVE",
"310 692 CURVE",
"153 456 LINE",
"135 429 LINE",
"243 429 LINE",
"243 429 OFFCURVE",
"244 429 OFFCURVE",
"244 429 CURVE",
"245 429 OFFCURVE",
"246 429 OFFCURVE",
"246 428 CURVE",
"247 428 OFFCURVE",
"247 427 OFFCURVE",
"248 427 CURVE",
"248 426 OFFCURVE",
"249 426 OFFCURVE",
"249 425 CURVE",
"256 410 LINE",
"431 692 LINE",
"431 693 OFFCURVE",
"431 693 OFFCURVE",
"431 694 CURVE",
"431 694 OFFCURVE",
"431 694 OFFCURVE",
"431 695 CURVE",
"431 695 OFFCURVE",
"430 695 OFFCURVE",
"430 695 CURVE",
"430 696 OFFCURVE",
"429 696 OFFCURVE",
"429 696 CURVE"
);
},
{
closed = 1;
nodes = (
"135 429 LINE",
"131 429 LINE",
"130 429 OFFCURVE",
"129 429 OFFCURVE",
"129 429 CURVE",
"129 429 OFFCURVE",
"128 429 OFFCURVE",
"128 428 CURVE",
"128 428 OFFCURVE",
"128 427 OFFCURVE",
"128 427 CURVE",
"128 426 OFFCURVE",
"128 426 OFFCURVE",
"128 425 CURVE",
"130 422 LINE",
"187 298 LINE",
"323 5 LINE",
"323 4 OFFCURVE",
"323 3 OFFCURVE",
"324 3 CURVE",
"324 3 OFFCURVE",
"325 2 OFFCURVE",
"325 2 CURVE",
"326 1 OFFCURVE",
"326 1 OFFCURVE",
"327 1 CURVE",
"328 1 OFFCURVE",
"328 1 OFFCURVE",
"329 1 CURVE",
"441 1 LINE",
"442 1 OFFCURVE",
"443 1 OFFCURVE",
"443 1 CURVE",
"443 1 OFFCURVE",
"444 1 OFFCURVE",
"444 2 CURVE",
"444 2 OFFCURVE",
"444 3 OFFCURVE",
"444 3 CURVE",
"444 3 OFFCURVE",
"444 4 OFFCURVE",
"444 5 CURVE",
"256 410 LINE",
"249 425 LINE",
"249 426 OFFCURVE",
"248 426 OFFCURVE",
"248 427 CURVE",
"247 427 OFFCURVE",
"247 428 OFFCURVE",
"246 428 CURVE",
"246 429 OFFCURVE",
"245 429 OFFCURVE",
"244 429 CURVE",
"244 429 OFFCURVE",
"243 429 OFFCURVE",
"243 429 CURVE"
);
}
);
width = 600;
},
{
associatedMasterId = "105671D0-52CD-46B5-9B81-8ED8F76D0899";
layerId = "167B5457-18EA-46A8-B651-54A09B071DC5";
name = "May 29 18, 22:24";
paths = (
{
closed = 1;
nodes = (
"39 1 OFFCURVE",
"40 0 OFFCURVE",
"43 0 CURVE SMOOTH",
"156 0 LINE",
"159 0 OFFCURVE",
"160 2 OFFCURVE",
"160 5 CURVE",
"160 243 LINE",
"195 298 LINE",
"331 4 LINE",
"332 1 OFFCURVE",
"335 0 OFFCURVE",
"337 0 CURVE",
"452 0 LINE",
"455 0 OFFCURVE",
"456 2 OFFCURVE",
"455 4 CURVE",
"264 410 LINE",
"439 692 LINE",
"440 694 OFFCURVE",
"438 696 OFFCURVE",
"437 696 CURVE",
"325 696 LINE SMOOTH",
"322 696 OFFCURVE",
"320 695 OFFCURVE",
"318 692 CURVE",
"161 454 LINE",
"161 691 LINE",
"161 694 OFFCURVE",
"160 696 OFFCURVE",
"157 696 CURVE SMOOTH",
"45 696 LINE",
"42 696 OFFCURVE",
"41 695 OFFCURVE",
"41 691 CURVE",
"39 5 LINE"
);
}
);
width = 461;
},
{
associatedMasterId = "105671D0-52CD-46B5-9B81-8ED8F76D0899";
layerId = "DB468E3B-28D5-4237-8B1E-EE26153AA6EA";
name = "Aug 13 18, 15:14";
paths = (
{
closed = 1;
nodes = (
"42 1 OFFCURVE",
"43 0 OFFCURVE",
"46 0 CURVE SMOOTH",
"159 0 LINE",
"162 0 OFFCURVE",
"163 2 OFFCURVE",
"163 5 CURVE",
"163 243 LINE",
"198 298 LINE",
"333 4 LINE",
"334 1 OFFCURVE",
"337 0 OFFCURVE",
"339 0 CURVE",
"461 0 LINE",
"464 0 OFFCURVE",
"465 2 OFFCURVE",
"464 4 CURVE",
"269 418 LINE",
"269 412 LINE",
"445 692 LINE",
"446 694 OFFCURVE",
"444 696 OFFCURVE",
"443 696 CURVE",
"328 696 LINE SMOOTH",
"325 696 OFFCURVE",
"323 695 OFFCURVE",
"321 692 CURVE",
"164 454 LINE",
"164 691 LINE",
"164 694 OFFCURVE",
"163 696 OFFCURVE",
"160 696 CURVE SMOOTH",
"48 696 LINE",
"45 696 OFFCURVE",
"44 695 OFFCURVE",
"44 691 CURVE",
"42 5 LINE"
);
}
);
width = 473;
}
);
leftKerningGroup = H;
leftMetricsKey = H;
rightKerningGroup = K;
unicode = 004B;
},
{
glyphname = L;
lastChange = "2018-10-09 15:01:31 +0000";
layers = (
{
anchors = (
{
name = bottom;
position = "{207, -11}";
},
{
name = top;
position = "{104, 835}";
}
);
layerId = "105671D0-52CD-46B5-9B81-8ED8F76D0899";
paths = (
{
closed = 1;
nodes = (
"367 0 LINE SMOOTH",
"370 0 OFFCURVE",
"372 2 OFFCURVE",
"372 5 CURVE SMOOTH",
"372 118 LINE SMOOTH",
"372 122 OFFCURVE",
"371 123 OFFCURVE",
"367 123 CURVE SMOOTH",
"161 123 LINE",
"162 691 LINE SMOOTH",
"162 694 OFFCURVE",
"160 696 OFFCURVE",
"157 696 CURVE SMOOTH",
"46 696 LINE SMOOTH",
"43 696 OFFCURVE",
"41 694 OFFCURVE",
"41 691 CURVE",
"40 5 LINE",
"40 2 OFFCURVE",
"41 0 OFFCURVE",
"44 0 CURVE SMOOTH"
);
}
);
width = 397;
}
);
leftKerningGroup = L;
leftMetricsKey = H;
rightKerningGroup = L;
rightMetricsKey = "=E-24";
unicode = 004C;
},
{
glyphname = Lcaron;
lastChange = "2018-10-09 15:01:31 +0000";
layers = (
{
anchors = (
{
name = _top;
position = "{104, 835}";
}
);
components = (
{
name = L;
}
);
guideLines = (
{
angle = 90;
position = "{372, 538}";
}
);
layerId = "105671D0-52CD-46B5-9B81-8ED8F76D0899";
paths = (
{
closed = 1;
nodes = (
"317 485 LINE",
"320 485 OFFCURVE",
"322 487 OFFCURVE",
"323 489 CURVE",
"367 693 LINE",
"368 695 OFFCURVE",
"367 697 OFFCURVE",
"363 697 CURVE",
"249 697 LINE",
"247 697 OFFCURVE",
"245 696 OFFCURVE",
"244 693 CURVE",
"213 489 LINE",
"212 486 OFFCURVE",
"215 485 OFFCURVE",
"217 485 CURVE"
);
}
);
width = 397;
}
);
leftKerningGroup = L;
rightKerningGroup = L;
unicode = 013D;
},
{
glyphname = Lslash;
lastChange = "2018-10-09 15:01:31 +0000";
layers = (
{
components = (
{
name = L;
}
);
layerId = "105671D0-52CD-46B5-9B81-8ED8F76D0899";
paths = (
{
closed = 1;
nodes = (
"296 389 LINE",
"299 390 OFFCURVE",
"299 392 OFFCURVE",
"298 395 CURVE",
"269 482 LINE",
"268 485 OFFCURVE",
"265 486 OFFCURVE",
"263 485 CURVE",
"-35 383 LINE",
"-38 382 OFFCURVE",
"-39 379 OFFCURVE",
"-38 376 CURVE",
"-8 290 LINE",
"-7 287 OFFCURVE",
"-5 286 OFFCURVE",
"-2 287 CURVE"
);
}
);
width = 397;
},
{
associatedMasterId = "105671D0-52CD-46B5-9B81-8ED8F76D0899";
components = (
{
name = L;
}
);
layerId = "91B54701-84B0-4973-91A1-44A90A386266";
name = "Aug 16 18, 16:09";
paths = (
{
closed = 1;
nodes = (
"-23 376 LINE",
"-26 375 OFFCURVE",
"-27 372 OFFCURVE",
"-26 369 CURVE",
"11 272 LINE",
"12 269 OFFCURVE",
"14 268 OFFCURVE",
"17 269 CURVE",
"303 365 LINE",
"306 366 OFFCURVE",
"306 368 OFFCURVE",
"305 371 CURVE",
"268 468 LINE",
"267 471 OFFCURVE",
"264 472 OFFCURVE",
"262 471 CURVE"
);
}
);
visible = 1;
width = 397;
},
{
associatedMasterId = "105671D0-52CD-46B5-9B81-8ED8F76D0899";
components = (
{
name = L;
}
);
layerId = "A78DC3EA-9B85-4EFD-9615-1F34748FEF55";
name = "Aug 16 18, 16:12";
paths = (
{
closed = 1;
nodes = (
"-60 393 LINE",
"-63 392 OFFCURVE",
"-64 389 OFFCURVE",
"-63 386 CURVE",
"-31 295 LINE",
"-30 292 OFFCURVE",
"-28 291 OFFCURVE",
"-25 292 CURVE",
"297 401 LINE",
"300 402 OFFCURVE",
"300 404 OFFCURVE",
"299 407 CURVE",
"268 498 LINE",
"267 501 OFFCURVE",
"264 502 OFFCURVE",
"262 501 CURVE"
);
}
);
width = 397;
}
);
leftKerningGroup = L;
rightKerningGroup = L;
unicode = 0141;
},
{
glyphname = M;
lastChange = "2018-10-10 21:52:23 +0000";
layers = (
{
anchors = (
{
name = top;
position = "{270, 835}";
}
);
layerId = "105671D0-52CD-46B5-9B81-8ED8F76D0899";
paths = (
{
closed = 1;
nodes = (
"157 0 LINE",
"160 0 OFFCURVE",
"161 2 OFFCURVE",
"161 5 CURVE",
"162 515 LINE",
"266 363 LINE",
"371 515 LINE",
"372 5 LINE",
"372 2 OFFCURVE",
"373 0 OFFCURVE",
"376 0 CURVE SMOOTH",
"489 0 LINE",
"492 0 OFFCURVE",
"493 2 OFFCURVE",
"493 5 CURVE",
"491 692 LINE",
"491 695 OFFCURVE",
"490 696 OFFCURVE",
"487 696 CURVE",
"364 696 LINE",
"362 696 OFFCURVE",
"360 696 OFFCURVE",
"357 692 CURVE",
"266 560 LINE",
"175 692 LINE",
"173 695 OFFCURVE",
"171 696 OFFCURVE",
"168 696 CURVE",
"46 696 LINE",
"43 696 OFFCURVE",
"42 695 OFFCURVE",
"42 692 CURVE",
"40 5 LINE",
"40 2 OFFCURVE",
"41 0 OFFCURVE",
"44 0 CURVE SMOOTH"
);
}
);
width = 537;
}
);
leftKerningGroup = H;
leftMetricsKey = H;
rightKerningGroup = H;
rightMetricsKey = "=H+2";
unicode = 004D;
},
{
glyphname = N;
lastChange = "2018-10-09 15:01:31 +0000";
layers = (
{
anchors = (
{
name = bottom;
position = "{235, -11}";
},
{
name = top;
position = "{214, 835}";
}
);
guideLines = (
{
position = "{575, 696}";
}
);
layerId = "105671D0-52CD-46B5-9B81-8ED8F76D0899";
paths = (
{
closed = 1;
nodes = (
"149 0 LINE SMOOTH",
"154 0 OFFCURVE",
"158 3 OFFCURVE",
"158 8 CURVE",
"151 368 LINE",
"324 0 LINE",
"412 0 LINE SMOOTH",
"415 0 OFFCURVE",
"417 2 OFFCURVE",
"417 6 CURVE",
"416 688 LINE",
"416 695 OFFCURVE",
"414 696 OFFCURVE",
"410 696 CURVE SMOOTH",
"311 696 LINE SMOOTH",
"304 696 OFFCURVE",
"302 694 OFFCURVE",
"302 688 CURVE SMOOTH",
"307 302 LINE",
"138 696 LINE",
"48 696 LINE SMOOTH",
"44 696 OFFCURVE",
"40 693 OFFCURVE",
"40 688 CURVE SMOOTH",
"41 7 LINE SMOOTH",
"41 2 OFFCURVE",
"44 0 OFFCURVE",
"49 0 CURVE SMOOTH"
);
}
);
width = 464;
},
{
associatedMasterId = "105671D0-52CD-46B5-9B81-8ED8F76D0899";
layerId = "1E8F11F8-6861-485E-9E1F-C59D872F4095";
name = "May 21 18, 10:46";
paths = (
{
closed = 1;
nodes = (
"34 690 LINE",
"33 690 OFFCURVE",
"33 690 OFFCURVE",
"32 690 CURVE",
"32 689 OFFCURVE",
"31 689 OFFCURVE",
"31 689 CURVE",
"30 688 OFFCURVE",
"30 688 OFFCURVE",
"30 687 CURVE",
"30 687 OFFCURVE",
"30 686 OFFCURVE",
"30 686 CURVE",
"28 5 LINE",
"28 4 OFFCURVE",
"28 3 OFFCURVE",
"28 3 CURVE",
"28 2 OFFCURVE",
"29 2 OFFCURVE",
"29 1 CURVE",
"30 1 OFFCURVE",
"30 1 OFFCURVE",
"31 1 CURVE",
"31 0 OFFCURVE",
"32 0 OFFCURVE",
"32 0 CURVE",
"144 0 LINE",
"145 0 OFFCURVE",
"145 0 OFFCURVE",
"146 1 CURVE",
"146 1 OFFCURVE",
"147 1 OFFCURVE",
"147 1 CURVE",
"147 2 OFFCURVE",
"148 2 OFFCURVE",
"148 3 CURVE",
"148 3 OFFCURVE",
"148 4 OFFCURVE",
"148 5 CURVE",
"149 361 LINE",
"90 571 LINE",
"76 571 LINE",
"75 571 OFFCURVE",
"74 571 OFFCURVE",
"74 571 CURVE",
"73 572 OFFCURVE",
"73 572 OFFCURVE",
"72 572 CURVE",
"72 573 OFFCURVE",
"72 573 OFFCURVE",
"72 574 CURVE",
"71 574 OFFCURVE",
"71 575 OFFCURVE",
"71 575 CURVE",
"71 638 LINE",
"65 661 LINE",
"71 663 LINE",
"71 686 LINE",
"71 686 OFFCURVE",
"72 687 OFFCURVE",
"72 687 CURVE",
"72 688 OFFCURVE",
"72 688 OFFCURVE",
"73 689 CURVE",
"73 689 OFFCURVE",
"74 689 OFFCURVE",
"74 690 CURVE",
"75 690 OFFCURVE",
"75 690 OFFCURVE",
"76 690 CURVE"
);
},
{
closed = 1;
nodes = (
"71 575 LINE",
"71 575 OFFCURVE",
"71 574 OFFCURVE",
"72 574 CURVE",
"72 573 OFFCURVE",
"72 573 OFFCURVE",
"72 572 CURVE",
"73 572 OFFCURVE",
"73 572 OFFCURVE",
"74 571 CURVE",
"74 571 OFFCURVE",
"75 571 OFFCURVE",
"76 571 CURVE",
"90 571 LINE",
"71 638 LINE"
);
},
{
closed = 1;
nodes = (
"76 690 LINE",
"75 690 OFFCURVE",
"75 690 OFFCURVE",
"74 690 CURVE",
"74 689 OFFCURVE",
"73 689 OFFCURVE",
"73 689 CURVE",
"72 688 OFFCURVE",
"72 688 OFFCURVE",
"72 687 CURVE",
"72 687 OFFCURVE",
"71 686 OFFCURVE",
"71 686 CURVE",
"71 663 LINE",
"159 687 LINE",
"160 686 LINE",
"160 686 LINE",
"160 686 OFFCURVE",
"159 687 OFFCURVE",
"159 687 CURVE",
"159 688 OFFCURVE",
"159 688 OFFCURVE",
"158 689 CURVE",
"158 689 OFFCURVE",
"157 689 OFFCURVE",
"157 690 CURVE",
"156 690 OFFCURVE",
"156 690 OFFCURVE",
"155 690 CURVE"
);
},
{
closed = 1;
nodes = (
"249 3 LINE",
"249 3 OFFCURVE",
"249 3 OFFCURVE",
"249 2 CURVE",
"249 2 OFFCURVE",
"250 2 OFFCURVE",
"250 1 CURVE",
"250 1 OFFCURVE",
"251 1 OFFCURVE",
"251 1 CURVE",
"252 1 OFFCURVE",
"252 0 OFFCURVE",
"253 0 CURVE",
"259 0 OFFCURVE",
"260 0 OFFCURVE",
"264 0 CURVE",
"263 0 OFFCURVE",
"261 1 OFFCURVE",
"260 2 CURVE",
"260 2 OFFCURVE",
"260 3 OFFCURVE",
"260 3 CURVE",
"259 4 OFFCURVE",
"259 4 OFFCURVE",
"259 5 CURVE",
"259 6 LINE"
);
},
{
closed = 1;
nodes = (
"263 690 LINE",
"262 690 OFFCURVE",
"262 690 OFFCURVE",
"261 690 CURVE",
"261 690 OFFCURVE",
"260 689 OFFCURVE",
"260 689 CURVE",
"260 689 OFFCURVE",
"259 688 OFFCURVE",
"259 688 CURVE",
"259 687 OFFCURVE",
"259 687 OFFCURVE",
"259 686 CURVE",
"259 330 LINE",
"343 30 LINE",
"259 6 LINE",
"259 5 LINE",
"259 4 OFFCURVE",
"259 4 OFFCURVE",
"260 3 CURVE",
"260 3 OFFCURVE",
"260 2 OFFCURVE",
"260 2 CURVE",
"261 1 OFFCURVE",
"260 1 OFFCURVE",
"261 1 CURVE",
"261 1 OFFCURVE",
"263 0 OFFCURVE",
"264 0 CURVE",
"375 0 LINE",
"376 0 OFFCURVE",
"376 1 OFFCURVE",
"377 1 CURVE",
"377 1 OFFCURVE",
"378 1 OFFCURVE",
"378 2 CURVE",
"379 2 OFFCURVE",
"379 3 OFFCURVE",
"379 3 CURVE",
"379 4 OFFCURVE",
"380 4 OFFCURVE",
"380 5 CURVE",
"378 686 LINE",
"378 687 OFFCURVE",
"378 687 OFFCURVE",
"378 688 CURVE",
"377 688 OFFCURVE",
"377 689 OFFCURVE",
"377 689 CURVE",
"376 689 OFFCURVE",
"376 690 OFFCURVE",
"375 690 CURVE",
"375 690 OFFCURVE",
"374 690 OFFCURVE",
"374 690 CURVE"
);
},
{
closed = 1;
nodes = (
"71 663 LINE",
"65 661 LINE",
"71 638 LINE",
"90 571 LINE",
"149 361 LINE",
"248 3 LINE",
"249 3 LINE",
"259 6 LINE",
"343 30 LINE",
"259 330 LINE",
"160 686 LINE",
"159 687 LINE"
);
}
);
width = 600;
},
{
associatedMasterId = "105671D0-52CD-46B5-9B81-8ED8F76D0899";
guideLines = (
{
position = "{606, 696}";
}
);
layerId = "3D94CB12-E51C-4100-B172-F5C0DF32421A";
name = "Aug 8 18, 16:01";
paths = (
{
closed = 1;
nodes = (
"35 2 OFFCURVE",
"37 0 OFFCURVE",
"39 0 CURVE",
"152 0 LINE SMOOTH",
"155 0 OFFCURVE",
"156 1 OFFCURVE",
"156 3 CURVE SMOOTH",
"157 364 LINE",
"257 3 LINE",
"258 1 OFFCURVE",
"259 0 OFFCURVE",
"262 0 CURVE SMOOTH",
"386 0 LINE SMOOTH",
"389 0 OFFCURVE",
"391 2 OFFCURVE",
"391 5 CURVE",
"389 692 LINE",
"389 695 OFFCURVE",
"388 696 OFFCURVE",
"385 696 CURVE",
"273 696 LINE",
"270 696 OFFCURVE",
"269 694 OFFCURVE",
"269 692 CURVE",
"269 333 LINE",
"169 692 LINE",
"168 695 OFFCURVE",
"166 696 OFFCURVE",
"164 696 CURVE",
"41 696 LINE",
"39 696 OFFCURVE",
"37 695 OFFCURVE",
"37 692 CURVE",
"35 5 LINE"
);
},
{
closed = 1;
nodes = (
"169 692 LINE",
"169 692 LINE"
);
}
);
width = 429;
},
{
associatedMasterId = "105671D0-52CD-46B5-9B81-8ED8F76D0899";
guideLines = (
{
position = "{598, 696}";
}
);
layerId = "4C9862BA-A6C8-46BB-B225-D1EB581320C2";
name = "Aug 9 18, 13:45";
paths = (
{
closed = 1;
nodes = (
"33 2 OFFCURVE",
"35 0 OFFCURVE",
"37 0 CURVE",
"148 0 LINE SMOOTH",
"151 0 OFFCURVE",
"152 1 OFFCURVE",
"152 3 CURVE SMOOTH",
"145 377 LINE",
"284 3 LINE",
"285 1 OFFCURVE",
"286 0 OFFCURVE",
"289 0 CURVE SMOOTH",
"398 0 LINE SMOOTH",
"401 0 OFFCURVE",
"403 2 OFFCURVE",
"403 5 CURVE",
"401 692 LINE",
"401 695 OFFCURVE",
"400 696 OFFCURVE",
"397 696 CURVE",
"287 696 LINE",
"284 696 OFFCURVE",
"283 694 OFFCURVE",
"283 692 CURVE",
"288 296 LINE",
"153 692 LINE",
"152 695 OFFCURVE",
"151 696 OFFCURVE",
"149 696 CURVE",
"39 696 LINE",
"37 696 OFFCURVE",
"35 695 OFFCURVE",
"35 692 CURVE",
"33 5 LINE"
);
}
);
width = 425;
},
{
associatedMasterId = "105671D0-52CD-46B5-9B81-8ED8F76D0899";
guideLines = (
{
position = "{601, 696}";
}
);
layerId = "FC1DD6A2-76EF-46C3-8C20-C1792240369B";
name = "Aug 9 18, 13:45";
paths = (
{
closed = 1;
nodes = (
"63 671 LINE",
"137 393 LINE",
"321 0 LINE",
"388 19 LINE",
"307 298 LINE",
"136 696 LINE"
);
},
{
closed = 1;
nodes = (
"412 0 OFFCURVE",
"414 2 OFFCURVE",
"414 6 CURVE",
"413 688 LINE",
"413 695 OFFCURVE",
"411 696 OFFCURVE",
"407 696 CURVE",
"306 696 LINE",
"299 696 OFFCURVE",
"297 694 OFFCURVE",
"297 688 CURVE",
"304 247 LINE",
"321 0 LINE",
"409 0 LINE"
);
},
{
closed = 1;
nodes = (
"153 0 OFFCURVE",
"157 3 OFFCURVE",
"157 8 CURVE",
"150 431 LINE",
"136 696 LINE",
"46 696 LINE",
"42 696 OFFCURVE",
"38 693 OFFCURVE",
"38 688 CURVE",
"38 7 LINE",
"38 2 OFFCURVE",
"41 0 OFFCURVE",
"46 0 CURVE",
"148 0 LINE"
);
}
);
width = 452;
},
{
associatedMasterId = "105671D0-52CD-46B5-9B81-8ED8F76D0899";
guideLines = (
{
position = "{601, 696}";
}
);
layerId = "504E27B1-8E0B-4AB9-8C70-3B92F5F7603D";
name = "Aug 9 18, 13:48";
paths = (
{
closed = 1;
nodes = (
"38 2 OFFCURVE",
"41 0 OFFCURVE",
"46 0 CURVE SMOOTH",
"148 0 LINE SMOOTH",
"153 0 OFFCURVE",
"157 3 OFFCURVE",
"157 8 CURVE",
"151 363 LINE",
"321 0 LINE",
"409 0 LINE SMOOTH",
"412 0 OFFCURVE",
"414 2 OFFCURVE",
"414 6 CURVE",
"413 688 LINE",
"413 695 OFFCURVE",
"411 696 OFFCURVE",
"407 696 CURVE SMOOTH",
"306 696 LINE SMOOTH",
"299 696 OFFCURVE",
"297 694 OFFCURVE",
"297 688 CURVE SMOOTH",
"303 307 LINE",
"136 696 LINE",
"46 696 LINE SMOOTH",
"42 696 OFFCURVE",
"38 693 OFFCURVE",
"38 688 CURVE SMOOTH",
"38 7 LINE SMOOTH"
);
}
);
width = 452;
},
{
associatedMasterId = "105671D0-52CD-46B5-9B81-8ED8F76D0899";
guideLines = (
{
position = "{596, 696}";
}
);
layerId = "9098F1C8-9263-4A8A-A47C-E5A178AEB862";
name = "Aug 9 18, 14:29";
paths = (
{
closed = 1;
nodes = (
"36 2 OFFCURVE",
"39 0 OFFCURVE",
"44 0 CURVE SMOOTH",
"146 0 LINE SMOOTH",
"151 0 OFFCURVE",
"155 3 OFFCURVE",
"155 8 CURVE",
"148 363 LINE",
"319 0 LINE",
"407 0 LINE SMOOTH",
"410 0 OFFCURVE",
"412 2 OFFCURVE",
"412 6 CURVE",
"411 688 LINE",
"411 695 OFFCURVE",
"409 696 OFFCURVE",
"405 696 CURVE SMOOTH",
"304 696 LINE SMOOTH",
"297 696 OFFCURVE",
"295 694 OFFCURVE",
"295 688 CURVE SMOOTH",
"301 307 LINE",
"133 696 LINE",
"43 696 LINE SMOOTH",
"39 696 OFFCURVE",
"35 693 OFFCURVE",
"35 688 CURVE SMOOTH",
"36 7 LINE SMOOTH"
);
}
);
width = 448;
},
{
associatedMasterId = "105671D0-52CD-46B5-9B81-8ED8F76D0899";
guideLines = (
{
position = "{590, 696}";
}
);
layerId = "4A21B083-C934-4903-9340-4C5A10CDB1F5";
name = "Aug 13 18, 15:00";
paths = (
{
closed = 1;
nodes = (
"42 2 OFFCURVE",
"45 0 OFFCURVE",
"50 0 CURVE SMOOTH",
"150 0 LINE SMOOTH",
"155 0 OFFCURVE",
"159 3 OFFCURVE",
"159 8 CURVE",
"152 365 LINE",
"325 0 LINE",
"413 0 LINE SMOOTH",
"416 0 OFFCURVE",
"418 2 OFFCURVE",
"418 6 CURVE",
"417 688 LINE",
"417 695 OFFCURVE",
"415 696 OFFCURVE",
"411 696 CURVE SMOOTH",
"312 696 LINE SMOOTH",
"305 696 OFFCURVE",
"303 694 OFFCURVE",
"303 688 CURVE SMOOTH",
"309 305 LINE",
"139 696 LINE",
"49 696 LINE SMOOTH",
"45 696 OFFCURVE",
"41 693 OFFCURVE",
"41 688 CURVE SMOOTH",
"42 7 LINE SMOOTH"
);
}
);
width = 465;
}
);
leftKerningGroup = H;
leftMetricsKey = H;
rightKerningGroup = H;
rightMetricsKey = "=H+5";
unicode = 004E;
},
{
glyphname = Eng;
lastChange = "2018-10-09 15:01:31 +0000";
layers = (
{
components = (
{
name = N;
}
);
layerId = "105671D0-52CD-46B5-9B81-8ED8F76D0899";
paths = (
{
closed = 1;
nodes = (
"254 -275 LINE SMOOTH",
"357 -275 OFFCURVE",
"417 -230 OFFCURVE",
"417 -81 CURVE SMOOTH",
"417 30 LINE",
"313 30 LINE",
"313 -84 LINE SMOOTH",
"313 -143 OFFCURVE",
"300 -158 OFFCURVE",
"251 -158 CURVE SMOOTH",
"225 -158 LINE SMOOTH",
"223 -158 OFFCURVE",
"221 -160 OFFCURVE",
"221 -162 CURVE SMOOTH",
"221 -271 LINE SMOOTH",
"221 -273 OFFCURVE",
"223 -275 OFFCURVE",
"225 -275 CURVE SMOOTH"
);
}
);
width = 464;
},
{
associatedMasterId = "105671D0-52CD-46B5-9B81-8ED8F76D0899";
components = (
{
name = N;
}
);
layerId = "E0A49B8D-92F8-4E46-986B-F43F45BAEA57";
name = "Aug 16 18, 17:30";
paths = (
{
closed = 1;
nodes = (
"321 -104 LINE",
"321 -144 OFFCURVE",
"316 -174 OFFCURVE",
"271 -174 CURVE",
"241 -175 LINE",
"241 -292 LINE",
"274 -292 LINE",
"361 -292 OFFCURVE",
"417 -231 OFFCURVE",
"417 -101 CURVE",
"417 20 LINE",
"321 20 LINE"
);
}
);
width = 464;
},
{
associatedMasterId = "105671D0-52CD-46B5-9B81-8ED8F76D0899";
components = (
{
name = N;
}
);
layerId = "E93F5558-CAF2-4C7F-9CCB-882B9BB03BFA";
name = "Aug 16 18, 17:34";
paths = (
{
closed = 1;
nodes = (
"313 -113 LINE SMOOTH",
"313 -172 OFFCURVE",
"300 -187 OFFCURVE",
"251 -187 CURVE SMOOTH",
"225 -187 LINE SMOOTH",
"223 -187 OFFCURVE",
"221 -189 OFFCURVE",
"221 -191 CURVE SMOOTH",
"221 -291 LINE SMOOTH",
"221 -293 OFFCURVE",
"223 -295 OFFCURVE",
"225 -295 CURVE SMOOTH",
"254 -295 LINE SMOOTH",
"357 -295 OFFCURVE",
"417 -250 OFFCURVE",
"417 -110 CURVE SMOOTH",
"417 30 LINE",
"313 30 LINE"
);
}
);
width = 464;
}
);
leftKerningGroup = H;
rightKerningGroup = H;
unicode = 014A;
},
{
glyphname = O;
lastChange = "2018-10-09 15:01:31 +0000";
layers = (
{
anchors = (
{
name = top;
position = "{223, 835}";
}
);
annotations = (
{
position = "{524.622, 466.788}";
text = "KERN: OAO";
type = Text;
}
);
background = {
paths = (
{
closed = 1;
nodes = (
"195 111 OFFCURVE",
"161 147 OFFCURVE",
"161 191 CURVE",
"161 508 LINE",
"161 553 OFFCURVE",
"194 587 OFFCURVE",
"236 587 CURVE",
"278 587 OFFCURVE",
"310 552 OFFCURVE",
"310 508 CURVE",
"311 191 LINE",
"311 149 OFFCURVE",
"276 111 OFFCURVE",
"236 111 CURVE"
);
},
{
closed = 1;
nodes = (
"129 707 OFFCURVE",
"40 617 OFFCURVE",
"40 508 CURVE",
"39 191 LINE",
"39 81 OFFCURVE",
"128 -10 OFFCURVE",
"236 -10 CURVE",
"344 -10 OFFCURVE",
"432 81 OFFCURVE",
"432 191 CURVE",
"431 508 LINE",
"431 618 OFFCURVE",
"343 707 OFFCURVE",
"236 707 CURVE"
);
}
);
};
layerId = "105671D0-52CD-46B5-9B81-8ED8F76D0899";
paths = (
{
closed = 1;
nodes = (
"333 -10 OFFCURVE",
"421 81 OFFCURVE",
"421 191 CURVE",
"420 508 LINE",
"420 618 OFFCURVE",
"332 707 OFFCURVE",
"225 707 CURVE",
"118 707 OFFCURVE",
"29 617 OFFCURVE",
"29 508 CURVE",
"28 191 LINE",
"28 81 OFFCURVE",
"117 -10 OFFCURVE",
"225 -10 CURVE"
);
},
{
closed = 1;
nodes = (
"184 111 OFFCURVE",
"150 147 OFFCURVE",
"150 191 CURVE",
"150 508 LINE",
"150 553 OFFCURVE",
"183 587 OFFCURVE",
"225 587 CURVE",
"267 587 OFFCURVE",
"299 552 OFFCURVE",
"299 508 CURVE",
"300 191 LINE",
"300 149 OFFCURVE",
"265 111 OFFCURVE",
"225 111 CURVE"
);
}
);
width = 457;
},
{
associatedMasterId = "105671D0-52CD-46B5-9B81-8ED8F76D0899";
layerId = "E2BA319E-2560-439D-8745-391986AFD20E";
name = "May 21 18, 10:58";
paths = (
{
closed = 1;
nodes = (
"266 112 OFFCURVE",
"255 114 OFFCURVE",
"246 118 CURVE",
"238 123 OFFCURVE",
"230 128 OFFCURVE",
"223 136 CURVE",
"216 143 OFFCURVE",
"211 151 OFFCURVE",
"206 161 CURVE",
"203 171 OFFCURVE",
"201 181 OFFCURVE",
"201 192 CURVE",
"201 506 LINE",
"201 518 OFFCURVE",
"203 528 OFFCURVE",
"207 538 CURVE",
"211 547 OFFCURVE",
"216 556 OFFCURVE",
"223 563 CURVE",
"230 570 OFFCURVE",
"238 576 OFFCURVE",
"246 579 CURVE",
"256 584 OFFCURVE",
"266 585 OFFCURVE",
"276 585 CURVE",
"286 585 OFFCURVE",
"296 584 OFFCURVE",
"305 579 CURVE",
"313 576 OFFCURVE",
"321 570 OFFCURVE",
"328 563 CURVE",
"335 556 OFFCURVE",
"340 547 OFFCURVE",
"344 538 CURVE",
"348 528 OFFCURVE",
"350 518 OFFCURVE",
"350 506 CURVE",
"351 192 LINE",
"351 181 OFFCURVE",
"348 171 OFFCURVE",
"345 161 CURVE",
"340 151 OFFCURVE",
"335 143 OFFCURVE",
"328 136 CURVE",
"322 128 OFFCURVE",
"313 123 OFFCURVE",
"305 118 CURVE",
"296 114 OFFCURVE",
"286 112 OFFCURVE",
"276 112 CURVE"
);
},
{
closed = 1;
nodes = (
"263 705 OFFCURVE",
"250 704 OFFCURVE",
"237 701 CURVE",
"225 698 OFFCURVE",
"212 695 OFFCURVE",
"200 690 CURVE",
"189 685 OFFCURVE",
"178 679 OFFCURVE",
"167 671 CURVE",
"156 665 OFFCURVE",
"146 656 OFFCURVE",
"137 646 CURVE",
"128 637 OFFCURVE",
"120 627 OFFCURVE",
"113 616 CURVE",
"106 605 OFFCURVE",
"100 594 OFFCURVE",
"95 582 CURVE",
"91 571 OFFCURVE",
"87 558 OFFCURVE",
"85 545 CURVE",
"82 532 OFFCURVE",
"80 520 OFFCURVE",
"80 506 CURVE",
"79 192 LINE",
"79 178 OFFCURVE",
"81 165 OFFCURVE",
"83 153 CURVE",
"85 140 OFFCURVE",
"89 128 OFFCURVE",
"94 116 CURVE",
"99 104 OFFCURVE",
"105 92 OFFCURVE",
"112 81 CURVE",
"119 71 OFFCURVE",
"127 60 OFFCURVE",
"136 51 CURVE",
"146 41 OFFCURVE",
"155 32 OFFCURVE",
"166 25 CURVE",
"177 18 OFFCURVE",
"188 11 OFFCURVE",
"199 6 CURVE",
"212 1 OFFCURVE",
"224 -2 OFFCURVE",
"237 -5 CURVE",
"249 -8 OFFCURVE",
"262 -9 OFFCURVE",
"276 -9 CURVE",
"289 -9 OFFCURVE",
"302 -8 OFFCURVE",
"314 -5 CURVE",
"327 -2 OFFCURVE",
"339 1 OFFCURVE",
"352 6 CURVE",
"363 11 OFFCURVE",
"374 18 OFFCURVE",
"386 25 CURVE",
"396 32 OFFCURVE",
"406 41 OFFCURVE",
"415 51 CURVE",
"425 60 OFFCURVE",
"432 71 OFFCURVE",
"439 81 CURVE",
"446 92 OFFCURVE",
"452 104 OFFCURVE",
"457 116 CURVE",
"462 128 OFFCURVE",
"466 140 OFFCURVE",
"468 153 CURVE",
"470 165 OFFCURVE",
"472 178 OFFCURVE",
"472 192 CURVE",
"471 506 LINE",
"471 520 OFFCURVE",
"469 532 OFFCURVE",
"466 545 CURVE",
"465 558 OFFCURVE",
"460 571 OFFCURVE",
"456 582 CURVE",
"451 594 OFFCURVE",
"446 605 OFFCURVE",
"439 616 CURVE",
"432 627 OFFCURVE",
"423 637 OFFCURVE",
"414 646 CURVE",
"405 656 OFFCURVE",
"395 665 OFFCURVE",
"384 671 CURVE",
"373 679 OFFCURVE",
"362 685 OFFCURVE",
"351 690 CURVE",
"339 695 OFFCURVE",
"326 698 OFFCURVE",
"314 701 CURVE",
"301 704 OFFCURVE",
"289 705 OFFCURVE",
"276 705 CURVE"
);
}
);
width = 600;
},
{
annotations = (
{
position = "{524.622, 466.788}";
text = "KERN: OAO";
type = Text;
}
);
associatedMasterId = "105671D0-52CD-46B5-9B81-8ED8F76D0899";
background = {
paths = (
{
closed = 1;
nodes = (
"196 111 OFFCURVE",
"159 143 OFFCURVE",
"159 191 CURVE",
"159 508 LINE",
"159 549 OFFCURVE",
"188 587 OFFCURVE",
"234 587 CURVE",
"277 587 OFFCURVE",
"308 551 OFFCURVE",
"308 508 CURVE",
"309 191 LINE",
"309 154 OFFCURVE",
"279 111 OFFCURVE",
"234 111 CURVE"
);
},
{
closed = 1;
nodes = (
"124 707 OFFCURVE",
"38 614 OFFCURVE",
"38 508 CURVE",
"37 191 LINE",
"37 80 OFFCURVE",
"127 -10 OFFCURVE",
"234 -10 CURVE",
"340 -10 OFFCURVE",
"430 79 OFFCURVE",
"430 191 CURVE",
"429 508 LINE",
"429 619 OFFCURVE",
"340 707 OFFCURVE",
"234 707 CURVE"
);
}
);
};
layerId = "D5D0E9A4-384F-4DB1-9053-C2329C33D7F3";
name = compare;
width = 467;
},
{
associatedMasterId = "105671D0-52CD-46B5-9B81-8ED8F76D0899";
layerId = "F53D30F3-AFFE-41AE-85F7-FE90BC0C8CAD";
name = "May 28 18, 12:43";
paths = (
{
closed = 1;
nodes = (
"266 112 OFFCURVE",
"255 114 OFFCURVE",
"246 118 CURVE",
"238 123 OFFCURVE",
"230 128 OFFCURVE",
"223 136 CURVE",
"216 143 OFFCURVE",
"211 151 OFFCURVE",
"206 161 CURVE",
"203 171 OFFCURVE",
"201 181 OFFCURVE",
"201 192 CURVE",
"201 506 LINE",
"201 518 OFFCURVE",
"203 528 OFFCURVE",
"207 538 CURVE",
"211 547 OFFCURVE",
"216 556 OFFCURVE",
"223 563 CURVE",
"230 570 OFFCURVE",
"238 576 OFFCURVE",
"246 579 CURVE",
"256 584 OFFCURVE",
"266 585 OFFCURVE",
"276 585 CURVE",
"286 585 OFFCURVE",
"296 584 OFFCURVE",
"305 579 CURVE",
"313 576 OFFCURVE",
"321 570 OFFCURVE",
"328 563 CURVE",
"335 556 OFFCURVE",
"340 547 OFFCURVE",
"344 538 CURVE",
"348 528 OFFCURVE",
"350 518 OFFCURVE",
"350 506 CURVE",
"351 192 LINE",
"351 181 OFFCURVE",
"348 171 OFFCURVE",
"345 161 CURVE",
"340 151 OFFCURVE",
"335 143 OFFCURVE",
"328 136 CURVE",
"322 128 OFFCURVE",
"313 123 OFFCURVE",
"305 118 CURVE",
"296 114 OFFCURVE",
"286 112 OFFCURVE",
"276 112 CURVE"
);
},
{
closed = 1;
nodes = (
"263 705 OFFCURVE",
"250 704 OFFCURVE",
"237 701 CURVE",
"225 698 OFFCURVE",
"212 695 OFFCURVE",
"200 690 CURVE",
"189 685 OFFCURVE",
"178 679 OFFCURVE",
"167 671 CURVE",
"156 665 OFFCURVE",
"146 656 OFFCURVE",
"137 646 CURVE",
"128 637 OFFCURVE",
"120 627 OFFCURVE",
"113 616 CURVE",
"106 605 OFFCURVE",
"100 594 OFFCURVE",
"95 582 CURVE",
"91 571 OFFCURVE",
"87 558 OFFCURVE",
"85 545 CURVE",
"82 532 OFFCURVE",
"80 520 OFFCURVE",
"80 506 CURVE",
"79 192 LINE",
"79 178 OFFCURVE",
"81 165 OFFCURVE",
"83 153 CURVE",
"85 140 OFFCURVE",
"89 128 OFFCURVE",
"94 116 CURVE",
"99 104 OFFCURVE",
"105 92 OFFCURVE",
"112 81 CURVE",
"119 71 OFFCURVE",
"127 60 OFFCURVE",
"136 51 CURVE",
"146 41 OFFCURVE",
"155 32 OFFCURVE",
"166 25 CURVE",
"177 18 OFFCURVE",
"188 11 OFFCURVE",
"199 6 CURVE",
"212 1 OFFCURVE",
"224 -2 OFFCURVE",
"237 -5 CURVE",
"249 -8 OFFCURVE",
"262 -9 OFFCURVE",
"276 -9 CURVE",
"289 -9 OFFCURVE",
"302 -8 OFFCURVE",
"314 -5 CURVE",
"327 -2 OFFCURVE",
"339 1 OFFCURVE",
"352 6 CURVE",
"363 11 OFFCURVE",
"374 18 OFFCURVE",
"386 25 CURVE",
"396 32 OFFCURVE",
"406 41 OFFCURVE",
"415 51 CURVE",
"425 60 OFFCURVE",
"432 71 OFFCURVE",
"439 81 CURVE",
"446 92 OFFCURVE",
"452 104 OFFCURVE",
"457 116 CURVE",
"462 128 OFFCURVE",
"466 140 OFFCURVE",
"468 153 CURVE",
"470 165 OFFCURVE",
"472 178 OFFCURVE",
"472 192 CURVE",
"471 506 LINE",
"471 520 OFFCURVE",
"469 532 OFFCURVE",
"466 545 CURVE",
"465 558 OFFCURVE",
"460 571 OFFCURVE",
"456 582 CURVE",
"451 594 OFFCURVE",
"446 605 OFFCURVE",
"439 616 CURVE",
"432 627 OFFCURVE",
"423 637 OFFCURVE",
"414 646 CURVE",
"405 656 OFFCURVE",
"395 665 OFFCURVE",
"384 671 CURVE",
"373 679 OFFCURVE",
"362 685 OFFCURVE",
"351 690 CURVE",
"339 695 OFFCURVE",
"326 698 OFFCURVE",
"314 701 CURVE",
"301 704 OFFCURVE",
"289 705 OFFCURVE",
"276 705 CURVE"
);
}
);
width = 600;
}
);
leftKerningGroup = O;
rightKerningGroup = O;
unicode = 004F;
},
{
glyphname = OO.ss01;
lastChange = "2018-10-12 15:41:36 +0000";
layers = (
{
anchors = (
{
name = top;
position = "{368, 835}";
}
);
layerId = "105671D0-52CD-46B5-9B81-8ED8F76D0899";
paths = (
{
closed = 1;
nodes = (
"267 -10 OFFCURVE",
"306 4 OFFCURVE",
"338 27 CURVE",
"307 63 OFFCURVE",
"294 86 OFFCURVE",
"277 135 CURVE",
"264 120 OFFCURVE",
"245 111 OFFCURVE",
"225 111 CURVE SMOOTH",
"184 111 OFFCURVE",
"150 147 OFFCURVE",
"150 191 CURVE SMOOTH",
"150 508 LINE SMOOTH",
"150 553 OFFCURVE",
"183 587 OFFCURVE",
"225 587 CURVE SMOOTH",
"267 587 OFFCURVE",
"299 552 OFFCURVE",
"299 508 CURVE SMOOTH",
"300 350 LINE",
"299 191 LINE SMOOTH",
"299 81 OFFCURVE",
"388 -10 OFFCURVE",
"496 -10 CURVE SMOOTH",
"604 -10 OFFCURVE",
"692 81 OFFCURVE",
"692 191 CURVE",
"691 508 LINE",
"691 618 OFFCURVE",
"603 707 OFFCURVE",
"496 707 CURVE SMOOTH",
"454 707 OFFCURVE",
"414 693 OFFCURVE",
"382 669 CURVE",
"408 642 OFFCURVE",
"428 612 OFFCURVE",
"440 562 CURVE",
"453 578 OFFCURVE",
"473 587 OFFCURVE",
"496 587 CURVE SMOOTH",
"538 587 OFFCURVE",
"570 552 OFFCURVE",
"570 508 CURVE SMOOTH",
"571 191 LINE SMOOTH",
"571 149 OFFCURVE",
"536 111 OFFCURVE",
"496 111 CURVE SMOOTH",
"455 111 OFFCURVE",
"421 147 OFFCURVE",
"421 191 CURVE SMOOTH",
"421 508 LINE SMOOTH",
"421 618 OFFCURVE",
"332 707 OFFCURVE",
"225 707 CURVE SMOOTH",
"118 707 OFFCURVE",
"29 617 OFFCURVE",
"29 508 CURVE SMOOTH",
"28 191 LINE SMOOTH",
"28 81 OFFCURVE",
"117 -10 OFFCURVE",
"225 -10 CURVE SMOOTH"
);
}
);
width = 728;
}
);
leftKerningGroup = O;
leftMetricsKey = O;
rightKerningGroup = O;
rightMetricsKey = O;
},
{
glyphname = Oslash;
lastChange = "2018-10-09 15:01:31 +0000";
layers = (
{
components = (
{
name = O;
}
);
layerId = "105671D0-52CD-46B5-9B81-8ED8F76D0899";
paths = (
{
closed = 1;
nodes = (
"58 -37 LINE SMOOTH",
"60 -37 OFFCURVE",
"61 -37 OFFCURVE",
"63 -35 CURVE",
"478 724 LINE SMOOTH",
"480 728 OFFCURVE",
"478 732 OFFCURVE",
"474 732 CURVE SMOOTH",
"398 732 LINE SMOOTH",
"396 732 OFFCURVE",
"393 731 OFFCURVE",
"392 729 CURVE",
"-25 -31 LINE SMOOTH",
"-27 -34 OFFCURVE",
"-24 -37 OFFCURVE",
"-21 -37 CURVE SMOOTH"
);
}
);
width = 458;
},
{
associatedMasterId = "105671D0-52CD-46B5-9B81-8ED8F76D0899";
components = (
{
name = O;
}
);
layerId = "6406D903-833D-4864-803F-A61CECA72501";
name = "Aug 15 18, 15:58";
paths = (
{
closed = 1;
nodes = (
"16 0 LINE SMOOTH",
"18 0 OFFCURVE",
"19 0 OFFCURVE",
"21 2 CURVE",
"469 687 LINE SMOOTH",
"471 691 OFFCURVE",
"469 695 OFFCURVE",
"465 695 CURVE SMOOTH",
"412 695 LINE SMOOTH",
"410 695 OFFCURVE",
"407 694 OFFCURVE",
"406 692 CURVE",
"-48 6 LINE SMOOTH",
"-50 3 OFFCURVE",
"-47 0 OFFCURVE",
"-44 0 CURVE SMOOTH"
);
}
);
width = 458;
}
);
leftKerningGroup = O;
rightKerningGroup = O;
unicode = 00D8;
},
{
glyphname = Otilde;
lastChange = "2018-10-09 15:01:31 +0000";
layers = (
{
anchors = (
{
name = _top;
position = "{224, 835}";
}
);
components = (
{
name = O;
}
);
layerId = "105671D0-52CD-46B5-9B81-8ED8F76D0899";
paths = (
{
closed = 1;
nodes = (
"361 753 OFFCURVE",
"418 797 OFFCURVE",
"418 879 CURVE SMOOTH",
"418 881 OFFCURVE",
"416 883 OFFCURVE",
"414 883 CURVE SMOOTH",
"324 883 LINE SMOOTH",
"322 883 OFFCURVE",
"320 881 OFFCURVE",
"320 879 CURVE SMOOTH",
"320 854 OFFCURVE",
"304 842 OFFCURVE",
"285 842 CURVE SMOOTH",
"259 842 OFFCURVE",
"221 881 OFFCURVE",
"164 881 CURVE SMOOTH",
"84 881 OFFCURVE",
"36 814 OFFCURVE",
"36 762 CURVE SMOOTH",
"36 760 OFFCURVE",
"38 758 OFFCURVE",
"40 758 CURVE SMOOTH",
"130 758 LINE SMOOTH",
"132 758 OFFCURVE",
"134 760 OFFCURVE",
"134 762 CURVE SMOOTH",
"134 781 OFFCURVE",
"147 795 OFFCURVE",
"173 795 CURVE SMOOTH",
"206 795 OFFCURVE",
"246 753 OFFCURVE",
"303 753 CURVE SMOOTH"
);
}
);
width = 458;
}
);
leftKerningGroup = O;
rightKerningGroup = O;
unicode = 00D5;
},
{
glyphname = OE;
lastChange = "2018-10-09 15:01:31 +0000";
layers = (
{
anchors = (
{
name = top;
position = "{331, 814}";
}
);
components = (
{
name = E;
transform = "{1, 0, 0, 1, 239, 0}";
}
);
layerId = "105671D0-52CD-46B5-9B81-8ED8F76D0899";
paths = (
{
closed = 1;
nodes = (
"228 0 OFFCURVE",
"311 0 OFFCURVE",
"313 0 CURVE",
"313 122 LINE",
"311 121 OFFCURVE",
"228 121 OFFCURVE",
"225 121 CURVE",
"184 121 OFFCURVE",
"150 157 OFFCURVE",
"150 201 CURVE",
"150 498 LINE",
"150 543 OFFCURVE",
"183 577 OFFCURVE",
"225 577 CURVE",
"228 577 OFFCURVE",
"331 577 OFFCURVE",
"333 577 CURVE",
"333 696 LINE",
"331 696 OFFCURVE",
"228 696 OFFCURVE",
"225 696 CURVE",
"118 696 OFFCURVE",
"29 607 OFFCURVE",
"29 498 CURVE",
"28 201 LINE",
"28 91 OFFCURVE",
"117 0 OFFCURVE",
"225 0 CURVE"
);
}
);
width = 659;
},
{
anchors = (
{
name = top;
position = "{224, 835}";
}
);
associatedMasterId = "105671D0-52CD-46B5-9B81-8ED8F76D0899";
components = (
{
name = E;
transform = "{1, 0, 0, 1, 458, 0}";
}
);
layerId = "EB2A4D4B-3A0C-4DAA-8D8A-0BF0E08F0449";
name = "Aug 15 18, 16:13";
paths = (
{
closed = 1;
nodes = (
"306 111 OFFCURVE",
"272 147 OFFCURVE",
"272 191 CURVE",
"272 508 LINE",
"272 553 OFFCURVE",
"305 587 OFFCURVE",
"347 587 CURVE",
"389 587 OFFCURVE",
"421 552 OFFCURVE",
"421 508 CURVE",
"422 191 LINE",
"422 149 OFFCURVE",
"387 111 OFFCURVE",
"347 111 CURVE"
);
},
{
closed = 1;
nodes = (
"240 707 OFFCURVE",
"151 617 OFFCURVE",
"151 508 CURVE",
"150 191 LINE",
"150 81 OFFCURVE",
"239 -10 OFFCURVE",
"347 -10 CURVE",
"455 -10 OFFCURVE",
"543 81 OFFCURVE",
"543 191 CURVE",
"542 508 LINE",
"542 618 OFFCURVE",
"454 707 OFFCURVE",
"347 707 CURVE"
);
}
);
width = 878;
}
);
leftKerningGroup = O;
leftMetricsKey = O;
rightKerningGroup = E;
rightMetricsKey = E;
unicode = 0152;
},
{
glyphname = P;
lastChange = "2018-10-09 15:01:31 +0000";
layers = (
{
anchors = (
{
name = top;
position = "{217, 835}";
}
);
layerId = "105671D0-52CD-46B5-9B81-8ED8F76D0899";
paths = (
{
closed = 1;
nodes = (
"157 0 LINE SMOOTH",
"160 0 OFFCURVE",
"162 2 OFFCURVE",
"162 5 CURVE SMOOTH",
"162 257 LINE",
"238 257 LINE SMOOTH",
"343 257 OFFCURVE",
"437 346 OFFCURVE",
"437 488 CURVE SMOOTH",
"437 616 OFFCURVE",
"361 696 OFFCURVE",
"238 696 CURVE SMOOTH",
"46 696 LINE",
"44 696 OFFCURVE",
"42 694 OFFCURVE",
"42 692 CURVE",
"40 5 LINE SMOOTH",
"40 2 OFFCURVE",
"42 0 OFFCURVE",
"45 0 CURVE SMOOTH"
);
},
{
closed = 1;
nodes = (
"162 576 LINE",
"238 577 LINE SMOOTH",
"287 577 OFFCURVE",
"317 540 OFFCURVE",
"317 488 CURVE SMOOTH",
"317 423 OFFCURVE",
"281 378 OFFCURVE",
"238 378 CURVE SMOOTH",
"162 378 LINE"
);
}
);
width = 457;
}
);
leftKerningGroup = H;
leftMetricsKey = H;
rightKerningGroup = P;
rightMetricsKey = "=B-7";
unicode = 0050;
},
{
glyphname = Thorn;
lastChange = "2018-10-09 15:01:31 +0000";
layers = (
{
layerId = "105671D0-52CD-46B5-9B81-8ED8F76D0899";
paths = (
{
closed = 1;
nodes = (
"157 0 LINE SMOOTH",
"160 0 OFFCURVE",
"162 2 OFFCURVE",
"162 5 CURVE SMOOTH",
"162 141 LINE",
"239 141 LINE SMOOTH",
"343 141 OFFCURVE",
"438 231 OFFCURVE",
"438 372 CURVE SMOOTH",
"438 500 OFFCURVE",
"362 580 OFFCURVE",
"239 580 CURVE SMOOTH",
"162 580 LINE",
"162 690 LINE SMOOTH",
"162 693 OFFCURVE",
"159 696 OFFCURVE",
"156 696 CURVE SMOOTH",
"46 696 LINE SMOOTH",
"44 696 OFFCURVE",
"42 694 OFFCURVE",
"42 692 CURVE SMOOTH",
"40 5 LINE SMOOTH",
"40 2 OFFCURVE",
"42 0 OFFCURVE",
"45 0 CURVE SMOOTH"
);
},
{
closed = 1;
nodes = (
"162 460.061 LINE",
"239 461 LINE SMOOTH",
"288 462 OFFCURVE",
"318 424 OFFCURVE",
"318 372 CURVE SMOOTH",
"318 307 OFFCURVE",
"282 262 OFFCURVE",
"239 262 CURVE SMOOTH",
"162 262 LINE"
);
}
);
width = 458;
},
{
associatedMasterId = "105671D0-52CD-46B5-9B81-8ED8F76D0899";
layerId = "678A073E-D019-4303-92F7-DF26D21A0128";
name = "Aug 15 18, 16:07";
paths = (
{
closed = 1;
nodes = (
"159 177 LINE",
"229 177 LINE SMOOTH",
"335 177 OFFCURVE",
"428 265 OFFCURVE",
"428 408 CURVE SMOOTH",
"428 536 OFFCURVE",
"352 616 OFFCURVE",
"229 616 CURVE SMOOTH",
"157 616 LINE",
"157 496 LINE",
"229 497 LINE SMOOTH",
"278 498 OFFCURVE",
"308 460 OFFCURVE",
"308 408 CURVE SMOOTH",
"308 343 OFFCURVE",
"272 298 OFFCURVE",
"229 298 CURVE SMOOTH",
"159 298 LINE"
);
},
{
closed = 1;
nodes = (
"162 696 LINE",
"46 696 LINE",
"44 696 OFFCURVE",
"42 694 OFFCURVE",
"42 692 CURVE",
"40 5 LINE SMOOTH",
"40 2 OFFCURVE",
"42 0 OFFCURVE",
"45 0 CURVE SMOOTH",
"157 0 LINE SMOOTH",
"160 0 OFFCURVE",
"162 2 OFFCURVE",
"162 5 CURVE"
);
}
);
width = 600;
},
{
associatedMasterId = "105671D0-52CD-46B5-9B81-8ED8F76D0899";
layerId = "B8C9CD82-7ABB-4F84-9A12-BAD78DFD7B71";
name = "Aug 15 18, 16:07";
paths = (
{
closed = 1;
nodes = (
"40 -78 OFFCURVE",
"42 -80 OFFCURVE",
"45 -80 CURVE SMOOTH",
"157 -80 LINE SMOOTH",
"160 -80 OFFCURVE",
"162 -78 OFFCURVE",
"162 -75 CURVE SMOOTH",
"162 177 LINE",
"238 177 LINE SMOOTH",
"344 177 OFFCURVE",
"437 265 OFFCURVE",
"437 408 CURVE SMOOTH",
"437 536 OFFCURVE",
"361 616 OFFCURVE",
"238 616 CURVE SMOOTH",
"46 616 LINE",
"44 616 OFFCURVE",
"42 614 OFFCURVE",
"42 612 CURVE",
"40 -75 LINE SMOOTH"
);
},
{
closed = 1;
nodes = (
"162 496 LINE",
"238 497 LINE SMOOTH",
"287 498 OFFCURVE",
"317 460 OFFCURVE",
"317 408 CURVE SMOOTH",
"317 343 OFFCURVE",
"281 298 OFFCURVE",
"238 298 CURVE SMOOTH",
"162 298 LINE"
);
}
);
visible = 1;
width = 600;
}
);
rightMetricsKey = P;
unicode = 00DE;
},
{
glyphname = Q;
lastChange = "2018-10-09 15:01:31 +0000";
layers = (
{
anchors = (
{
name = top;
position = "{226, 835}";
}
);
layerId = "105671D0-52CD-46B5-9B81-8ED8F76D0899";
paths = (
{
closed = 1;
nodes = (
"371 -66 OFFCURVE",
"373 -66 OFFCURVE",
"376 -64 CURVE",
"455 15 LINE SMOOTH",
"457 17 OFFCURVE",
"456 20 OFFCURVE",
"454 22 CURVE SMOOTH",
"391.525 85.381 LINE",
"410.141 115.968 OFFCURVE",
"421 152.097 OFFCURVE",
"421 191 CURVE",
"420 508 LINE",
"420 619 OFFCURVE",
"331 707 OFFCURVE",
"225 707 CURVE SMOOTH",
"115 707 OFFCURVE",
"29 614 OFFCURVE",
"29 508 CURVE SMOOTH",
"28 191 LINE SMOOTH",
"28 80 OFFCURVE",
"118 -10 OFFCURVE",
"225 -10 CURVE SMOOTH",
"251.495 -10 OFFCURVE",
"276.99 -4.44 OFFCURVE",
"300.33 5.651 CURVE",
"369 -64 LINE SMOOTH"
);
},
{
closed = 1;
nodes = (
"187 111 OFFCURVE",
"150 143 OFFCURVE",
"150 191 CURVE SMOOTH",
"150 508 LINE SMOOTH",
"150 549 OFFCURVE",
"179 587 OFFCURVE",
"225 587 CURVE SMOOTH",
"268 587 OFFCURVE",
"299 551 OFFCURVE",
"299 508 CURVE SMOOTH",
"300 191 LINE SMOOTH",
"300 152 OFFCURVE",
"270 111 OFFCURVE",
"225 111 CURVE SMOOTH"
);
}
);
width = 466;
},
{
associatedMasterId = "105671D0-52CD-46B5-9B81-8ED8F76D0899";
layerId = "25185AF0-A8B0-4103-B060-8D87771985FA";
name = "May 24 18, 15:29";
paths = (
{
closed = 1;
nodes = (
"399 82 OFFCURVE",
"397 79 OFFCURVE",
"395 76 CURVE",
"393 73 OFFCURVE",
"391 70 OFFCURVE",
"388 67 CURVE",
"386 64 OFFCURVE",
"384 61 OFFCURVE",
"381 58 CURVE",
"379 55 OFFCURVE",
"376 52 OFFCURVE",
"374 50 CURVE",
"369 45 OFFCURVE",
"364 40 OFFCURVE",
"359 36 CURVE",
"354 32 OFFCURVE",
"349 28 OFFCURVE",
"344 24 CURVE",
"338 20 OFFCURVE",
"333 17 OFFCURVE",
"327 14 CURVE",
"322 11 OFFCURVE",
"316 8 OFFCURVE",
"310 5 CURVE",
"354 -39 LINE",
"355 -40 OFFCURVE",
"355 -40 OFFCURVE",
"355 -40 CURVE",
"355 -40 OFFCURVE",
"356 -40 OFFCURVE",
"356 -40 CURVE",
"356 -40 OFFCURVE",
"356 -41 OFFCURVE",
"357 -41 CURVE",
"357 -41 OFFCURVE",
"357 -41 OFFCURVE",
"358 -41 CURVE",
"358 -41 OFFCURVE",
"358 -41 OFFCURVE",
"358 -41 CURVE",
"359 -41 OFFCURVE",
"359 -40 OFFCURVE",
"359 -40 CURVE",
"359 -40 OFFCURVE",
"360 -40 OFFCURVE",
"360 -40 CURVE",
"360 -40 OFFCURVE",
"360 -40 OFFCURVE",
"361 -39 CURVE",
"440 40 LINE",
"441 41 OFFCURVE",
"441 41 OFFCURVE",
"441 42 CURVE",
"441 42 OFFCURVE",
"441 43 OFFCURVE",
"441 43 CURVE",
"441 44 OFFCURVE",
"441 45 OFFCURVE",
"441 45 CURVE",
"441 46 OFFCURVE",
"441 46 OFFCURVE",
"440 46 CURVE",
"401 85 LINE"
);
},
{
closed = 1;
nodes = (
"224 111 OFFCURVE",
"214 113 OFFCURVE",
"205 117 CURVE",
"196 121 OFFCURVE",
"188 127 OFFCURVE",
"181 134 CURVE",
"174 142 OFFCURVE",
"169 150 OFFCURVE",
"165 160 CURVE",
"161 170 OFFCURVE",
"159 180 OFFCURVE",
"159 191 CURVE",
"160 508 LINE",
"160 519 OFFCURVE",
"162 530 OFFCURVE",
"166 539 CURVE",
"169 549 OFFCURVE",
"175 558 OFFCURVE",
"182 565 CURVE",
"188 572 OFFCURVE",
"196 578 OFFCURVE",
"205 582 CURVE",
"214 586 OFFCURVE",
"224 588 OFFCURVE",
"234 588 CURVE",
"244 588 OFFCURVE",
"254 586 OFFCURVE",
"263 582 CURVE",
"272 578 OFFCURVE",
"280 572 OFFCURVE",
"287 565 CURVE",
"293 558 OFFCURVE",
"299 549 OFFCURVE",
"303 539 CURVE",
"306 530 OFFCURVE",
"308 519 OFFCURVE",
"308 508 CURVE",
"309 191 LINE",
"309 180 OFFCURVE",
"307 170 OFFCURVE",
"303 160 CURVE",
"299 150 OFFCURVE",
"294 142 OFFCURVE",
"287 134 CURVE",
"280 127 OFFCURVE",
"272 121 OFFCURVE",
"263 117 CURVE",
"254 113 OFFCURVE",
"244 111 OFFCURVE",
"234 111 CURVE"
);
},
{
closed = 1;
nodes = (
"221 707 OFFCURVE",
"208 706 OFFCURVE",
"196 704 CURVE",
"183 701 OFFCURVE",
"171 697 OFFCURVE",
"159 692 CURVE",
"147 687 OFFCURVE",
"136 681 OFFCURVE",
"125 674 CURVE",
"115 666 OFFCURVE",
"105 658 OFFCURVE",
"96 648 CURVE",
"87 639 OFFCURVE",
"78 629 OFFCURVE",
"71 618 CURVE",
"65 607 OFFCURVE",
"59 596 OFFCURVE",
"54 584 CURVE",
"49 572 OFFCURVE",
"45 560 OFFCURVE",
"43 547 CURVE",
"40 535 OFFCURVE",
"39 522 OFFCURVE",
"39 508 CURVE",
"38 191 LINE",
"38 178 OFFCURVE",
"39 165 OFFCURVE",
"42 152 CURVE",
"44 139 OFFCURVE",
"48 127 OFFCURVE",
"53 115 CURVE",
"57 103 OFFCURVE",
"63 91 OFFCURVE",
"70 80 CURVE",
"77 69 OFFCURVE",
"85 59 OFFCURVE",
"94 50 CURVE",
"104 40 OFFCURVE",
"114 31 OFFCURVE",
"124 24 CURVE",
"135 16 OFFCURVE",
"146 10 OFFCURVE",
"158 5 CURVE",
"170 0 OFFCURVE",
"182 -4 OFFCURVE",
"195 -6 CURVE",
"208 -9 OFFCURVE",
"221 -10 OFFCURVE",
"234 -10 CURVE",
"241 -10 OFFCURVE",
"247 -10 OFFCURVE",
"254 -9 CURVE",
"260 -9 OFFCURVE",
"267 -8 OFFCURVE",
"273 -6 CURVE",
"279 -5 OFFCURVE",
"286 -4 OFFCURVE",
"292 -2 CURVE",
"298 0 OFFCURVE",
"304 3 OFFCURVE",
"310 5 CURVE",
"316 8 OFFCURVE",
"322 11 OFFCURVE",
"327 14 CURVE",
"333 17 OFFCURVE",
"338 20 OFFCURVE",
"344 24 CURVE",
"349 28 OFFCURVE",
"354 32 OFFCURVE",
"359 36 CURVE",
"364 40 OFFCURVE",
"369 45 OFFCURVE",
"374 50 CURVE",
"376 52 OFFCURVE",
"379 55 OFFCURVE",
"381 58 CURVE",
"384 61 OFFCURVE",
"386 64 OFFCURVE",
"388 67 CURVE",
"391 70 OFFCURVE",
"393 73 OFFCURVE",
"395 76 CURVE",
"397 79 OFFCURVE",
"399 82 OFFCURVE",
"401 85 CURVE",
"406 93 OFFCURVE",
"410 102 OFFCURVE",
"414 110 CURVE",
"417 118 OFFCURVE",
"420 127 OFFCURVE",
"423 136 CURVE",
"425 145 OFFCURVE",
"427 154 OFFCURVE",
"428 163 CURVE",
"429 172 OFFCURVE",
"430 182 OFFCURVE",
"430 191 CURVE",
"429 508 LINE",
"429 522 OFFCURVE",
"428 535 OFFCURVE",
"425 547 CURVE",
"423 560 OFFCURVE",
"419 572 OFFCURVE",
"414 584 CURVE",
"410 596 OFFCURVE",
"404 607 OFFCURVE",
"397 618 CURVE",
"390 629 OFFCURVE",
"382 639 OFFCURVE",
"373 648 CURVE",
"363 658 OFFCURVE",
"353 666 OFFCURVE",
"343 674 CURVE",
"332 681 OFFCURVE",
"321 687 OFFCURVE",
"309 692 CURVE",
"297 697 OFFCURVE",
"285 701 OFFCURVE",
"273 704 CURVE",
"260 706 OFFCURVE",
"247 707 OFFCURVE",
"234 707 CURVE"
);
}
);
width = 600;
},
{
associatedMasterId = "105671D0-52CD-46B5-9B81-8ED8F76D0899";
layerId = "A9A5623E-6E5B-444D-90BC-23AD21E51430";
name = "May 28 18, 12:48";
paths = (
{
closed = 1;
nodes = (
"196 111 OFFCURVE",
"159 143 OFFCURVE",
"159 191 CURVE",
"159 508 LINE",
"159 549 OFFCURVE",
"188 587 OFFCURVE",
"234 587 CURVE",
"277 587 OFFCURVE",
"308 551 OFFCURVE",
"308 508 CURVE",
"309 191 LINE",
"309 154 OFFCURVE",
"279 111 OFFCURVE",
"234 111 CURVE"
);
},
{
closed = 1;
nodes = (
"124 707 OFFCURVE",
"38 614 OFFCURVE",
"38 508 CURVE",
"37 191 LINE",
"37 80 OFFCURVE",
"127 -10 OFFCURVE",
"234 -10 CURVE",
"340 -10 OFFCURVE",
"430 79 OFFCURVE",
"430 191 CURVE",
"429 508 LINE",
"429 619 OFFCURVE",
"340 707 OFFCURVE",
"234 707 CURVE"
);
}
);
width = 478;
},
{
associatedMasterId = "105671D0-52CD-46B5-9B81-8ED8F76D0899";
layerId = "5E643AA2-3661-4D65-8158-6F8026DD83E5";
name = "Aug 8 18, 15:59";
paths = (
{
closed = 1;
nodes = (
"193 111 OFFCURVE",
"156 143 OFFCURVE",
"156 191 CURVE",
"156 508 LINE",
"156 549 OFFCURVE",
"185 587 OFFCURVE",
"231 587 CURVE",
"274 587 OFFCURVE",
"305 551 OFFCURVE",
"305 508 CURVE",
"306 191 LINE",
"306 152 OFFCURVE",
"276 111 OFFCURVE",
"231 111 CURVE"
);
},
{
closed = 1;
nodes = (
"121 707 OFFCURVE",
"35 614 OFFCURVE",
"35 508 CURVE",
"34 191 LINE",
"34 80 OFFCURVE",
"124 -10 OFFCURVE",
"231 -10 CURVE",
"337 -10 OFFCURVE",
"427 79 OFFCURVE",
"427 191 CURVE",
"426 508 LINE",
"426 619 OFFCURVE",
"337 707 OFFCURVE",
"231 707 CURVE"
);
},
{
closed = 1;
nodes = (
"351 -39 LINE",
"353 -41 OFFCURVE",
"355 -41 OFFCURVE",
"358 -39 CURVE",
"437 40 LINE",
"439 42 OFFCURVE",
"438 45 OFFCURVE",
"436 47 CURVE",
"391 92 LINE",
"305 7 LINE"
);
}
);
width = 475;
}
);
leftKerningGroup = O;
leftMetricsKey = O;
rightKerningGroup = O;
unicode = 0051;
},
{
glyphname = R;
lastChange = "2018-10-09 15:01:31 +0000";
layers = (
{
anchors = (
{
name = bottom;
position = "{236, -11}";
},
{
name = top;
position = "{231, 835}";
}
);
layerId = "105671D0-52CD-46B5-9B81-8ED8F76D0899";
paths = (
{
closed = 1;
nodes = (
"157 0 LINE SMOOTH",
"160 0 OFFCURVE",
"161 1 OFFCURVE",
"161 5 CURVE SMOOTH",
"162 299 LINE",
"228 299 LINE SMOOTH",
"277 299 OFFCURVE",
"316 258 OFFCURVE",
"316 210 CURVE SMOOTH",
"316 3 LINE SMOOTH",
"316 1 OFFCURVE",
"317 0 OFFCURVE",
"320 0 CURVE SMOOTH",
"433 0 LINE SMOOTH",
"436 0 OFFCURVE",
"438 1 OFFCURVE",
"438 5 CURVE",
"437 210 LINE",
"437 264 OFFCURVE",
"419 311 OFFCURVE",
"383 351 CURVE",
"406 371 OFFCURVE",
"447 424 OFFCURVE",
"447 498 CURVE SMOOTH",
"447 609 OFFCURVE",
"356 696 OFFCURVE",
"248 696 CURVE SMOOTH",
"46 696 LINE SMOOTH",
"43 696 OFFCURVE",
"42 695 OFFCURVE",
"42 692 CURVE SMOOTH",
"40 5 LINE SMOOTH",
"40 2 OFFCURVE",
"41 0 OFFCURVE",
"44 0 CURVE SMOOTH"
);
},
{
closed = 1;
nodes = (
"162 576 LINE",
"248 576 LINE SMOOTH",
"291 576 OFFCURVE",
"327 541 OFFCURVE",
"327 498 CURVE SMOOTH",
"327 454 OFFCURVE",
"289 419 OFFCURVE",
"248 419 CURVE SMOOTH",
"162 419 LINE"
);
}
);
width = 482;
}
);
leftKerningGroup = H;
leftMetricsKey = H;
rightKerningGroup = R;
unicode = 0052;
},
{
glyphname = S;
lastChange = "2018-10-09 15:01:31 +0000";
layers = (
{
anchors = (
{
name = bottom;
position = "{215, -11}";
},
{
name = top;
position = "{208, 835}";
}
);
background = {
paths = (
{
closed = 1;
nodes = (
"14 81 OFFCURVE",
"101 -10 OFFCURVE",
"210 -10 CURVE SMOOTH",
"317 -10 OFFCURVE",
"406 76 OFFCURVE",
"406 191 CURVE SMOOTH",
"406 270 OFFCURVE",
"365 321 OFFCURVE",
"298 359 CURVE SMOOTH",
"291 363 OFFCURVE",
"213 405 OFFCURVE",
"200 412 CURVE SMOOTH",
"151 439 OFFCURVE",
"135 465 OFFCURVE",
"135 509 CURVE SMOOTH",
"135 552 OFFCURVE",
"168 588 OFFCURVE",
"210 588 CURVE SMOOTH",
"250 588 OFFCURVE",
"284 556 OFFCURVE",
"284 509 CURVE",
"285 427 LINE",
"285 424 OFFCURVE",
"286 423 OFFCURVE",
"289 423 CURVE",
"401 423 LINE",
"404 423 OFFCURVE",
"405 425 OFFCURVE",
"405 427 CURVE",
"405 509 LINE",
"405 619 OFFCURVE",
"316 706 OFFCURVE",
"210 706 CURVE SMOOTH",
"105 706 OFFCURVE",
"15 621 OFFCURVE",
"15 509 CURVE SMOOTH",
"15 427 OFFCURVE",
"49 362 OFFCURVE",
"123 319 CURVE SMOOTH",
"163 296 OFFCURVE",
"215 267 OFFCURVE",
"237 255 CURVE SMOOTH",
"271 236 OFFCURVE",
"285 216 OFFCURVE",
"285 191 CURVE SMOOTH",
"285 148 OFFCURVE",
"251 111 OFFCURVE",
"210 111 CURVE SMOOTH",
"169 111 OFFCURVE",
"135 147 OFFCURVE",
"135 191 CURVE",
"135 237 LINE",
"135 240 OFFCURVE",
"134 242 OFFCURVE",
"131 242 CURVE SMOOTH",
"19 242 LINE",
"15 242 OFFCURVE",
"14 241 OFFCURVE",
"14 237 CURVE SMOOTH",
"14 191 LINE"
);
}
);
};
layerId = "105671D0-52CD-46B5-9B81-8ED8F76D0899";
paths = (
{
closed = 1;
nodes = (
"317 -10 OFFCURVE",
"406 76 OFFCURVE",
"406 191 CURVE SMOOTH",
"406 270 OFFCURVE",
"365 321 OFFCURVE",
"298 359 CURVE SMOOTH",
"291 363 OFFCURVE",
"213 405 OFFCURVE",
"200 412 CURVE SMOOTH",
"151 439 OFFCURVE",
"135 465 OFFCURVE",
"135 509 CURVE SMOOTH",
"135 552 OFFCURVE",
"168 588 OFFCURVE",
"210 588 CURVE SMOOTH",
"250 588 OFFCURVE",
"284 556 OFFCURVE",
"284 509 CURVE",
"285 427 LINE",
"285 424 OFFCURVE",
"286 423 OFFCURVE",
"289 423 CURVE",
"401 423 LINE",
"404 423 OFFCURVE",
"405 425 OFFCURVE",
"405 427 CURVE",
"405 509 LINE",
"405 619 OFFCURVE",
"316 706 OFFCURVE",
"210 706 CURVE SMOOTH",
"105 706 OFFCURVE",
"15 621 OFFCURVE",
"15 509 CURVE SMOOTH",
"15 427 OFFCURVE",
"49 362 OFFCURVE",
"123 319 CURVE SMOOTH",
"163 296 OFFCURVE",
"215 267 OFFCURVE",
"237 255 CURVE SMOOTH",
"271 236 OFFCURVE",
"285 216 OFFCURVE",
"285 191 CURVE SMOOTH",
"285 148 OFFCURVE",
"251 111 OFFCURVE",
"210 111 CURVE SMOOTH",
"169 111 OFFCURVE",
"135 147 OFFCURVE",
"135 191 CURVE",
"135 237 LINE",
"135 240 OFFCURVE",
"134 242 OFFCURVE",
"131 242 CURVE SMOOTH",
"19 242 LINE",
"15 242 OFFCURVE",
"14 241 OFFCURVE",
"14 237 CURVE SMOOTH",
"14 191 LINE",
"14 81 OFFCURVE",
"101 -10 OFFCURVE",
"210 -10 CURVE SMOOTH"
);
}
);
width = 436;
},
{
associatedMasterId = "105671D0-52CD-46B5-9B81-8ED8F76D0899";
layerId = "F590FC8B-66D6-470E-B1E3-F1E49A50AF10";
name = "May 24 18, 15:48";
paths = (
{
closed = 1;
nodes = (
"60 178 OFFCURVE",
"61 165 OFFCURVE",
"64 152 CURVE SMOOTH",
"67 139 OFFCURVE",
"70 127 OFFCURVE",
"74 115 CURVE SMOOTH",
"78 103 OFFCURVE",
"86 91 OFFCURVE",
"93 80 CURVE SMOOTH",
"99 70 OFFCURVE",
"107 59 OFFCURVE",
"117 50 CURVE SMOOTH",
"127 41 OFFCURVE",
"136 31 OFFCURVE",
"146 24 CURVE SMOOTH",
"157 17 OFFCURVE",
"168 11 OFFCURVE",
"180 5 CURVE SMOOTH",
"192 -1 OFFCURVE",
"205 -3 OFFCURVE",
"217 -6 CURVE SMOOTH",
"230 -9 OFFCURVE",
"243 -10 OFFCURVE",
"256 -10 CURVE SMOOTH",
"269 -10 OFFCURVE",
"282 -9 OFFCURVE",
"295 -6 CURVE SMOOTH",
"307 -3 OFFCURVE",
"320 0 OFFCURVE",
"332 5 CURVE SMOOTH",
"344 10 OFFCURVE",
"355 17 OFFCURVE",
"366 24 CURVE SMOOTH",
"376 31 OFFCURVE",
"386 40 OFFCURVE",
"396 50 CURVE SMOOTH",
"405 59 OFFCURVE",
"413 70 OFFCURVE",
"419 80 CURVE SMOOTH",
"426 91 OFFCURVE",
"433 103 OFFCURVE",
"438 115 CURVE SMOOTH",
"443 127 OFFCURVE",
"446 139 OFFCURVE",
"448 152 CURVE SMOOTH",
"450 165 OFFCURVE",
"452 178 OFFCURVE",
"452 191 CURVE SMOOTH",
"452 205 OFFCURVE",
"451 218 OFFCURVE",
"448 231 CURVE SMOOTH",
"445 243 OFFCURVE",
"442 255 OFFCURVE",
"437 265 CURVE SMOOTH",
"431 277 OFFCURVE",
"426 288 OFFCURVE",
"419 298 CURVE SMOOTH",
"412 308 OFFCURVE",
"403 317 OFFCURVE",
"393 325 CURVE SMOOTH",
"385 331 OFFCURVE",
"378 338 OFFCURVE",
"369 345 CURVE SMOOTH",
"362 351 OFFCURVE",
"353 355 OFFCURVE",
"344 360 CURVE SMOOTH",
"335 365 OFFCURVE",
"326 369 OFFCURVE",
"318 373 CURVE SMOOTH",
"291 385 LINE SMOOTH",
"282 389 OFFCURVE",
"275 393 OFFCURVE",
"267 397 CURVE SMOOTH",
"246 408 LINE SMOOTH",
"239 412 OFFCURVE",
"232 416 OFFCURVE",
"226 420 CURVE SMOOTH",
"219 425 OFFCURVE",
"214 429 OFFCURVE",
"209 433 CURVE SMOOTH",
"205 436 OFFCURVE",
"202 440 OFFCURVE",
"199 445 CURVE SMOOTH",
"196 449 OFFCURVE",
"193 453 OFFCURVE",
"191 459 CURVE SMOOTH",
"189 465 OFFCURVE",
"186 471 OFFCURVE",
"184 479 CURVE SMOOTH",
"182 488 OFFCURVE",
"181 497 OFFCURVE",
"181 507 CURVE SMOOTH",
"181 518 OFFCURVE",
"184 529 OFFCURVE",
"187 538 CURVE SMOOTH",
"190 548 OFFCURVE",
"197 556 OFFCURVE",
"204 564 CURVE SMOOTH",
"210 571 OFFCURVE",
"219 576 OFFCURVE",
"227 580 CURVE SMOOTH",
"236 585 OFFCURVE",
"246 586 OFFCURVE",
"256 586 CURVE SMOOTH",
"266 586 OFFCURVE",
"276 585 OFFCURVE",
"285 580 CURVE SMOOTH",
"294 575 OFFCURVE",
"302 571 OFFCURVE",
"308 564 CURVE SMOOTH",
"315 556 OFFCURVE",
"321 547 OFFCURVE",
"325 538 CURVE SMOOTH",
"329 529 OFFCURVE",
"331 518 OFFCURVE",
"331 507 CURVE SMOOTH",
"331 477 LINE",
"331 425 LINE SMOOTH",
"331 425 OFFCURVE",
"331 425 OFFCURVE",
"331 424 CURVE",
"332 422 LINE",
"333 422 OFFCURVE",
"333 422 OFFCURVE",
"333 421 CURVE",
"335 421 LINE",
"447 421 LINE SMOOTH",
"447 421 OFFCURVE",
"448 421 OFFCURVE",
"449 421 CURVE",
"450 422 LINE",
"451 423 OFFCURVE",
"451 424 OFFCURVE",
"451 424 CURVE",
"452 425 LINE",
"451 500 LINE",
"451 507 LINE SMOOTH",
"451 520 OFFCURVE",
"450 533 OFFCURVE",
"447 546 CURVE SMOOTH",
"444 558 OFFCURVE",
"441 571 OFFCURVE",
"436 583 CURVE SMOOTH",
"431 595 OFFCURVE",
"426 606 OFFCURVE",
"419 617 CURVE SMOOTH",
"412 627 OFFCURVE",
"404 638 OFFCURVE",
"394 647 CURVE SMOOTH",
"384 656 OFFCURVE",
"375 665 OFFCURVE",
"365 672 CURVE SMOOTH",
"354 679 OFFCURVE",
"343 685 OFFCURVE",
"331 691 CURVE SMOOTH",
"319 697 OFFCURVE",
"307 699 OFFCURVE",
"294 702 CURVE SMOOTH",
"282 705 OFFCURVE",
"269 706 OFFCURVE",
"256 706 CURVE SMOOTH",
"243 706 OFFCURVE",
"230 705 OFFCURVE",
"218 702 CURVE SMOOTH",
"205 699 OFFCURVE",
"193 696 OFFCURVE",
"181 691 CURVE SMOOTH",
"169 686 OFFCURVE",
"158 679 OFFCURVE",
"147 672 CURVE SMOOTH",
"137 665 OFFCURVE",
"126 657 OFFCURVE",
"118 647 CURVE SMOOTH",
"110 636 OFFCURVE",
"100 627 OFFCURVE",
"93 617 CURVE SMOOTH",
"86 606 OFFCURVE",
"80 595 OFFCURVE",
"76 583 CURVE SMOOTH",
"72 571 OFFCURVE",
"67 558 OFFCURVE",
"65 546 CURVE SMOOTH",
"63 533 OFFCURVE",
"61 520 OFFCURVE",
"61 507 CURVE SMOOTH",
"61 491 OFFCURVE",
"62 475 OFFCURVE",
"65 460 CURVE SMOOTH",
"68 445 OFFCURVE",
"72 431 OFFCURVE",
"77 418 CURVE SMOOTH",
"82 405 OFFCURVE",
"89 392 OFFCURVE",
"97 380 CURVE SMOOTH",
"105 368 OFFCURVE",
"114 358 OFFCURVE",
"125 347 CURVE SMOOTH",
"134 338 OFFCURVE",
"143 331 OFFCURVE",
"153 325 CURVE SMOOTH",
"163 319 OFFCURVE",
"172 311 OFFCURVE",
"181 305 CURVE SMOOTH",
"191 298 OFFCURVE",
"201 295 OFFCURVE",
"212 290 CURVE SMOOTH",
"240 277 LINE SMOOTH",
"247 274 OFFCURVE",
"254 271 OFFCURVE",
"261 267 CURVE SMOOTH",
"280 257 LINE SMOOTH",
"287 253 OFFCURVE",
"293 251 OFFCURVE",
"298 247 CURVE SMOOTH",
"303 243 OFFCURVE",
"308 240 OFFCURVE",
"312 236 CURVE SMOOTH",
"315 233 OFFCURVE",
"318 231 OFFCURVE",
"319 228 CURVE SMOOTH",
"320 224 OFFCURVE",
"325 222 OFFCURVE",
"326 218 CURVE SMOOTH",
"327 215 OFFCURVE",
"328 211 OFFCURVE",
"329 207 CURVE SMOOTH",
"330 202 OFFCURVE",
"331 197 OFFCURVE",
"331 191 CURVE SMOOTH",
"331 180 OFFCURVE",
"329 170 OFFCURVE",
"325 160 CURVE SMOOTH",
"321 151 OFFCURVE",
"316 142 OFFCURVE",
"309 135 CURVE SMOOTH",
"301 127 OFFCURVE",
"294 122 OFFCURVE",
"286 118 CURVE SMOOTH",
"276 113 OFFCURVE",
"266 111 OFFCURVE",
"256 111 CURVE SMOOTH",
"246 111 OFFCURVE",
"236 113 OFFCURVE",
"227 118 CURVE SMOOTH",
"218 123 OFFCURVE",
"211 127 OFFCURVE",
"203 135 CURVE SMOOTH",
"196 142 OFFCURVE",
"191 151 OFFCURVE",
"187 160 CURVE SMOOTH",
"183 170 OFFCURVE",
"181 180 OFFCURVE",
"181 191 CURVE SMOOTH",
"181 196 LINE",
"181 237 LINE SMOOTH",
"181 238 OFFCURVE",
"181 238 OFFCURVE",
"181 238 CURVE",
"180 240 LINE",
"179 241 OFFCURVE",
"179 241 OFFCURVE",
"179 241 CURVE",
"177 242 LINE",
"65 242 LINE SMOOTH",
"64 242 OFFCURVE",
"64 241 OFFCURVE",
"63 241 CURVE",
"61 240 LINE",
"61 240 OFFCURVE",
"61 239 OFFCURVE",
"60 238 CURVE",
"60 237 LINE",
"60 222 LINE",
"60 191 LINE SMOOTH"
);
},
{
closed = 1;
nodes = (
"181 196 OFFCURVE",
"181 196 OFFCURVE",
"181 196 CURVE SMOOTH"
);
},
{
closed = 1;
nodes = (
"331 500 OFFCURVE",
"331 500 OFFCURVE",
"331 500 CURVE"
);
}
);
width = 600;
},
{
associatedMasterId = "105671D0-52CD-46B5-9B81-8ED8F76D0899";
layerId = "91FA9237-FAF7-4126-B554-795A4CF8C8E2";
name = "May 24 18, 15:54";
paths = (
{
closed = 1;
nodes = (
"60 81 OFFCURVE",
"147 -10 OFFCURVE",
"256 -10 CURVE SMOOTH",
"363 -10 OFFCURVE",
"452 76 OFFCURVE",
"452 191 CURVE SMOOTH",
"452 270 OFFCURVE",
"411 325 OFFCURVE",
"344 360 CURVE SMOOTH",
"337 364 OFFCURVE",
"259 402 OFFCURVE",
"246 409 CURVE SMOOTH",
"197 436 OFFCURVE",
"181 462 OFFCURVE",
"181 507 CURVE SMOOTH",
"181 550 OFFCURVE",
"214 586 OFFCURVE",
"256 586 CURVE SMOOTH",
"296 586 OFFCURVE",
"330 554 OFFCURVE",
"330 507 CURVE",
"331 425 LINE",
"331 424 LINE SMOOTH",
"331 423 OFFCURVE",
"331 423 OFFCURVE",
"332 422 CURVE",
"332 422 OFFCURVE",
"333 422 OFFCURVE",
"333 421 CURVE",
"335 421 LINE",
"447 421 LINE",
"449 421 LINE",
"449 422 OFFCURVE",
"450 422 OFFCURVE",
"450 422 CURVE",
"450 423 OFFCURVE",
"451 423 OFFCURVE",
"451 424 CURVE SMOOTH",
"451 425 LINE",
"451 507 LINE",
"451 617 OFFCURVE",
"362 706 OFFCURVE",
"256 706 CURVE SMOOTH",
"151 706 OFFCURVE",
"61 619 OFFCURVE",
"61 507 CURVE SMOOTH",
"61 425 OFFCURVE",
"95 358 OFFCURVE",
"169 315 CURVE SMOOTH",
"209 292 OFFCURVE",
"261 267 OFFCURVE",
"283 255 CURVE SMOOTH",
"317 236 OFFCURVE",
"331 220 OFFCURVE",
"331 191 CURVE SMOOTH",
"331 148 OFFCURVE",
"297 111 OFFCURVE",
"256 111 CURVE SMOOTH",
"215 111 OFFCURVE",
"181 147 OFFCURVE",
"181 191 CURVE",
"181 237 LINE",
"181 238 OFFCURVE",
"181 238 OFFCURVE",
"181 239 CURVE",
"180 240 LINE",
"180 241 OFFCURVE",
"179 241 OFFCURVE",
"179 241 CURVE SMOOTH",
"178 241 OFFCURVE",
"178 242 OFFCURVE",
"177 242 CURVE SMOOTH",
"65 242 LINE SMOOTH",
"64 242 OFFCURVE",
"64 241 OFFCURVE",
"63 241 CURVE SMOOTH",
"62 241 OFFCURVE",
"62 241 OFFCURVE",
"62 240 CURVE",
"61 240 OFFCURVE",
"61 239 OFFCURVE",
"61 239 CURVE",
"60 238 OFFCURVE",
"60 238 OFFCURVE",
"60 237 CURVE SMOOTH",
"60 191 LINE"
);
}
);
width = 600;
},
{
associatedMasterId = "105671D0-52CD-46B5-9B81-8ED8F76D0899";
layerId = "AFE6DAF2-01AF-4F7C-838B-A124F065DB83";
name = "Aug 8 18, 17:51";
paths = (
{
closed = 1;
nodes = (
"22 81 OFFCURVE",
"109 -10 OFFCURVE",
"218 -10 CURVE SMOOTH",
"325 -10 OFFCURVE",
"414 76 OFFCURVE",
"414 191 CURVE SMOOTH",
"414 270 OFFCURVE",
"373 321 OFFCURVE",
"306 359 CURVE SMOOTH",
"299 363 OFFCURVE",
"221 405 OFFCURVE",
"208 412 CURVE SMOOTH",
"159 439 OFFCURVE",
"143 465 OFFCURVE",
"143 509 CURVE SMOOTH",
"143 552 OFFCURVE",
"176 588 OFFCURVE",
"218 588 CURVE SMOOTH",
"258 588 OFFCURVE",
"292 556 OFFCURVE",
"292 509 CURVE",
"293 427 LINE",
"293 424 OFFCURVE",
"294 423 OFFCURVE",
"297 423 CURVE",
"409 423 LINE",
"412 423 OFFCURVE",
"413 425 OFFCURVE",
"413 427 CURVE",
"413 509 LINE",
"413 619 OFFCURVE",
"324 706 OFFCURVE",
"218 706 CURVE SMOOTH",
"113 706 OFFCURVE",
"23 621 OFFCURVE",
"23 509 CURVE SMOOTH",
"23 427 OFFCURVE",
"57 362 OFFCURVE",
"131 319 CURVE SMOOTH",
"171 296 OFFCURVE",
"223 267 OFFCURVE",
"245 255 CURVE SMOOTH",
"279 236 OFFCURVE",
"293 216 OFFCURVE",
"293 191 CURVE SMOOTH",
"293 148 OFFCURVE",
"259 111 OFFCURVE",
"218 111 CURVE SMOOTH",
"177 111 OFFCURVE",
"143 147 OFFCURVE",
"143 191 CURVE",
"143 237 LINE",
"143 240 OFFCURVE",
"142 242 OFFCURVE",
"139 242 CURVE SMOOTH",
"27 242 LINE",
"23 242 OFFCURVE",
"22 241 OFFCURVE",
"22 237 CURVE SMOOTH",
"22 191 LINE"
);
}
);
width = 445;
}
);
leftKerningGroup = S;
rightKerningGroup = S;
unicode = 0053;
},
{
glyphname = S.alt1;
lastChange = "2018-10-09 15:01:31 +0000";
layers = (
{
anchors = (
{
name = top;
position = "{156, 835}";
}
);
layerId = "105671D0-52CD-46B5-9B81-8ED8F76D0899";
paths = (
{
closed = 1;
nodes = (
"228 -9 OFFCURVE",
"290 53 OFFCURVE",
"290 135 CURVE SMOOTH",
"290 208 OFFCURVE",
"252 274 OFFCURVE",
"213 364 CURVE SMOOTH",
"165 474 OFFCURVE",
"135 526 OFFCURVE",
"135 563 CURVE SMOOTH",
"135 572 OFFCURVE",
"138 585 OFFCURVE",
"156 585 CURVE SMOOTH",
"168 585 OFFCURVE",
"177 576 OFFCURVE",
"177 561 CURVE",
"179 466 LINE",
"179 464 OFFCURVE",
"180 462 OFFCURVE",
"183 462 CURVE",
"288 462 LINE",
"291 462 OFFCURVE",
"292 464 OFFCURVE",
"292 466 CURVE",
"292 565 LINE SMOOTH",
"292 643 OFFCURVE",
"236 706 OFFCURVE",
"154 706 CURVE SMOOTH",
"78 706 OFFCURVE",
"18 646 OFFCURVE",
"18 565 CURVE SMOOTH",
"18 489 OFFCURVE",
"48 425 OFFCURVE",
"101 322 CURVE SMOOTH",
"139 248 OFFCURVE",
"172 177 OFFCURVE",
"172 133 CURVE SMOOTH",
"172 122 OFFCURVE",
"163 113 OFFCURVE",
"150 113 CURVE SMOOTH",
"138 113 OFFCURVE",
"130 123 OFFCURVE",
"130 133 CURVE SMOOTH",
"128 235 LINE",
"128 237 OFFCURVE",
"127 238 OFFCURVE",
"124 238 CURVE",
"19 238 LINE",
"16 238 OFFCURVE",
"15 237 OFFCURVE",
"15 235 CURVE",
"15 133 LINE SMOOTH",
"15 55 OFFCURVE",
"78 -9 OFFCURVE",
"154 -9 CURVE SMOOTH"
);
}
);
width = 321;
}
);
},
{
glyphname = T;
lastChange = "2018-10-09 15:01:31 +0000";
layers = (
{
anchors = (
{
name = bottom;
position = "{183, -11}";
},
{
name = top;
position = "{194, 835}";
}
);
layerId = "105671D0-52CD-46B5-9B81-8ED8F76D0899";
paths = (
{
closed = 1;
nodes = (
"253 0 LINE SMOOTH",
"256 0 OFFCURVE",
"257 2 OFFCURVE",
"257 5 CURVE",
"256 575 LINE",
"387 575 LINE SMOOTH",
"389 575 OFFCURVE",
"391 577 OFFCURVE",
"391 580 CURVE SMOOTH",
"391 692 LINE SMOOTH",
"391 695 OFFCURVE",
"389 696 OFFCURVE",
"386 696 CURVE SMOOTH",
"6 696 LINE SMOOTH",
"4 696 OFFCURVE",
"2 694 OFFCURVE",
"2 692 CURVE SMOOTH",
"1 580 LINE SMOOTH",
"1 576 OFFCURVE",
"3 575 OFFCURVE",
"6 575 CURVE SMOOTH",
"136 575 LINE",
"136 5 LINE SMOOTH",
"136 2 OFFCURVE",
"137 0 OFFCURVE",
"140 0 CURVE SMOOTH"
);
}
);
width = 400;
},
{
associatedMasterId = "105671D0-52CD-46B5-9B81-8ED8F76D0899";
layerId = "81677F75-C1D0-4994-A160-875B2238E343";
name = "May 22 18, 14:58";
paths = (
{
closed = 1;
nodes = (
"167 575 LINE",
"167 5 LINE",
"167 2 OFFCURVE",
"168 0 OFFCURVE",
"171 0 CURVE",
"284 0 LINE",
"287 0 OFFCURVE",
"288 2 OFFCURVE",
"288 5 CURVE",
"287 575 LINE"
);
},
{
closed = 1;
nodes = (
"37 696 LINE",
"35 696 OFFCURVE",
"33 694 OFFCURVE",
"33 692 CURVE",
"32 580 LINE",
"32 576 OFFCURVE",
"34 575 OFFCURVE",
"37 575 CURVE",
"167 575 LINE",
"287 575 LINE",
"418 575 LINE",
"420 575 OFFCURVE",
"422 577 OFFCURVE",
"422 580 CURVE",
"422 692 LINE",
"422 695 OFFCURVE",
"420 696 OFFCURVE",
"417 696 CURVE"
);
}
);
width = 600;
}
);
leftKerningGroup = T;
rightKerningGroup = T;
unicode = 0054;
},
{
glyphname = Tbar;
lastChange = "2018-10-09 15:01:31 +0000";
layers = (
{
components = (
{
name = T;
}
);
layerId = "105671D0-52CD-46B5-9B81-8ED8F76D0899";
paths = (
{
closed = 1;
nodes = (
"343 310 LINE",
"346 310 OFFCURVE",
"347 312 OFFCURVE",
"347 315 CURVE",
"347 419 LINE",
"347 422 OFFCURVE",
"345 424 OFFCURVE",
"343 424 CURVE",
"53 424 LINE",
"50 424 OFFCURVE",
"48 422 OFFCURVE",
"48 419 CURVE",
"48 315 LINE",
"48 312 OFFCURVE",
"49 310 OFFCURVE",
"52 310 CURVE"
);
}
);
width = 400;
}
);
leftKerningGroup = T;
rightKerningGroup = T;
unicode = 0166;
},
{
glyphname = Tcommaaccent;
lastChange = "2018-10-09 15:01:31 +0000";
layers = (
{
anchors = (
{
name = _bottom;
position = "{199, -11}";
}
);
components = (
{
name = T;
}
);
layerId = "105671D0-52CD-46B5-9B81-8ED8F76D0899";
paths = (
{
closed = 1;
nodes = (
"201 -295 OFFCURVE",
"258 -240 OFFCURVE",
"258 -169 CURVE SMOOTH",
"258 -53 LINE",
"258 -50 OFFCURVE",
"256 -49 OFFCURVE",
"254 -49 CURVE",
"141 -49 LINE",
"138 -49 OFFCURVE",
"137 -50 OFFCURVE",
"137 -53 CURVE",
"137 -165 LINE",
"137 -168 OFFCURVE",
"139 -169 OFFCURVE",
"141 -169 CURVE",
"197 -169 LINE",
"197 -204 OFFCURVE",
"170 -233 OFFCURVE",
"137 -233 CURVE",
"137 -295 LINE"
);
}
);
width = 400;
}
);
leftKerningGroup = T;
rightKerningGroup = T;
unicode = 021A;
},
{
glyphname = U;
lastChange = "2018-10-09 15:01:31 +0000";
layers = (
{
anchors = (
{
name = ogonek;
position = "{220, -12}";
},
{
name = top;
position = "{221, 835}";
}
);
layerId = "105671D0-52CD-46B5-9B81-8ED8F76D0899";
paths = (
{
closed = 1;
nodes = (
"333 -10 OFFCURVE",
"421 80 OFFCURVE",
"421 192 CURVE",
"419 692 LINE",
"419 695 OFFCURVE",
"418 696 OFFCURVE",
"415 696 CURVE",
"303 696 LINE",
"300 696 OFFCURVE",
"299 695 OFFCURVE",
"299 692 CURVE",
"299 192 LINE",
"299 146 OFFCURVE",
"267 111 OFFCURVE",
"224 111 CURVE SMOOTH",
"182 111 OFFCURVE",
"150 146 OFFCURVE",
"150 192 CURVE",
"150 692 LINE",
"150 695 OFFCURVE",
"149 696 OFFCURVE",
"146 696 CURVE",
"34 696 LINE",
"31 696 OFFCURVE",
"30 695 OFFCURVE",
"30 692 CURVE",
"28 192 LINE",
"28 82 OFFCURVE",
"117 -10 OFFCURVE",
"224 -10 CURVE SMOOTH"
);
}
);
width = 460;
},
{
associatedMasterId = "105671D0-52CD-46B5-9B81-8ED8F76D0899";
layerId = "C8D98FA5-0421-47F9-9EC1-1D369D28FE36";
name = "compare O";
paths = (
{
closed = 1;
nodes = (
"196 111 OFFCURVE",
"159 143 OFFCURVE",
"159 191 CURVE",
"159 508 LINE",
"159 549 OFFCURVE",
"188 587 OFFCURVE",
"234 587 CURVE",
"277 587 OFFCURVE",
"308 551 OFFCURVE",
"308 508 CURVE",
"309 191 LINE",
"309 154 OFFCURVE",
"279 111 OFFCURVE",
"234 111 CURVE"
);
},
{
closed = 1;
nodes = (
"124 707 OFFCURVE",
"38 614 OFFCURVE",
"38 508 CURVE",
"37 191 LINE",
"37 80 OFFCURVE",
"127 -10 OFFCURVE",
"234 -10 CURVE",
"340 -10 OFFCURVE",
"430 79 OFFCURVE",
"430 191 CURVE",
"429 508 LINE",
"429 619 OFFCURVE",
"340 707 OFFCURVE",
"234 707 CURVE"
);
}
);
width = 467;
},
{
associatedMasterId = "105671D0-52CD-46B5-9B81-8ED8F76D0899";
layerId = "F0DE74CA-6AD1-4DC7-9F08-19F14B63EBBC";
name = "May 28 18, 12:53";
paths = (
{
closed = 1;
nodes = (
"37 81 OFFCURVE",
"127 -10 OFFCURVE",
"233 -10 CURVE SMOOTH",
"345 -10 OFFCURVE",
"430 83 OFFCURVE",
"430 192 CURVE",
"428 692 LINE",
"428 695 OFFCURVE",
"427 696 OFFCURVE",
"424 696 CURVE",
"312 696 LINE",
"309 696 OFFCURVE",
"308 695 OFFCURVE",
"308 692 CURVE",
"308 192 LINE",
"308 147 OFFCURVE",
"277 112 OFFCURVE",
"233 112 CURVE SMOOTH",
"194 112 OFFCURVE",
"159 143 OFFCURVE",
"159 192 CURVE",
"159 692 LINE",
"159 695 OFFCURVE",
"158 696 OFFCURVE",
"155 696 CURVE",
"43 696 LINE",
"40 696 OFFCURVE",
"39 695 OFFCURVE",
"39 692 CURVE",
"37 192 LINE"
);
}
);
width = 467;
}
);
leftKerningGroup = U;
leftMetricsKey = O;
rightKerningGroup = U;
rightMetricsKey = "=O+3";
unicode = 0055;
},
{
glyphname = V;
lastChange = "2018-10-09 15:01:31 +0000";
layers = (
{
anchors = (
{
name = top;
position = "{206, 835}";
}
);
layerId = "105671D0-52CD-46B5-9B81-8ED8F76D0899";
paths = (
{
closed = 1;
nodes = (
"273 0 LINE",
"275 0 OFFCURVE",
"277 0 OFFCURVE",
"278 5 CURVE",
"414 692 LINE",
"415 696 OFFCURVE",
"413 696 OFFCURVE",
"410 696 CURVE",
"298 696 LINE",
"296 696 OFFCURVE",
"294 696 OFFCURVE",
"293 692 CURVE",
"213 234 LINE",
"131 692 LINE",
"130 696 OFFCURVE",
"128 696 OFFCURVE",
"126 696 CURVE",
"13 696 LINE",
"11 696 OFFCURVE",
"8 696 OFFCURVE",
"9 692 CURVE",
"147 5 LINE",
"148 1 OFFCURVE",
"150 0 OFFCURVE",
"152 0 CURVE"
);
}
);
width = 433;
},
{
associatedMasterId = "105671D0-52CD-46B5-9B81-8ED8F76D0899";
layerId = "58B455ED-7857-4519-8F57-56E05DB435E4";
name = "May 24 18, 16:02";
paths = (
{
closed = 1;
nodes = (
"322 696 LINE",
"321 696 OFFCURVE",
"321 696 OFFCURVE",
"320 696 CURVE",
"319 695 OFFCURVE",
"319 695 OFFCURVE",
"318 695 CURVE",
"318 694 OFFCURVE",
"318 694 OFFCURVE",
"317 693 CURVE",
"317 693 OFFCURVE",
"317 692 OFFCURVE",
"317 692 CURVE",
"235 184 LINE",
"265 5 LINE",
"265 4 OFFCURVE",
"265 3 OFFCURVE",
"264 3 CURVE",
"264 2 OFFCURVE",
"264 2 OFFCURVE",
"264 2 CURVE",
"263 1 OFFCURVE",
"263 1 OFFCURVE",
"263 1 CURVE",
"262 0 OFFCURVE",
"262 0 OFFCURVE",
"261 0 CURVE",
"210 0 LINE",
"296 0 LINE",
"297 0 OFFCURVE",
"297 0 OFFCURVE",
"298 1 CURVE",
"298 1 OFFCURVE",
"299 1 OFFCURVE",
"299 2 CURVE",
"300 2 OFFCURVE",
"300 2 OFFCURVE",
"301 3 CURVE",
"301 3 OFFCURVE",
"301 4 OFFCURVE",
"301 5 CURVE",
"437 692 LINE",
"437 692 OFFCURVE",
"437 693 OFFCURVE",
"437 693 CURVE",
"437 694 OFFCURVE",
"436 694 OFFCURVE",
"436 695 CURVE",
"436 695 OFFCURVE",
"435 695 OFFCURVE",
"435 696 CURVE",
"434 696 OFFCURVE",
"434 696 OFFCURVE",
"433 696 CURVE"
);
},
{
closed = 1;
nodes = (
"36 696 LINE",
"35 696 OFFCURVE",
"35 696 OFFCURVE",
"34 696 CURVE",
"34 695 OFFCURVE",
"33 695 OFFCURVE",
"33 695 CURVE",
"33 694 OFFCURVE",
"32 694 OFFCURVE",
"32 693 CURVE",
"32 693 OFFCURVE",
"32 692 OFFCURVE",
"32 692 CURVE",
"170 5 LINE",
"170 4 OFFCURVE",
"170 3 OFFCURVE",
"171 3 CURVE",
"171 2 OFFCURVE",
"171 2 OFFCURVE",
"172 2 CURVE",
"172 1 OFFCURVE",
"173 1 OFFCURVE",
"174 1 CURVE",
"174 0 OFFCURVE",
"175 0 OFFCURVE",
"175 0 CURVE",
"210 0 LINE",
"261 0 LINE",
"262 0 OFFCURVE",
"262 0 OFFCURVE",
"263 1 CURVE",
"263 1 OFFCURVE",
"263 1 OFFCURVE",
"264 2 CURVE",
"264 2 OFFCURVE",
"264 2 OFFCURVE",
"264 3 CURVE",
"265 3 OFFCURVE",
"265 4 OFFCURVE",
"265 5 CURVE",
"235 184 LINE",
"152 692 LINE",
"152 692 OFFCURVE",
"152 693 OFFCURVE",
"152 693 CURVE",
"151 694 OFFCURVE",
"151 694 OFFCURVE",
"151 695 CURVE",
"150 695 OFFCURVE",
"150 695 OFFCURVE",
"149 696 CURVE",
"148 696 OFFCURVE",
"148 696 OFFCURVE",
"147 696 CURVE"
);
}
);
width = 600;
},
{
associatedMasterId = "105671D0-52CD-46B5-9B81-8ED8F76D0899";
layerId = "3A83661D-441D-4204-A7C2-58AE72F1CC3E";
name = "Aug 8 18, 16:59";
paths = (
{
closed = 1;
nodes = (
"147 5 LINE",
"148 1 OFFCURVE",
"150 0 OFFCURVE",
"152 0 CURVE",
"273 0 LINE",
"275 0 OFFCURVE",
"277 0 OFFCURVE",
"278 5 CURVE",
"414 692 LINE",
"415 696 OFFCURVE",
"413 696 OFFCURVE",
"410 696 CURVE",
"299 696 LINE",
"297 696 OFFCURVE",
"295 696 OFFCURVE",
"294 692 CURVE",
"212 184 LINE",
"129 692 LINE",
"128 696 OFFCURVE",
"126 696 OFFCURVE",
"124 696 CURVE",
"13 696 LINE",
"11 696 OFFCURVE",
"8 696 OFFCURVE",
"9 692 CURVE"
);
}
);
width = 424;
},
{
associatedMasterId = "105671D0-52CD-46B5-9B81-8ED8F76D0899";
layerId = "757979E6-F229-4509-8A02-7D8BD49EFD38";
name = "Aug 10 18, 13:49";
paths = (
{
closed = 1;
nodes = (
"148 5 LINE",
"149 1 OFFCURVE",
"151 0 OFFCURVE",
"153 0 CURVE",
"274 0 LINE",
"276 0 OFFCURVE",
"278 0 OFFCURVE",
"279 5 CURVE",
"415 692 LINE",
"416 696 OFFCURVE",
"414 696 OFFCURVE",
"411 696 CURVE",
"300 696 LINE",
"298 696 OFFCURVE",
"296 696 OFFCURVE",
"295 692 CURVE",
"213 212 LINE",
"130 692 LINE",
"129 696 OFFCURVE",
"127 696 OFFCURVE",
"125 696 CURVE",
"14 696 LINE",
"12 696 OFFCURVE",
"9 696 OFFCURVE",
"10 692 CURVE"
);
}
);
visible = 1;
width = 435;
},
{
associatedMasterId = "105671D0-52CD-46B5-9B81-8ED8F76D0899";
layerId = "8942A775-D870-419A-94FB-3ACCFE673BF9";
name = "Aug 13 18, 15:01";
paths = (
{
closed = 1;
nodes = (
"148 5 LINE",
"149 1 OFFCURVE",
"151 0 OFFCURVE",
"153 0 CURVE",
"274 0 LINE",
"276 0 OFFCURVE",
"278 0 OFFCURVE",
"279 5 CURVE",
"415 692 LINE",
"416 696 OFFCURVE",
"414 696 OFFCURVE",
"411 696 CURVE",
"300 696 LINE",
"298 696 OFFCURVE",
"296 696 OFFCURVE",
"295 692 CURVE",
"213 209 LINE",
"130 692 LINE",
"129 696 OFFCURVE",
"127 696 OFFCURVE",
"125 696 CURVE",
"14 696 LINE",
"12 696 OFFCURVE",
"9 696 OFFCURVE",
"10 692 CURVE"
);
}
);
width = 435;
}
);
leftKerningGroup = V;
rightKerningGroup = V;
unicode = 0056;
},
{
glyphname = W;
lastChange = "2018-10-10 21:54:41 +0000";
layers = (
{
anchors = (
{
name = top;
position = "{309, 835}";
}
);
layerId = "105671D0-52CD-46B5-9B81-8ED8F76D0899";
paths = (
{
closed = 1;
nodes = (
"253 0 LINE",
"255 0 OFFCURVE",
"257 0 OFFCURVE",
"258 5 CURVE",
"309 364 LINE",
"360 5 LINE",
"361 2 OFFCURVE",
"363 0 OFFCURVE",
"365 0 CURVE SMOOTH",
"486 0 LINE",
"486 0 OFFCURVE",
"490 2 OFFCURVE",
"491 5 CURVE",
"610 692 LINE",
"611 696 OFFCURVE",
"609 696 OFFCURVE",
"606 696 CURVE",
"495 696 LINE",
"493 696 OFFCURVE",
"491 696 OFFCURVE",
"490 692 CURVE",
"425 240 LINE",
"360 692 LINE",
"359 696 OFFCURVE",
"358 696 OFFCURVE",
"355 696 CURVE SMOOTH",
"265 696 LINE",
"262 696 OFFCURVE",
"260 695 OFFCURVE",
"259 692 CURVE",
"193 240 LINE",
"129 692 LINE",
"128 696 OFFCURVE",
"126 696 OFFCURVE",
"124 696 CURVE",
"12 696 LINE",
"10 696 OFFCURVE",
"8 696 OFFCURVE",
"9 692 CURVE",
"127 5 LINE",
"128 0 OFFCURVE",
"130 0 OFFCURVE",
"132 0 CURVE"
);
}
);
width = 629;
},
{
associatedMasterId = "105671D0-52CD-46B5-9B81-8ED8F76D0899";
layerId = "738EE607-6E82-4595-901A-4AD20B5460E1";
name = "May 22 18, 14:28";
paths = (
{
closed = 1;
nodes = (
"264 696 LINE",
"263 696 OFFCURVE",
"263 696 OFFCURVE",
"262 696 CURVE",
"262 695 OFFCURVE",
"261 695 OFFCURVE",
"261 695 CURVE",
"260 694 OFFCURVE",
"260 694 OFFCURVE",
"259 693 CURVE",
"259 693 OFFCURVE",
"259 692 OFFCURVE",
"259 692 CURVE",
"193 240 LINE",
"226 5 LINE",
"226 4 OFFCURVE",
"226 3 OFFCURVE",
"226 3 CURVE",
"225 2 OFFCURVE",
"225 2 OFFCURVE",
"225 2 CURVE",
"224 1 OFFCURVE",
"224 1 OFFCURVE",
"223 1 CURVE",
"223 0 OFFCURVE",
"222 0 OFFCURVE",
"222 0 CURVE",
"162 0 LINE",
"253 0 LINE",
"253 0 OFFCURVE",
"254 0 OFFCURVE",
"254 1 CURVE",
"255 1 OFFCURVE",
"255 1 OFFCURVE",
"256 2 CURVE",
"256 2 OFFCURVE",
"257 2 OFFCURVE",
"257 3 CURVE",
"257 3 OFFCURVE",
"257 4 OFFCURVE",
"258 5 CURVE",
"309 364 LINE",
"263 692 LINE",
"263 692 OFFCURVE",
"263 693 OFFCURVE",
"263 693 CURVE",
"263 694 OFFCURVE",
"263 694 OFFCURVE",
"264 695 CURVE",
"264 695 OFFCURVE",
"264 695 OFFCURVE",
"265 696 CURVE",
"265 696 OFFCURVE",
"266 696 OFFCURVE",
"266 696 CURVE"
);
},
{
closed = 1;
nodes = (
"12 696 LINE",
"12 696 OFFCURVE",
"11 696 OFFCURVE",
"11 696 CURVE",
"10 695 OFFCURVE",
"10 695 OFFCURVE",
"10 695 CURVE",
"9 694 OFFCURVE",
"9 694 OFFCURVE",
"9 693 CURVE",
"9 693 OFFCURVE",
"9 692 OFFCURVE",
"9 692 CURVE",
"127 5 LINE",
"127 4 OFFCURVE",
"127 3 OFFCURVE",
"127 3 CURVE",
"128 2 OFFCURVE",
"128 2 OFFCURVE",
"129 2 CURVE",
"129 1 OFFCURVE",
"130 1 OFFCURVE",
"130 1 CURVE",
"131 0 OFFCURVE",
"131 0 OFFCURVE",
"132 0 CURVE",
"162 0 LINE",
"222 0 LINE",
"222 0 OFFCURVE",
"223 0 OFFCURVE",
"223 1 CURVE",
"224 1 OFFCURVE",
"224 1 OFFCURVE",
"225 2 CURVE",
"225 2 OFFCURVE",
"225 2 OFFCURVE",
"226 3 CURVE",
"226 3 OFFCURVE",
"226 4 OFFCURVE",
"226 5 CURVE",
"193 240 LINE",
"129 692 LINE",
"129 692 OFFCURVE",
"129 693 OFFCURVE",
"128 693 CURVE",
"128 694 OFFCURVE",
"128 694 OFFCURVE",
"127 695 CURVE",
"127 695 OFFCURVE",
"126 695 OFFCURVE",
"126 696 CURVE",
"125 696 OFFCURVE",
"125 696 OFFCURVE",
"124 696 CURVE"
);
},
{
closed = 1;
nodes = (
"495 696 LINE",
"494 696 OFFCURVE",
"494 696 OFFCURVE",
"493 696 CURVE",
"492 695 OFFCURVE",
"492 695 OFFCURVE",
"491 695 CURVE",
"491 694 OFFCURVE",
"491 694 OFFCURVE",
"490 693 CURVE",
"490 693 OFFCURVE",
"490 692 OFFCURVE",
"490 692 CURVE",
"425 240 LINE",
"460 5 LINE",
"460 4 OFFCURVE",
"460 3 OFFCURVE",
"459 3 CURVE",
"459 2 OFFCURVE",
"459 2 OFFCURVE",
"459 2 CURVE",
"458 1 OFFCURVE",
"458 1 OFFCURVE",
"457 1 CURVE",
"457 0 OFFCURVE",
"456 0 OFFCURVE",
"456 0 CURVE",
"396 0 LINE",
"486 0 LINE",
"486 0 OFFCURVE",
"487 0 OFFCURVE",
"487 1 CURVE",
"488 1 OFFCURVE",
"489 1 OFFCURVE",
"489 2 CURVE",
"489 2 OFFCURVE",
"490 2 OFFCURVE",
"490 3 CURVE",
"490 3 OFFCURVE",
"491 4 OFFCURVE",
"491 5 CURVE",
"610 692 LINE",
"610 692 OFFCURVE",
"610 693 OFFCURVE",
"610 693 CURVE",
"610 694 OFFCURVE",
"610 694 OFFCURVE",
"609 695 CURVE",
"609 695 OFFCURVE",
"608 695 OFFCURVE",
"608 696 CURVE",
"608 696 OFFCURVE",
"607 696 OFFCURVE",
"606 696 CURVE"
);
},
{
closed = 1;
nodes = (
"266 696 LINE",
"266 696 OFFCURVE",
"265 696 OFFCURVE",
"265 696 CURVE",
"264 695 OFFCURVE",
"264 695 OFFCURVE",
"264 695 CURVE",
"263 694 OFFCURVE",
"263 694 OFFCURVE",
"263 693 CURVE",
"263 693 OFFCURVE",
"263 692 OFFCURVE",
"263 692 CURVE",
"309 364 LINE",
"360 5 LINE",
"360 4 OFFCURVE",
"360 3 OFFCURVE",
"361 3 CURVE",
"361 2 OFFCURVE",
"361 2 OFFCURVE",
"362 2 CURVE",
"362 1 OFFCURVE",
"363 1 OFFCURVE",
"363 1 CURVE",
"364 0 OFFCURVE",
"364 0 OFFCURVE",
"365 0 CURVE",
"396 0 LINE",
"456 0 LINE",
"456 0 OFFCURVE",
"457 0 OFFCURVE",
"457 1 CURVE",
"458 1 OFFCURVE",
"458 1 OFFCURVE",
"459 2 CURVE",
"459 2 OFFCURVE",
"459 2 OFFCURVE",
"459 3 CURVE",
"460 3 OFFCURVE",
"460 4 OFFCURVE",
"460 5 CURVE",
"425 240 LINE",
"360 692 LINE",
"359 695 OFFCURVE",
"358 696 OFFCURVE",
"355 696 CURVE"
);
}
);
width = 619;
},
{
associatedMasterId = "105671D0-52CD-46B5-9B81-8ED8F76D0899";
layerId = "B7832F77-5E90-4F78-9510-6DC53B695547";
name = "Aug 8 18, 17:01";
paths = (
{
closed = 1;
nodes = (
"123 5 LINE",
"123 3 LINE",
"124 2 OFFCURVE",
"124 2 OFFCURVE",
"125 2 CURVE",
"125 1 OFFCURVE",
"126 1 OFFCURVE",
"126 1 CURVE",
"127 0 OFFCURVE",
"127 0 OFFCURVE",
"128 0 CURVE SMOOTH",
"249 0 LINE",
"249 0 OFFCURVE",
"250 0 OFFCURVE",
"250 1 CURVE",
"251 1 OFFCURVE",
"251 1 OFFCURVE",
"252 2 CURVE",
"252 2 OFFCURVE",
"253 2 OFFCURVE",
"253 3 CURVE",
"253 3 OFFCURVE",
"253 4 OFFCURVE",
"254 5 CURVE",
"305 364 LINE",
"356 5 LINE",
"356 4 OFFCURVE",
"356 3 OFFCURVE",
"357 3 CURVE",
"357 2 OFFCURVE",
"357 2 OFFCURVE",
"358 2 CURVE",
"358 1 OFFCURVE",
"359 1 OFFCURVE",
"359 1 CURVE",
"360 0 OFFCURVE",
"360 0 OFFCURVE",
"361 0 CURVE SMOOTH",
"482 0 LINE",
"482 0 OFFCURVE",
"483 0 OFFCURVE",
"483 1 CURVE",
"484 1 OFFCURVE",
"485 1 OFFCURVE",
"485 2 CURVE",
"485 2 OFFCURVE",
"486 2 OFFCURVE",
"486 3 CURVE",
"486 3 OFFCURVE",
"487 4 OFFCURVE",
"487 5 CURVE",
"606 692 LINE",
"606 693 LINE SMOOTH",
"606 694 OFFCURVE",
"606 694 OFFCURVE",
"605 695 CURVE",
"605 695 OFFCURVE",
"604 695 OFFCURVE",
"604 696 CURVE",
"602 696 LINE",
"491 696 LINE",
"489 696 LINE",
"488 695 OFFCURVE",
"488 695 OFFCURVE",
"487 695 CURVE",
"487 694 OFFCURVE",
"487 694 OFFCURVE",
"486 693 CURVE",
"486 692 LINE",
"421 240 LINE",
"356 692 LINE",
"355 695 OFFCURVE",
"354 696 OFFCURVE",
"351 696 CURVE SMOOTH",
"261 696 LINE",
"258 696 OFFCURVE",
"256 695 OFFCURVE",
"255 692 CURVE",
"189 240 LINE",
"125 692 LINE",
"124 695 OFFCURVE",
"122 696 OFFCURVE",
"120 696 CURVE",
"8 696 LINE",
"6 696 OFFCURVE",
"4 696 OFFCURVE",
"5 692 CURVE"
);
}
);
width = 616;
},
{
associatedMasterId = "105671D0-52CD-46B5-9B81-8ED8F76D0899";
layerId = "77A19820-D0E6-4790-BBFA-D332C55946B2";
name = "Aug 10 18, 13:50";
paths = (
{
closed = 1;
nodes = (
"128 5 LINE",
"128 3 LINE",
"129 2 OFFCURVE",
"129 2 OFFCURVE",
"130 2 CURVE",
"130 1 OFFCURVE",
"131 1 OFFCURVE",
"131 1 CURVE",
"132 0 OFFCURVE",
"132 0 OFFCURVE",
"133 0 CURVE SMOOTH",
"254 0 LINE",
"254 0 OFFCURVE",
"255 0 OFFCURVE",
"255 1 CURVE",
"256 1 OFFCURVE",
"256 1 OFFCURVE",
"257 2 CURVE",
"257 2 OFFCURVE",
"258 2 OFFCURVE",
"258 3 CURVE",
"258 3 OFFCURVE",
"258 4 OFFCURVE",
"259 5 CURVE",
"310 364 LINE",
"361 5 LINE",
"361 4 OFFCURVE",
"361 3 OFFCURVE",
"362 3 CURVE",
"362 2 OFFCURVE",
"362 2 OFFCURVE",
"363 2 CURVE",
"363 1 OFFCURVE",
"364 1 OFFCURVE",
"364 1 CURVE",
"365 0 OFFCURVE",
"365 0 OFFCURVE",
"366 0 CURVE SMOOTH",
"487 0 LINE",
"487 0 OFFCURVE",
"488 0 OFFCURVE",
"488 1 CURVE",
"489 1 OFFCURVE",
"490 1 OFFCURVE",
"490 2 CURVE",
"490 2 OFFCURVE",
"491 2 OFFCURVE",
"491 3 CURVE",
"491 3 OFFCURVE",
"492 4 OFFCURVE",
"492 5 CURVE",
"611 692 LINE",
"611 693 LINE SMOOTH",
"611 694 OFFCURVE",
"611 694 OFFCURVE",
"610 695 CURVE",
"610 695 OFFCURVE",
"609 695 OFFCURVE",
"609 696 CURVE",
"607 696 LINE",
"496 696 LINE",
"494 696 LINE",
"493 695 OFFCURVE",
"493 695 OFFCURVE",
"492 695 CURVE",
"492 694 OFFCURVE",
"492 694 OFFCURVE",
"491 693 CURVE",
"491 692 LINE",
"426 250 LINE",
"361 692 LINE",
"360 695 OFFCURVE",
"359 696 OFFCURVE",
"356 696 CURVE SMOOTH",
"266 696 LINE",
"263 696 OFFCURVE",
"261 695 OFFCURVE",
"260 692 CURVE",
"194 250 LINE",
"130 692 LINE",
"129 695 OFFCURVE",
"127 696 OFFCURVE",
"125 696 CURVE",
"13 696 LINE",
"11 696 OFFCURVE",
"9 696 OFFCURVE",
"10 692 CURVE"
);
}
);
visible = 1;
width = 631;
}
);
leftKerningGroup = V;
leftMetricsKey = V;
rightKerningGroup = V;
rightMetricsKey = V;
unicode = 0057;
},
{
glyphname = X;
lastChange = "2018-10-09 15:01:31 +0000";
layers = (
{
anchors = (
{
name = top;
position = "{192, 835}";
}
);
layerId = "105671D0-52CD-46B5-9B81-8ED8F76D0899";
paths = (
{
closed = 1;
nodes = (
"121 0 LINE SMOOTH",
"124 0 OFFCURVE",
"126 0 OFFCURVE",
"127 5 CURVE",
"196 263 LINE",
"264 5 LINE",
"265 2 OFFCURVE",
"267 0 OFFCURVE",
"270 0 CURVE SMOOTH",
"382 0 LINE SMOOTH",
"385 0 OFFCURVE",
"386 2 OFFCURVE",
"385 5 CURVE",
"272 363 LINE",
"384 692 LINE",
"385 696 OFFCURVE",
"383 696 OFFCURVE",
"381 696 CURVE SMOOTH",
"270 696 LINE",
"268 696 OFFCURVE",
"265 696 OFFCURVE",
"264 692 CURVE",
"196 454 LINE",
"129 692 LINE",
"128 695 OFFCURVE",
"127 696 OFFCURVE",
"123 696 CURVE SMOOTH",
"11 696 LINE",
"9 696 OFFCURVE",
"7 696 OFFCURVE",
"8 692 CURVE",
"120 362 LINE",
"6 5 LINE",
"5 1 OFFCURVE",
"6 0 OFFCURVE",
"9 0 CURVE SMOOTH"
);
}
);
width = 404;
},
{
associatedMasterId = "105671D0-52CD-46B5-9B81-8ED8F76D0899";
layerId = "79FDC417-3028-4DCE-81EC-349FC12A8D64";
name = "May 24 18, 16:04";
paths = (
{
closed = 1;
nodes = (
"293 696 LINE",
"292 696 OFFCURVE",
"292 696 OFFCURVE",
"291 695 CURVE",
"290 695 OFFCURVE",
"290 695 OFFCURVE",
"289 695 CURVE",
"289 694 OFFCURVE",
"288 694 OFFCURVE",
"288 693 CURVE",
"288 693 OFFCURVE",
"287 692 OFFCURVE",
"287 692 CURVE",
"219 454 LINE",
"238 387 LINE",
"283 387 LINE",
"283 387 OFFCURVE",
"284 387 OFFCURVE",
"284 386 CURVE",
"285 386 OFFCURVE",
"286 386 OFFCURVE",
"286 386 CURVE",
"287 385 OFFCURVE",
"287 385 OFFCURVE",
"288 384 CURVE",
"288 384 OFFCURVE",
"288 383 OFFCURVE",
"289 383 CURVE",
"295 363 LINE",
"407 692 LINE",
"408 692 OFFCURVE",
"408 693 OFFCURVE",
"408 693 CURVE",
"407 694 OFFCURVE",
"407 694 OFFCURVE",
"407 695 CURVE",
"407 695 OFFCURVE",
"406 695 OFFCURVE",
"406 695 CURVE",
"406 696 OFFCURVE",
"405 696 OFFCURVE",
"404 696 CURVE"
);
},
{
closed = 1;
nodes = (
"34 696 LINE",
"34 696 OFFCURVE",
"33 696 OFFCURVE",
"33 695 CURVE",
"32 695 OFFCURVE",
"32 695 OFFCURVE",
"32 695 CURVE",
"31 694 OFFCURVE",
"31 694 OFFCURVE",
"31 693 CURVE",
"31 693 OFFCURVE",
"31 692 OFFCURVE",
"31 692 CURVE",
"143 362 LINE",
"150 383 LINE",
"150 383 OFFCURVE",
"151 384 OFFCURVE",
"151 384 CURVE",
"151 385 OFFCURVE",
"152 385 OFFCURVE",
"152 386 CURVE",
"153 386 OFFCURVE",
"153 386 OFFCURVE",
"154 386 CURVE",
"155 387 OFFCURVE",
"155 387 OFFCURVE",
"156 387 CURVE",
"191 387 LINE",
"238 387 LINE",
"219 454 LINE",
"152 692 LINE",
"151 692 OFFCURVE",
"151 693 OFFCURVE",
"151 693 CURVE",
"150 694 OFFCURVE",
"150 694 OFFCURVE",
"149 695 CURVE",
"149 695 OFFCURVE",
"148 695 OFFCURVE",
"148 695 CURVE",
"147 696 OFFCURVE",
"147 696 OFFCURVE",
"146 696 CURVE"
);
},
{
closed = 1;
nodes = (
"156 387 LINE",
"155 387 OFFCURVE",
"155 387 OFFCURVE",
"154 386 CURVE",
"153 386 OFFCURVE",
"153 386 OFFCURVE",
"152 386 CURVE",
"152 385 OFFCURVE",
"151 385 OFFCURVE",
"151 384 CURVE",
"151 384 OFFCURVE",
"150 383 OFFCURVE",
"150 383 CURVE",
"143 362 LINE",
"29 5 LINE",
"29 4 OFFCURVE",
"29 3 OFFCURVE",
"29 3 CURVE",
"29 2 OFFCURVE",
"29 2 OFFCURVE",
"29 1 CURVE",
"30 1 OFFCURVE",
"30 1 OFFCURVE",
"30 1 CURVE",
"31 0 OFFCURVE",
"31 0 OFFCURVE",
"32 0 CURVE",
"144 0 LINE",
"145 0 OFFCURVE",
"146 0 OFFCURVE",
"146 1 CURVE",
"147 1 OFFCURVE",
"147 1 OFFCURVE",
"148 1 CURVE",
"149 2 OFFCURVE",
"149 2 OFFCURVE",
"149 3 CURVE",
"150 3 OFFCURVE",
"150 4 OFFCURVE",
"150 5 CURVE",
"219 263 LINE",
"187 382 LINE",
"187 383 OFFCURVE",
"187 384 OFFCURVE",
"187 384 CURVE",
"187 385 OFFCURVE",
"188 385 OFFCURVE",
"188 386 CURVE",
"188 386 OFFCURVE",
"189 386 OFFCURVE",
"189 386 CURVE",
"190 387 OFFCURVE",
"190 387 OFFCURVE",
"191 387 CURVE"
);
},
{
closed = 1;
nodes = (
"238 387 LINE",
"191 387 LINE",
"190 387 OFFCURVE",
"190 387 OFFCURVE",
"189 386 CURVE",
"189 386 OFFCURVE",
"188 386 OFFCURVE",
"188 386 CURVE",
"188 385 OFFCURVE",
"187 385 OFFCURVE",
"187 384 CURVE",
"187 384 OFFCURVE",
"187 383 OFFCURVE",
"187 382 CURVE",
"219 263 LINE",
"287 5 LINE",
"287 4 OFFCURVE",
"288 3 OFFCURVE",
"288 3 CURVE",
"288 2 OFFCURVE",
"289 2 OFFCURVE",
"289 1 CURVE",
"290 1 OFFCURVE",
"290 1 OFFCURVE",
"291 1 CURVE",
"292 0 OFFCURVE",
"292 0 OFFCURVE",
"293 0 CURVE",
"405 0 LINE",
"406 0 OFFCURVE",
"406 0 OFFCURVE",
"407 1 CURVE",
"407 1 OFFCURVE",
"408 1 OFFCURVE",
"408 1 CURVE",
"408 2 OFFCURVE",
"409 2 OFFCURVE",
"409 3 CURVE",
"409 3 OFFCURVE",
"409 4 OFFCURVE",
"408 5 CURVE",
"295 363 LINE",
"289 383 LINE",
"288 383 OFFCURVE",
"288 384 OFFCURVE",
"288 384 CURVE",
"287 385 OFFCURVE",
"287 385 OFFCURVE",
"286 386 CURVE",
"286 386 OFFCURVE",
"285 386 OFFCURVE",
"284 386 CURVE",
"284 387 OFFCURVE",
"283 387 OFFCURVE",
"283 387 CURVE"
);
}
);
width = 600;
},
{
associatedMasterId = "105671D0-52CD-46B5-9B81-8ED8F76D0899";
layerId = "B5323B49-2BC0-4CE0-B4B3-8972B58F6692";
name = "Aug 8 18, 17:03";
paths = (
{
closed = 1;
nodes = (
"18 1 OFFCURVE",
"19 0 OFFCURVE",
"22 0 CURVE SMOOTH",
"134 0 LINE SMOOTH",
"137 0 OFFCURVE",
"139 0 OFFCURVE",
"140 5 CURVE",
"209 263 LINE",
"277 5 LINE",
"278 2 OFFCURVE",
"280 0 OFFCURVE",
"283 0 CURVE SMOOTH",
"395 0 LINE SMOOTH",
"398 0 OFFCURVE",
"399 2 OFFCURVE",
"398 5 CURVE",
"285 363 LINE",
"397 692 LINE",
"398 696 OFFCURVE",
"396 696 OFFCURVE",
"394 696 CURVE SMOOTH",
"283 696 LINE",
"281 696 OFFCURVE",
"278 696 OFFCURVE",
"277 692 CURVE",
"209 454 LINE",
"142 692 LINE",
"141 695 OFFCURVE",
"140 696 OFFCURVE",
"136 696 CURVE SMOOTH",
"24 696 LINE",
"22 696 OFFCURVE",
"20 696 OFFCURVE",
"21 692 CURVE",
"133 362 LINE",
"19 5 LINE"
);
}
);
width = 418;
},
{
associatedMasterId = "105671D0-52CD-46B5-9B81-8ED8F76D0899";
layerId = "60F3C41E-6604-4155-B94D-8A011283B2C3";
name = "Aug 8 18, 17:03";
paths = (
{
closed = 1;
nodes = (
"18 1 OFFCURVE",
"19 0 OFFCURVE",
"22 0 CURVE SMOOTH",
"134 0 LINE SMOOTH",
"137 0 OFFCURVE",
"139 0 OFFCURVE",
"140 5 CURVE",
"209 263 LINE",
"277 5 LINE",
"278 2 OFFCURVE",
"280 0 OFFCURVE",
"283 0 CURVE SMOOTH",
"395 0 LINE SMOOTH",
"398 0 OFFCURVE",
"399 2 OFFCURVE",
"398 5 CURVE",
"285 363 LINE",
"397 692 LINE",
"398 696 OFFCURVE",
"396 696 OFFCURVE",
"394 696 CURVE SMOOTH",
"283 696 LINE",
"281 696 OFFCURVE",
"278 696 OFFCURVE",
"277 692 CURVE",
"209 454 LINE",
"142 692 LINE",
"141 695 OFFCURVE",
"140 696 OFFCURVE",
"136 696 CURVE SMOOTH",
"24 696 LINE",
"22 696 OFFCURVE",
"20 696 OFFCURVE",
"21 692 CURVE",
"133 362 LINE",
"19 5 LINE"
);
}
);
width = 418;
}
);
leftKerningGroup = X;
rightKerningGroup = X;
unicode = 0058;
},
{
glyphname = Y;
lastChange = "2018-10-09 15:01:31 +0000";
layers = (
{
anchors = (
{
name = top;
position = "{189, 835}";
}
);
layerId = "105671D0-52CD-46B5-9B81-8ED8F76D0899";
paths = (
{
closed = 1;
nodes = (
"248 0 LINE",
"251 0 OFFCURVE",
"252 1 OFFCURVE",
"252 4 CURVE",
"251 292 LINE",
"386 692 LINE",
"387 696 OFFCURVE",
"385 696 OFFCURVE",
"383 696 CURVE",
"271 696 LINE",
"269 696 OFFCURVE",
"267 696 OFFCURVE",
"266 692 CURVE",
"191 423 LINE",
"117 692 LINE",
"116 696 OFFCURVE",
"113 696 OFFCURVE",
"111 696 CURVE",
"0 696 LINE",
"-3 696 OFFCURVE",
"-4 696 OFFCURVE",
"-3 692 CURVE",
"131 288 LINE",
"130 4 LINE",
"130 1 OFFCURVE",
"131 0 OFFCURVE",
"133 0 CURVE"
);
}
);
width = 401;
},
{
associatedMasterId = "105671D0-52CD-46B5-9B81-8ED8F76D0899";
layerId = "78AA6C58-E0CD-4192-BB53-EEE3EA40C28F";
name = "May 24 18, 16:06";
paths = (
{
closed = 1;
nodes = (
"144.57 360.759 LINE",
"283.345 360.759 LINE",
"283.929 0 LINE",
"143.985 0 LINE"
);
},
{
closed = 1;
nodes = (
"275.504 320.237 LINE",
"275.298 319.582 OFFCURVE",
"274.959 318.955 OFFCURVE",
"274.524 318.385 CURVE",
"274.09 317.814 OFFCURVE",
"273.56 317.3 OFFCURVE",
"272.969 316.867 CURVE",
"272.378 316.435 OFFCURVE",
"271.727 316.085 OFFCURVE",
"271.051 315.842 CURVE",
"270.375 315.6 OFFCURVE",
"269.675 315.466 OFFCURVE",
"268.985 315.466 CURVE",
"179.894 315.466 LINE",
"157.84 315.466 LINE",
"157.15 315.466 OFFCURVE",
"156.45 315.601 OFFCURVE",
"155.775 315.844 CURVE",
"155.101 316.087 OFFCURVE",
"154.45 316.438 OFFCURVE",
"153.86 316.872 CURVE",
"153.271 317.306 OFFCURVE",
"152.741 317.821 OFFCURVE",
"152.308 318.393 CURVE",
"151.874 318.964 OFFCURVE",
"151.536 319.591 OFFCURVE",
"151.329 320.246 CURVE",
"144.543 341.794 LINE",
"144.279 181.573 LINE",
"143.993 4.883 LINE",
"144 4.725 OFFCURVE",
"144.013 4.569 OFFCURVE",
"144.032 4.416 CURVE",
"144.052 4.263 OFFCURVE",
"144.079 4.111 OFFCURVE",
"144.112 3.962 CURVE",
"144.146 3.813 OFFCURVE",
"144.186 3.667 OFFCURVE",
"144.23 3.523 CURVE",
"144.276 3.379 OFFCURVE",
"144.328 3.238 OFFCURVE",
"144.386 3.1 CURVE",
"144.448 2.949 OFFCURVE",
"144.52 2.802 OFFCURVE",
"144.597 2.658 CURVE",
"144.674 2.515 OFFCURVE",
"144.758 2.375 OFFCURVE",
"144.849 2.24 CURVE",
"144.938 2.104 OFFCURVE",
"145.035 1.975 OFFCURVE",
"145.138 1.849 CURVE",
"145.239 1.724 OFFCURVE",
"145.348 1.604 OFFCURVE",
"145.46 1.49 CURVE",
"145.575 1.374 OFFCURVE",
"145.696 1.265 OFFCURVE",
"145.821 1.16 CURVE",
"145.945 1.057 OFFCURVE",
"146.075 0.958 OFFCURVE",
"146.209 0.867 CURVE",
"146.343 0.775 OFFCURVE",
"146.481 0.69 OFFCURVE",
"146.623 0.612 CURVE",
"146.765 0.534 OFFCURVE",
"146.911 0.464 OFFCURVE",
"147.06 0.399 CURVE",
"147.211 0.334 OFFCURVE",
"147.366 0.276 OFFCURVE",
"147.524 0.227 CURVE",
"147.683 0.177 OFFCURVE",
"147.844 0.135 OFFCURVE",
"148.007 0.102 CURVE",
"148.171 0.067 OFFCURVE",
"148.338 0.043 OFFCURVE",
"148.507 0.025 CURVE",
"148.677 0.009 OFFCURVE",
"148.848 0 OFFCURVE",
"149.021 0 CURVE",
"278.9 0 LINE",
"279.074 0 OFFCURVE",
"279.246 0.009 OFFCURVE",
"279.414 0.025 CURVE",
"279.582 0.043 OFFCURVE",
"279.748 0.067 OFFCURVE",
"279.911 0.102 CURVE",
"280.073 0.135 OFFCURVE",
"280.233 0.177 OFFCURVE",
"280.391 0.227 CURVE",
"280.548 0.276 OFFCURVE",
"280.701 0.334 OFFCURVE",
"280.853 0.399 CURVE",
"281.002 0.464 OFFCURVE",
"281.148 0.534 OFFCURVE",
"281.29 0.612 CURVE",
"281.433 0.69 OFFCURVE",
"281.57 0.775 OFFCURVE",
"281.704 0.867 CURVE",
"281.838 0.958 OFFCURVE",
"281.968 1.057 OFFCURVE",
"282.093 1.16 CURVE",
"282.218 1.265 OFFCURVE",
"282.338 1.374 OFFCURVE",
"282.453 1.49 CURVE",
"282.566 1.604 OFFCURVE",
"282.674 1.724 OFFCURVE",
"282.776 1.849 CURVE",
"282.878 1.975 OFFCURVE",
"282.975 2.104 OFFCURVE",
"283.064 2.24 CURVE",
"283.155 2.375 OFFCURVE",
"283.239 2.515 OFFCURVE",
"283.316 2.658 CURVE",
"283.394 2.802 OFFCURVE",
"283.464 2.949 OFFCURVE",
"283.527 3.1 CURVE",
"283.585 3.237 OFFCURVE",
"283.637 3.379 OFFCURVE",
"283.683 3.522 CURVE",
"283.729 3.666 OFFCURVE",
"283.769 3.812 OFFCURVE",
"283.802 3.962 CURVE",
"283.835 4.11 OFFCURVE",
"283.861 4.262 OFFCURVE",
"283.882 4.415 CURVE",
"283.901 4.568 OFFCURVE",
"283.915 4.725 OFFCURVE",
"283.92 4.882 CURVE",
"283.635 181.573 LINE",
"283.366 344.979 LINE"
);
},
{
closed = 1;
nodes = (
"294.472 799.609 LINE",
"293.786 799.609 OFFCURVE",
"293.101 799.474 OFFCURVE",
"292.447 799.229 CURVE",
"291.794 798.984 OFFCURVE",
"291.174 798.63 OFFCURVE",
"290.619 798.193 CURVE",
"290.064 797.757 OFFCURVE",
"289.576 797.236 OFFCURVE",
"289.187 796.659 CURVE",
"288.797 796.082 OFFCURVE",
"288.507 795.449 OFFCURVE",
"288.349 794.784 CURVE",
"213.646 479.185 LINE",
"250.794 320.346 LINE",
"250.952 319.676 OFFCURVE",
"250.961 319.036 OFFCURVE",
"250.843 318.453 CURVE",
"250.726 317.87 OFFCURVE",
"250.48 317.344 OFFCURVE",
"250.13 316.901 CURVE",
"249.779 316.459 OFFCURVE",
"249.323 316.1 OFFCURVE",
"248.782 315.852 CURVE",
"248.242 315.604 OFFCURVE",
"247.618 315.466 OFFCURVE",
"246.931 315.466 CURVE",
"179.894 315.466 LINE",
"268.985 315.466 LINE",
"269.675 315.466 OFFCURVE",
"270.375 315.6 OFFCURVE",
"271.051 315.842 CURVE",
"271.727 316.085 OFFCURVE",
"272.378 316.435 OFFCURVE",
"272.969 316.867 CURVE",
"273.56 317.3 OFFCURVE",
"274.09 317.814 OFFCURVE",
"274.524 318.385 CURVE",
"274.959 318.955 OFFCURVE",
"275.298 319.582 OFFCURVE",
"275.504 320.237 CURVE",
"283.366 344.979 LINE",
"426.342 794.891 LINE",
"426.549 795.54 OFFCURVE",
"426.606 796.159 OFFCURVE",
"426.533 796.723 CURVE",
"426.46 797.287 OFFCURVE",
"426.256 797.796 OFFCURVE",
"425.941 798.224 CURVE",
"425.626 798.65 OFFCURVE",
"425.199 798.997 OFFCURVE",
"424.681 799.237 CURVE",
"424.161 799.477 OFFCURVE",
"423.55 799.609 OFFCURVE",
"422.864 799.609 CURVE"
);
},
{
closed = 1;
nodes = (
"5.33 799.609 LINE",
"4.647 799.609 OFFCURVE",
"4.036 799.477 OFFCURVE",
"3.518 799.237 CURVE",
"2.998 798.997 OFFCURVE",
"2.571 798.65 OFFCURVE",
"2.255 798.223 CURVE",
"1.938 797.794 OFFCURVE",
"1.733 797.284 OFFCURVE",
"1.658 796.72 CURVE",
"1.583 796.154 OFFCURVE",
"1.638 795.533 OFFCURVE",
"1.843 794.882 CURVE",
"144.543 341.794 LINE",
"151.329 320.246 LINE",
"151.536 319.591 OFFCURVE",
"151.874 318.964 OFFCURVE",
"152.308 318.393 CURVE",
"152.741 317.821 OFFCURVE",
"153.271 317.306 OFFCURVE",
"153.86 316.872 CURVE",
"154.45 316.438 OFFCURVE",
"155.101 316.087 OFFCURVE",
"155.775 315.844 CURVE",
"156.45 315.601 OFFCURVE",
"157.15 315.466 OFFCURVE",
"157.84 315.466 CURVE",
"179.894 315.466 LINE",
"246.931 315.466 LINE",
"247.618 315.466 OFFCURVE",
"248.242 315.604 OFFCURVE",
"248.782 315.852 CURVE",
"249.323 316.1 OFFCURVE",
"249.779 316.459 OFFCURVE",
"250.13 316.901 CURVE",
"250.48 317.344 OFFCURVE",
"250.726 317.87 OFFCURVE",
"250.843 318.453 CURVE",
"250.961 319.036 OFFCURVE",
"250.952 319.676 OFFCURVE",
"250.794 320.346 CURVE",
"213.646 479.185 LINE",
"139.836 794.784 LINE",
"139.681 795.446 OFFCURVE",
"139.392 796.079 OFFCURVE",
"139.003 796.655 CURVE",
"138.615 797.232 OFFCURVE",
"138.128 797.753 OFFCURVE",
"137.574 798.19 CURVE",
"137.021 798.628 OFFCURVE",
"136.402 798.982 OFFCURVE",
"135.75 799.228 CURVE",
"135.099 799.474 OFFCURVE",
"134.415 799.609 OFFCURVE",
"133.731 799.609 CURVE"
);
}
);
width = 600;
},
{
associatedMasterId = "105671D0-52CD-46B5-9B81-8ED8F76D0899";
layerId = "744FBF56-A07F-4DE9-AB12-C03087D0C74D";
name = "May 24 18, 16:07";
paths = (
{
closed = 1;
nodes = (
"268 279 LINE",
"267 278 OFFCURVE",
"267 278 OFFCURVE",
"267 277 CURVE",
"266 277 OFFCURVE",
"266 276 OFFCURVE",
"265 276 CURVE",
"265 275 OFFCURVE",
"264 275 OFFCURVE",
"264 275 CURVE",
"263 275 OFFCURVE",
"262 274 OFFCURVE",
"262 274 CURVE",
"184 274 LINE",
"165 274 LINE",
"165 274 OFFCURVE",
"164 275 OFFCURVE",
"163 275 CURVE",
"163 275 OFFCURVE",
"162 275 OFFCURVE",
"162 276 CURVE",
"161 276 OFFCURVE",
"161 277 OFFCURVE",
"160 277 CURVE",
"160 278 OFFCURVE",
"160 278 OFFCURVE",
"160 279 CURVE",
"154 297 LINE",
"153 158 LINE",
"153 4 LINE",
"153 4 OFFCURVE",
"153 4 OFFCURVE",
"153 4 CURVE",
"153 4 OFFCURVE",
"153 4 OFFCURVE",
"153 4 CURVE",
"153 3 OFFCURVE",
"153 3 OFFCURVE",
"153 3 CURVE",
"153 3 OFFCURVE",
"153 3 OFFCURVE",
"154 3 CURVE",
"154 3 OFFCURVE",
"154 3 OFFCURVE",
"154 2 CURVE",
"154 2 OFFCURVE",
"154 2 OFFCURVE",
"154 2 CURVE",
"154 2 OFFCURVE",
"154 2 OFFCURVE",
"154 2 CURVE",
"154 2 OFFCURVE",
"154 2 OFFCURVE",
"154 1 CURVE",
"155 1 OFFCURVE",
"155 1 OFFCURVE",
"155 1 CURVE",
"155 1 OFFCURVE",
"155 1 OFFCURVE",
"155 1 CURVE",
"155 1 OFFCURVE",
"155 1 OFFCURVE",
"155 1 CURVE",
"156 1 OFFCURVE",
"156 1 OFFCURVE",
"156 1 CURVE",
"156 0 OFFCURVE",
"156 0 OFFCURVE",
"156 0 CURVE",
"156 0 OFFCURVE",
"157 0 OFFCURVE",
"157 0 CURVE",
"157 0 OFFCURVE",
"157 0 OFFCURVE",
"157 0 CURVE",
"157 0 OFFCURVE",
"157 0 OFFCURVE",
"158 0 CURVE",
"271 0 LINE",
"271 0 OFFCURVE",
"271 0 OFFCURVE",
"271 0 CURVE",
"271 0 OFFCURVE",
"271 0 OFFCURVE",
"271 0 CURVE",
"272 0 OFFCURVE",
"272 0 OFFCURVE",
"272 0 CURVE",
"272 0 OFFCURVE",
"272 0 OFFCURVE",
"272 1 CURVE",
"272 1 OFFCURVE",
"272 1 OFFCURVE",
"273 1 CURVE",
"273 1 OFFCURVE",
"273 1 OFFCURVE",
"273 1 CURVE",
"273 1 OFFCURVE",
"273 1 OFFCURVE",
"273 1 CURVE",
"273 1 OFFCURVE",
"273 1 OFFCURVE",
"274 1 CURVE",
"274 2 OFFCURVE",
"274 2 OFFCURVE",
"274 2 CURVE",
"274 2 OFFCURVE",
"274 2 OFFCURVE",
"274 2 CURVE",
"274 2 OFFCURVE",
"274 2 OFFCURVE",
"274 2 CURVE",
"274 3 OFFCURVE",
"274 3 OFFCURVE",
"275 3 CURVE",
"275 3 OFFCURVE",
"275 3 OFFCURVE",
"275 3 CURVE",
"275 3 OFFCURVE",
"275 3 OFFCURVE",
"275 4 CURVE",
"275 4 OFFCURVE",
"275 4 OFFCURVE",
"275 4 CURVE",
"275 4 OFFCURVE",
"275 4 OFFCURVE",
"275 4 CURVE",
"275 158 LINE",
"274 300 LINE"
);
},
{
closed = 1;
nodes = (
"284 696 LINE",
"283 696 OFFCURVE",
"283 696 OFFCURVE",
"282 696 CURVE",
"282 696 OFFCURVE",
"281 696 OFFCURVE",
"281 695 CURVE",
"280 695 OFFCURVE",
"280 694 OFFCURVE",
"279 694 CURVE",
"279 693 OFFCURVE",
"279 693 OFFCURVE",
"279 692 CURVE",
"214 417 LINE",
"246 279 LINE",
"246 278 OFFCURVE",
"246 278 OFFCURVE",
"246 277 CURVE",
"246 277 OFFCURVE",
"246 276 OFFCURVE",
"245 276 CURVE",
"245 275 OFFCURVE",
"245 275 OFFCURVE",
"244 275 CURVE",
"244 275 OFFCURVE",
"243 274 OFFCURVE",
"243 274 CURVE",
"184 274 LINE",
"262 274 LINE",
"262 274 OFFCURVE",
"263 275 OFFCURVE",
"264 275 CURVE",
"264 275 OFFCURVE",
"265 275 OFFCURVE",
"265 276 CURVE",
"266 276 OFFCURVE",
"266 277 OFFCURVE",
"267 277 CURVE",
"267 278 OFFCURVE",
"267 278 OFFCURVE",
"268 279 CURVE",
"274 300 LINE",
"399 692 LINE",
"399 693 OFFCURVE",
"399 693 OFFCURVE",
"399 694 CURVE",
"399 694 OFFCURVE",
"399 695 OFFCURVE",
"398 695 CURVE",
"398 696 OFFCURVE",
"398 696 OFFCURVE",
"397 696 CURVE",
"397 696 OFFCURVE",
"396 696 OFFCURVE",
"396 696 CURVE"
);
},
{
closed = 1;
nodes = (
"33 696 LINE",
"32 696 OFFCURVE",
"31 696 OFFCURVE",
"31 696 CURVE",
"31 696 OFFCURVE",
"30 696 OFFCURVE",
"30 695 CURVE",
"30 695 OFFCURVE",
"29 694 OFFCURVE",
"29 694 CURVE",
"29 693 OFFCURVE",
"29 693 OFFCURVE",
"30 692 CURVE",
"154 297 LINE",
"160 279 LINE",
"160 278 OFFCURVE",
"160 278 OFFCURVE",
"160 277 CURVE",
"161 277 OFFCURVE",
"161 276 OFFCURVE",
"162 276 CURVE",
"162 275 OFFCURVE",
"163 275 OFFCURVE",
"163 275 CURVE",
"164 275 OFFCURVE",
"165 274 OFFCURVE",
"165 274 CURVE",
"184 274 LINE",
"243 274 LINE",
"243 274 OFFCURVE",
"244 275 OFFCURVE",
"244 275 CURVE",
"245 275 OFFCURVE",
"245 275 OFFCURVE",
"245 276 CURVE",
"246 276 OFFCURVE",
"246 277 OFFCURVE",
"246 277 CURVE",
"246 278 OFFCURVE",
"246 278 OFFCURVE",
"246 279 CURVE",
"214 417 LINE",
"150 692 LINE",
"149 693 OFFCURVE",
"149 693 OFFCURVE",
"149 694 CURVE",
"149 694 OFFCURVE",
"148 695 OFFCURVE",
"148 695 CURVE",
"147 696 OFFCURVE",
"147 696 OFFCURVE",
"146 696 CURVE",
"145 696 OFFCURVE",
"145 696 OFFCURVE",
"144 696 CURVE"
);
}
);
width = 600;
},
{
associatedMasterId = "105671D0-52CD-46B5-9B81-8ED8F76D0899";
layerId = "2AFDA22E-E840-40E7-9E4F-220CAC189F8A";
name = "Aug 10 18, 13:47";
paths = (
{
closed = 1;
nodes = (
"9 696 OFFCURVE",
"8 696 OFFCURVE",
"9 692 CURVE",
"133 288 LINE",
"132 4 LINE",
"132 1 OFFCURVE",
"133 0 OFFCURVE",
"135 0 CURVE",
"250 0 LINE",
"253 0 OFFCURVE",
"254 1 OFFCURVE",
"254 4 CURVE",
"253 292 LINE",
"378 692 LINE",
"379 696 OFFCURVE",
"377 696 OFFCURVE",
"375 696 CURVE",
"263 696 LINE",
"261 696 OFFCURVE",
"259 696 OFFCURVE",
"258 692 CURVE",
"193 414 LINE",
"129 692 LINE",
"128 696 OFFCURVE",
"125 696 OFFCURVE",
"123 696 CURVE",
"12 696 LINE"
);
}
);
width = 394;
}
);
leftKerningGroup = Y;
rightKerningGroup = Y;
unicode = 0059;
},
{
glyphname = Z;
lastChange = "2018-10-09 15:01:31 +0000";
layers = (
{
anchors = (
{
name = top;
position = "{201, 835}";
}
);
layerId = "105671D0-52CD-46B5-9B81-8ED8F76D0899";
paths = (
{
closed = 1;
nodes = (
"386 0 LINE",
"389 0 OFFCURVE",
"391 2 OFFCURVE",
"391 5 CURVE",
"390 112 LINE",
"390 116 OFFCURVE",
"389 117 OFFCURVE",
"386 117 CURVE SMOOTH",
"145 117 LINE",
"389 583 LINE",
"389 691 LINE SMOOTH",
"389 694 OFFCURVE",
"388 696 OFFCURVE",
"384 696 CURVE SMOOTH",
"22 696 LINE SMOOTH",
"19 696 OFFCURVE",
"18 694 OFFCURVE",
"18 691 CURVE SMOOTH",
"18 586 LINE SMOOTH",
"18 584 OFFCURVE",
"19 582 OFFCURVE",
"22 582 CURVE SMOOTH",
"254 582 LINE",
"9 114 LINE",
"8 5 LINE",
"8 1 OFFCURVE",
"9 0 OFFCURVE",
"13 0 CURVE SMOOTH"
);
}
);
width = 414;
},
{
associatedMasterId = "105671D0-52CD-46B5-9B81-8ED8F76D0899";
layerId = "7E275436-877F-4617-8D7C-C28B4A865956";
name = "May 22 18, 14:32";
paths = (
{
closed = 1;
nodes = (
"259 122 LINE",
"227 62 LINE",
"120 119 LINE",
"120 119 OFFCURVE",
"120 119 OFFCURVE",
"120 119 CURVE",
"120 119 OFFCURVE",
"120 119 OFFCURVE",
"120 118 CURVE",
"120 118 OFFCURVE",
"120 118 OFFCURVE",
"120 118 CURVE",
"120 118 OFFCURVE",
"120 117 OFFCURVE",
"120 117 CURVE",
"119 5 LINE",
"119 4 OFFCURVE",
"120 3 OFFCURVE",
"120 3 CURVE",
"120 2 OFFCURVE",
"120 2 OFFCURVE",
"121 1 CURVE",
"121 1 OFFCURVE",
"122 1 OFFCURVE",
"122 1 CURVE",
"123 0 OFFCURVE",
"123 0 OFFCURVE",
"124 0 CURVE",
"497 0 LINE",
"498 0 OFFCURVE",
"498 0 OFFCURVE",
"499 1 CURVE",
"499 1 OFFCURVE",
"500 1 OFFCURVE",
"500 1 CURVE",
"501 2 OFFCURVE",
"501 2 OFFCURVE",
"501 3 CURVE",
"501 3 OFFCURVE",
"502 4 OFFCURVE",
"502 5 CURVE",
"501 117 LINE",
"501 118 OFFCURVE",
"501 118 OFFCURVE",
"501 119 CURVE",
"501 119 OFFCURVE",
"500 120 OFFCURVE",
"500 120 CURVE",
"500 121 OFFCURVE",
"499 121 OFFCURVE",
"499 121 CURVE",
"498 121 OFFCURVE",
"498 122 OFFCURVE",
"497 122 CURVE"
);
},
{
closed = 1;
nodes = (
"136 696 LINE",
"133 696 OFFCURVE",
"132 694 OFFCURVE",
"132 691 CURVE",
"132 579 LINE",
"132 577 OFFCURVE",
"133 575 OFFCURVE",
"136 575 CURVE",
"362 575 LINE",
"393 634 LINE",
"500 578 LINE",
"500 578 OFFCURVE",
"500 578 OFFCURVE",
"500 578 CURVE",
"500 691 LINE",
"500 694 OFFCURVE",
"499 696 OFFCURVE",
"495 696 CURVE"
);
},
{
closed = 1;
nodes = (
"362 575 LINE",
"120 119 LINE",
"120 119 LINE",
"227 62 LINE",
"259 122 LINE",
"500 578 LINE",
"500 578 LINE",
"393 634 LINE"
);
}
);
visible = 1;
width = 600;
},
{
associatedMasterId = "105671D0-52CD-46B5-9B81-8ED8F76D0899";
layerId = "9FB5A360-7BA1-4F3D-8920-E85E071E3EFF";
name = "Aug 8 18, 17:53";
paths = (
{
closed = 1;
nodes = (
"16 1 OFFCURVE",
"17 0 OFFCURVE",
"21 0 CURVE SMOOTH",
"394 0 LINE",
"397 0 OFFCURVE",
"399 2 OFFCURVE",
"399 5 CURVE",
"398 117 LINE",
"398 121 OFFCURVE",
"397 122 OFFCURVE",
"394 122 CURVE SMOOTH",
"156 122 LINE",
"397 578 LINE",
"397 691 LINE SMOOTH",
"397 694 OFFCURVE",
"396 696 OFFCURVE",
"392 696 CURVE SMOOTH",
"33 696 LINE SMOOTH",
"30 696 OFFCURVE",
"29 694 OFFCURVE",
"29 691 CURVE SMOOTH",
"29 579 LINE SMOOTH",
"29 577 OFFCURVE",
"30 575 OFFCURVE",
"33 575 CURVE SMOOTH",
"259 575 LINE",
"17 119 LINE",
"16 5 LINE"
);
}
);
width = 416;
},
{
associatedMasterId = "105671D0-52CD-46B5-9B81-8ED8F76D0899";
layerId = "878A3138-F3F1-4FC8-A76B-E78FC2AE4883";
name = "Aug 10 18, 13:46";
paths = (
{
closed = 1;
nodes = (
"-1 1 OFFCURVE",
"0 0 OFFCURVE",
"4 0 CURVE SMOOTH",
"377 0 LINE",
"380 0 OFFCURVE",
"382 2 OFFCURVE",
"382 5 CURVE",
"381 117 LINE",
"381 121 OFFCURVE",
"380 122 OFFCURVE",
"377 122 CURVE SMOOTH",
"139 122 LINE",
"380 578 LINE",
"380 691 LINE SMOOTH",
"380 694 OFFCURVE",
"379 696 OFFCURVE",
"375 696 CURVE SMOOTH",
"13 696 LINE SMOOTH",
"10 696 OFFCURVE",
"9 694 OFFCURVE",
"9 691 CURVE SMOOTH",
"9 579 LINE SMOOTH",
"9 577 OFFCURVE",
"10 575 OFFCURVE",
"13 575 CURVE SMOOTH",
"242 575 LINE",
"0 119 LINE",
"-1 5 LINE"
);
}
);
width = 387;
}
);
leftKerningGroup = Z;
rightKerningGroup = Z;
unicode = 005A;
},
{
glyphname = p;
lastChange = "2018-10-09 15:01:31 +0000";
layers = (
{
anchors = (
{
name = top;
position = "{217, 835}";
}
);
associatedMasterId = "105671D0-52CD-46B5-9B81-8ED8F76D0899";
layerId = "30179451-9554-4A3D-BF26-DAE70B7A1505";
name = "Aug 17 18, 10:29";
paths = (
{
closed = 1;
nodes = (
"422 692 LINE",
"422 694 OFFCURVE",
"420 696 OFFCURVE",
"418 696 CURVE",
"226 696 LINE SMOOTH",
"103 696 OFFCURVE",
"27 616 OFFCURVE",
"27 488 CURVE SMOOTH",
"27 346 OFFCURVE",
"121 257 OFFCURVE",
"226 257 CURVE SMOOTH",
"302 257 LINE",
"302 5 LINE SMOOTH",
"302 2 OFFCURVE",
"304 0 OFFCURVE",
"307 0 CURVE SMOOTH",
"419 0 LINE SMOOTH",
"422 0 OFFCURVE",
"424 2 OFFCURVE",
"424 5 CURVE SMOOTH"
);
}
);
width = 465;
},
{
anchors = (
{
name = top;
position = "{239, 835}";
}
);
associatedMasterId = "105671D0-52CD-46B5-9B81-8ED8F76D0899";
layerId = "9679E58F-6E20-4B2D-9198-A0962544299A";
name = "Aug 17 18, 11:26";
width = 524;
},
{
anchors = (
{
name = top;
position = "{217, 835}";
}
);
layerId = "105671D0-52CD-46B5-9B81-8ED8F76D0899";
paths = (
{
closed = 1;
nodes = (
"157 0 LINE SMOOTH",
"160 0 OFFCURVE",
"162 2 OFFCURVE",
"162 5 CURVE SMOOTH",
"162 257 LINE",
"238 257 LINE SMOOTH",
"343 257 OFFCURVE",
"437 346 OFFCURVE",
"437 488 CURVE SMOOTH",
"437 616 OFFCURVE",
"361 696 OFFCURVE",
"238 696 CURVE SMOOTH",
"46 696 LINE",
"44 696 OFFCURVE",
"42 694 OFFCURVE",
"42 692 CURVE",
"40 5 LINE SMOOTH",
"40 2 OFFCURVE",
"42 0 OFFCURVE",
"45 0 CURVE SMOOTH"
);
},
{
closed = 1;
nodes = (
"162 576 LINE",
"238 577 LINE SMOOTH",
"287 577 OFFCURVE",
"317 540 OFFCURVE",
"317 488 CURVE SMOOTH",
"317 423 OFFCURVE",
"281 378 OFFCURVE",
"238 378 CURVE SMOOTH",
"162 378 LINE"
);
}
);
visible = 1;
width = 465;
}
);
leftKerningGroup = H;
rightKerningGroup = P;
unicode = 0070;
},
{
glyphname = germandbls;
lastChange = "2018-10-09 15:01:31 +0000";
layers = (
{
layerId = "105671D0-52CD-46B5-9B81-8ED8F76D0899";
paths = (
{
closed = 1;
nodes = (
"156 0 LINE SMOOTH",
"159 0 OFFCURVE",
"162 3 OFFCURVE",
"162 6 CURVE SMOOTH",
"162 479 LINE SMOOTH",
"162 536 OFFCURVE",
"187 586 OFFCURVE",
"246 586 CURVE SMOOTH",
"300 586 OFFCURVE",
"333 551 OFFCURVE",
"333 498 CURVE SMOOTH",
"333 459 OFFCURVE",
"301 420 OFFCURVE",
"255 420 CURVE SMOOTH",
"246 420 LINE SMOOTH",
"243 420 OFFCURVE",
"240 417 OFFCURVE",
"240 414 CURVE SMOOTH",
"240 305 LINE SMOOTH",
"240 302 OFFCURVE",
"242 299 OFFCURVE",
"246 299 CURVE SMOOTH",
"291 296 OFFCURVE",
"328 257 OFFCURVE",
"328 211 CURVE SMOOTH",
"328 163 OFFCURVE",
"288 122 OFFCURVE",
"240 122 CURVE SMOOTH",
"228 122 LINE SMOOTH",
"225 122 OFFCURVE",
"222 120 OFFCURVE",
"222 116 CURVE SMOOTH",
"220 6 LINE SMOOTH",
"220 3 OFFCURVE",
"223 0 OFFCURVE",
"226 0 CURVE SMOOTH",
"240 0 LINE SMOOTH",
"356 0 OFFCURVE",
"449 94 OFFCURVE",
"449 211 CURVE SMOOTH",
"449 267.05 OFFCURVE",
"425.959 319.343 OFFCURVE",
"388.274 357.602 CURVE",
"424.369 389.01 OFFCURVE",
"454 440.264 OFFCURVE",
"454 498 CURVE SMOOTH",
"454 617 OFFCURVE",
"368 707 OFFCURVE",
"252 706 CURVE SMOOTH",
"113 706 OFFCURVE",
"41 602 OFFCURVE",
"41 478 CURVE SMOOTH",
"40 5 LINE",
"40 3 LINE SMOOTH",
"40 2 OFFCURVE",
"41 2 OFFCURVE",
"41 2 CURVE",
"42 1 OFFCURVE",
"42 1 OFFCURVE",
"43 1 CURVE",
"43 0 OFFCURVE",
"44 0 OFFCURVE",
"44 0 CURVE"
);
}
);
width = 481;
}
);
leftKerningGroup = H;
leftMetricsKey = B;
rightKerningGroup = B;
rightMetricsKey = B;
unicode = 00DF;
},
{
glyphname = tcommaaccent;
lastChange = "2018-10-09 15:01:31 +0000";
layers = (
{
anchors = (
{
name = _bottom;
position = "{183, -11}";
}
);
components = (
{
name = t;
}
);
layerId = "105671D0-52CD-46B5-9B81-8ED8F76D0899";
paths = (
{
closed = 1;
nodes = (
"201 -306 OFFCURVE",
"258 -251 OFFCURVE",
"258 -180 CURVE SMOOTH",
"258 -64 LINE",
"258 -61 OFFCURVE",
"256 -60 OFFCURVE",
"254 -60 CURVE",
"141 -60 LINE",
"138 -60 OFFCURVE",
"137 -61 OFFCURVE",
"137 -64 CURVE",
"137 -176 LINE",
"137 -179 OFFCURVE",
"139 -180 OFFCURVE",
"141 -180 CURVE",
"197 -180 LINE",
"197 -215 OFFCURVE",
"170 -244 OFFCURVE",
"137 -244 CURVE",
"137 -306 LINE"
);
}
);
width = 400;
}
);
leftKerningGroup = T;
rightKerningGroup = T;
unicode = 021B;
},
{
glyphname = Delta;
lastChange = "2018-10-09 15:01:31 +0000";
layers = (
{
layerId = "105671D0-52CD-46B5-9B81-8ED8F76D0899";
paths = (
{
closed = 1;
nodes = (
"533 0 LINE",
"533 0 OFFCURVE",
"537 2 OFFCURVE",
"537 4 CURVE SMOOTH",
"537 89 LINE",
"537 93 OFFCURVE",
"536 100 OFFCURVE",
"534 105 CURVE",
"346 484 LINE",
"345 488 OFFCURVE",
"342 490 OFFCURVE",
"337 490 CURVE",
"245 490 LINE",
"243 490 OFFCURVE",
"239 486 OFFCURVE",
"238 484 CURVE",
"52 105 LINE",
"50 101 OFFCURVE",
"49 95 OFFCURVE",
"49 90 CURVE",
"49 4 LINE SMOOTH",
"49 2 OFFCURVE",
"52 0 OFFCURVE",
"56 0 CURVE SMOOTH"
);
},
{
closed = 1;
nodes = (
"290 375 LINE",
"430 95 LINE",
"152 95 LINE"
);
}
);
width = 600;
},
{
associatedMasterId = "105671D0-52CD-46B5-9B81-8ED8F76D0899";
layerId = "1B6AFF3E-BF28-465D-9251-A13BA964D10F";
name = "Aug 21 18, 14:29";
paths = (
{
closed = 1;
nodes = (
"285 619 OFFCURVE",
"266 619 OFFCURVE",
"259 608 CURVE",
"38 331 LINE",
"37 330 OFFCURVE",
"37 326 OFFCURVE",
"39 324 CURVE",
"96 281 LINE",
"98 280 OFFCURVE",
"103 280 OFFCURVE",
"104 281 CURVE",
"272 488 LINE",
"434 288 LINE",
"435 287 OFFCURVE",
"440 288 OFFCURVE",
"442 289 CURVE",
"507 332 LINE",
"509 334 OFFCURVE",
"509 338 OFFCURVE",
"508 339 CURVE",
"293 608 LINE"
);
},
{
closed = 1;
nodes = (
"508 318 LINE",
"509 319 OFFCURVE",
"509 323 OFFCURVE",
"507 325 CURVE",
"442 368 LINE",
"440 369 OFFCURVE",
"435 370 OFFCURVE",
"434 369 CURVE",
"272 169 LINE",
"104 376 LINE",
"103 377 OFFCURVE",
"98 377 OFFCURVE",
"96 376 CURVE",
"39 333 LINE",
"37 331 OFFCURVE",
"37 327 OFFCURVE",
"38 326 CURVE",
"259 49 LINE",
"266 38 OFFCURVE",
"285 38 OFFCURVE",
"293 49 CURVE"
);
}
);
width = 600;
},
{
associatedMasterId = "105671D0-52CD-46B5-9B81-8ED8F76D0899";
layerId = "F0AF5653-E532-4418-864D-8814B4FD70E9";
name = "Aug 21 18, 14:30";
paths = (
{
closed = 1;
nodes = (
"57 330 OFFCURVE",
"57 327 OFFCURVE",
"59.997 323.248 CURVE",
"259 49 LINE",
"262 44 OFFCURVE",
"267 42 OFFCURVE",
"272 41 CURVE",
"272 169 LINE",
"157.961 328.5 LINE",
"272 488 LINE",
"272 616 LINE",
"267 615 OFFCURVE",
"262 613 OFFCURVE",
"259 608 CURVE",
"59.997 333.752 LINE"
);
},
{
closed = 1;
nodes = (
"285 608 LINE",
"282 613 OFFCURVE",
"277 615 OFFCURVE",
"272 616 CURVE",
"272 488 LINE",
"386 329 LINE",
"272 169 LINE",
"272 41 LINE",
"277 42 OFFCURVE",
"282 44 OFFCURVE",
"285 49 CURVE",
"484 323 LINE",
"487 327 OFFCURVE",
"487 330 OFFCURVE",
"484 334 CURVE"
);
}
);
width = 600;
},
{
associatedMasterId = "105671D0-52CD-46B5-9B81-8ED8F76D0899";
layerId = "CFC4F800-11DB-412F-BE87-04BE14E87BDE";
name = "Aug 21 18, 14:32";
paths = (
{
closed = 1;
nodes = (
"259 49 LINE",
"265 39 OFFCURVE",
"279 39 OFFCURVE",
"285 49 CURVE",
"484 323 LINE SMOOTH",
"487 327 OFFCURVE",
"487 330 OFFCURVE",
"484 334 CURVE SMOOTH",
"285 608 LINE",
"279 617 OFFCURVE",
"266 617 OFFCURVE",
"259 608 CURVE",
"60 334 LINE SMOOTH",
"57 330 OFFCURVE",
"57 327 OFFCURVE",
"60 323 CURVE SMOOTH"
);
},
{
closed = 1;
nodes = (
"272 488 LINE",
"386 329 LINE",
"272 169 LINE",
"158 329 LINE"
);
}
);
width = 600;
},
{
associatedMasterId = "105671D0-52CD-46B5-9B81-8ED8F76D0899";
layerId = "1D4280B7-A024-4B22-B8CC-FFFB48724888";
name = "Aug 21 18, 14:37";
paths = (
{
closed = 1;
nodes = (
"231 500 LINE",
"59 86 LINE",
"160 86 LINE",
"271 362 LINE",
"384 86 LINE",
"485 86 LINE",
"312 500 LINE"
);
},
{
closed = 1;
nodes = (
"59 4 LINE SMOOTH",
"59 2 OFFCURVE",
"61 0 OFFCURVE",
"65 0 CURVE SMOOTH",
"481 0 LINE SMOOTH",
"481 0 OFFCURVE",
"485 2 OFFCURVE",
"485 4 CURVE SMOOTH",
"485 86 LINE",
"416 88 LINE",
"132 88 LINE",
"59 86 LINE"
);
}
);
width = 600;
},
{
associatedMasterId = "105671D0-52CD-46B5-9B81-8ED8F76D0899";
layerId = "8A4D7539-406B-4776-A176-9DABC6C6E3F6";
name = "Aug 21 18, 14:38";
paths = (
{
closed = 1;
nodes = (
"238 570 LINE",
"45 100 LINE",
"161 100 LINE",
"291 428 LINE",
"423 100 LINE",
"538 100 LINE",
"345 570 LINE"
);
},
{
closed = 1;
nodes = (
"45 2 LINE SMOOTH",
"45 0 OFFCURVE",
"48 -2 OFFCURVE",
"52 -2 CURVE SMOOTH",
"534 -2 LINE SMOOTH",
"534 -2 OFFCURVE",
"538 0 OFFCURVE",
"538 2 CURVE SMOOTH",
"538 100 LINE",
"460 102 LINE",
"128 102 LINE",
"45 100 LINE"
);
}
);
width = 600;
}
);
unicode = 0394;
},
{
glyphname = pi;
lastChange = "2018-10-09 15:01:31 +0000";
layers = (
{
layerId = "105671D0-52CD-46B5-9B81-8ED8F76D0899";
paths = (
{
closed = 1;
nodes = (
"195 0 LINE SMOOTH",
"197 0 OFFCURVE",
"199 0 OFFCURVE",
"199 4 CURVE SMOOTH",
"199 347 LINE",
"321 347 LINE",
"321 156 LINE SMOOTH",
"321 59 OFFCURVE",
"366 0 OFFCURVE",
"470 0 CURVE SMOOTH",
"472 0 OFFCURVE",
"474 0 OFFCURVE",
"474 4 CURVE SMOOTH",
"474 69 LINE SMOOTH",
"474 72 OFFCURVE",
"472 75 OFFCURVE",
"468 75 CURVE SMOOTH",
"424 77 OFFCURVE",
"404 103 OFFCURVE",
"404 156 CURVE SMOOTH",
"404 347 LINE",
"473 347 LINE SMOOTH",
"476 347 OFFCURVE",
"478 349 OFFCURVE",
"478 352 CURVE SMOOTH",
"478 431 LINE SMOOTH",
"478 436 OFFCURVE",
"476 437 OFFCURVE",
"473 437 CURVE SMOOTH",
"49 437 LINE SMOOTH",
"45 437 OFFCURVE",
"43 435 OFFCURVE",
"43 431 CURVE SMOOTH",
"43 352 LINE SMOOTH",
"43 349 OFFCURVE",
"45 347 OFFCURVE",
"49 347 CURVE SMOOTH",
"116 347 LINE",
"116 4 LINE SMOOTH",
"116 0 OFFCURVE",
"116 0 OFFCURVE",
"120 0 CURVE SMOOTH"
);
}
);
width = 552;
}
);
unicode = 03C0;
},
{
glyphname = zero;
lastChange = "2018-10-09 15:01:31 +0000";
layers = (
{
layerId = "105671D0-52CD-46B5-9B81-8ED8F76D0899";
paths = (
{
closed = 1;
nodes = (
"331 -10 OFFCURVE",
"421 79 OFFCURVE",
"421 191 CURVE",
"420 508 LINE",
"420 619 OFFCURVE",
"331 707 OFFCURVE",
"225 707 CURVE SMOOTH",
"115 707 OFFCURVE",
"29 614 OFFCURVE",
"29 508 CURVE SMOOTH",
"28 191 LINE SMOOTH",
"28 80 OFFCURVE",
"118 -10 OFFCURVE",
"225 -10 CURVE SMOOTH"
);
},
{
closed = 1;
nodes = (
"187 111 OFFCURVE",
"150 143 OFFCURVE",
"150 191 CURVE SMOOTH",
"150 350.678 LINE",
"291 204 LINE",
"299.987 195.013 LINE",
"300 191 LINE SMOOTH",
"300 154 OFFCURVE",
"270 111 OFFCURVE",
"225 111 CURVE SMOOTH"
);
},
{
closed = 1;
nodes = (
"150 492.732 LINE",
"150 508 LINE SMOOTH",
"150 549 OFFCURVE",
"179 587 OFFCURVE",
"225 587 CURVE SMOOTH",
"268 587 OFFCURVE",
"299 551 OFFCURVE",
"299 508 CURVE SMOOTH",
"299.536 338.123 LINE"
);
}
);
width = 457;
},
{
associatedMasterId = "105671D0-52CD-46B5-9B81-8ED8F76D0899";
layerId = "1DF2660F-C686-4309-A1AC-8A4CB699B7AA";
name = "May 24 18, 18:26";
paths = (
{
closed = 1;
nodes = (
"158 514 LINE",
"158 525 OFFCURVE",
"160 535 OFFCURVE",
"164 545 CURVE",
"168 554 OFFCURVE",
"173 563 OFFCURVE",
"180 570 CURVE",
"187 577 OFFCURVE",
"195 583 OFFCURVE",
"204 587 CURVE",
"212 591 OFFCURVE",
"222 593 OFFCURVE",
"233 593 CURVE",
"243 593 OFFCURVE",
"253 591 OFFCURVE",
"261 587 CURVE",
"270 583 OFFCURVE",
"278 577 OFFCURVE",
"285 570 CURVE",
"292 563 OFFCURVE",
"297 554 OFFCURVE",
"301 545 CURVE",
"305 535 OFFCURVE",
"307 525 OFFCURVE",
"307 514 CURVE",
"307 347 LINE",
"407 243 LINE",
"336 175 LINE",
"307 204 LINE",
"307 192 LINE",
"307 181 OFFCURVE",
"305 170 OFFCURVE",
"301 161 CURVE",
"298 151 OFFCURVE",
"292 142 OFFCURVE",
"285 135 CURVE",
"279 128 OFFCURVE",
"271 122 OFFCURVE",
"262 118 CURVE",
"253 114 OFFCURVE",
"243 112 OFFCURVE",
"232 112 CURVE",
"222 112 OFFCURVE",
"212 114 OFFCURVE",
"203 118 CURVE",
"194 122 OFFCURVE",
"186 128 OFFCURVE",
"180 135 CURVE",
"173 142 OFFCURVE",
"167 151 OFFCURVE",
"164 161 CURVE",
"160 170 OFFCURVE",
"158 181 OFFCURVE",
"158 192 CURVE",
"158 359 LINE",
"65 456 LINE",
"136 524 LINE",
"158 501 LINE"
);
},
{
closed = 1;
nodes = (
"219 712 OFFCURVE",
"207 711 OFFCURVE",
"194 709 CURVE",
"181 706 OFFCURVE",
"169 702 OFFCURVE",
"157 697 CURVE",
"146 692 OFFCURVE",
"135 686 OFFCURVE",
"124 679 CURVE",
"113 672 OFFCURVE",
"103 663 OFFCURVE",
"94 654 CURVE",
"85 644 OFFCURVE",
"77 634 OFFCURVE",
"70 623 CURVE",
"63 613 OFFCURVE",
"57 601 OFFCURVE",
"52 589 CURVE",
"47 578 OFFCURVE",
"44 565 OFFCURVE",
"41 553 CURVE",
"39 540 OFFCURVE",
"38 527 OFFCURVE",
"37 514 CURVE",
"37 192 LINE",
"37 178 OFFCURVE",
"38 165 OFFCURVE",
"40 152 CURVE",
"43 140 OFFCURVE",
"46 127 OFFCURVE",
"51 115 CURVE",
"56 103 OFFCURVE",
"62 92 OFFCURVE",
"69 81 CURVE",
"76 70 OFFCURVE",
"84 60 OFFCURVE",
"93 50 CURVE",
"102 41 OFFCURVE",
"112 32 OFFCURVE",
"123 25 CURVE",
"134 17 OFFCURVE",
"145 11 OFFCURVE",
"157 6 CURVE",
"169 1 OFFCURVE",
"181 -3 OFFCURVE",
"194 -6 CURVE",
"206 -8 OFFCURVE",
"219 -10 OFFCURVE",
"232 -10 CURVE",
"246 -10 OFFCURVE",
"259 -8 OFFCURVE",
"271 -6 CURVE",
"284 -3 OFFCURVE",
"296 1 OFFCURVE",
"308 6 CURVE",
"320 11 OFFCURVE",
"331 17 OFFCURVE",
"342 25 CURVE",
"353 32 OFFCURVE",
"363 41 OFFCURVE",
"372 50 CURVE",
"381 60 OFFCURVE",
"389 70 OFFCURVE",
"396 81 CURVE",
"403 92 OFFCURVE",
"409 103 OFFCURVE",
"414 115 CURVE",
"419 127 OFFCURVE",
"422 140 OFFCURVE",
"425 152 CURVE",
"427 165 OFFCURVE",
"428 178 OFFCURVE",
"428 192 CURVE",
"428 514 LINE",
"427 527 OFFCURVE",
"426 540 OFFCURVE",
"424 553 CURVE",
"421 565 OFFCURVE",
"418 578 OFFCURVE",
"413 589 CURVE",
"408 601 OFFCURVE",
"402 613 OFFCURVE",
"395 623 CURVE",
"388 634 OFFCURVE",
"380 644 OFFCURVE",
"371 654 CURVE",
"362 663 OFFCURVE",
"352 672 OFFCURVE",
"341 679 CURVE",
"330 686 OFFCURVE",
"319 692 OFFCURVE",
"308 697 CURVE",
"296 702 OFFCURVE",
"284 706 OFFCURVE",
"271 709 CURVE",
"258 711 OFFCURVE",
"246 712 OFFCURVE",
"233 712 CURVE"
);
},
{
closed = 1;
nodes = (
"65 456 LINE",
"158 359 LINE",
"307 204 LINE",
"336 175 LINE",
"407 243 LINE",
"307 347 LINE",
"158 501 LINE",
"136 524 LINE"
);
}
);
visible = 1;
width = 465;
}
);
leftKerningGroup = O;
leftMetricsKey = O;
rightKerningGroup = O;
rightMetricsKey = O;
unicode = 0030;
},
{
glyphname = one;
lastChange = "2018-10-09 15:01:31 +0000";
layers = (
{
layerId = "105671D0-52CD-46B5-9B81-8ED8F76D0899";
paths = (
{
closed = 1;
nodes = (
"158 0 LINE",
"161 0 OFFCURVE",
"162 1 OFFCURVE",
"162 5 CURVE",
"161 692 LINE",
"161 695 OFFCURVE",
"160 696 OFFCURVE",
"157 696 CURVE",
"45 696 LINE",
"42 696 OFFCURVE",
"41 695 OFFCURVE",
"41 692 CURVE",
"40 5 LINE",
"40 1 OFFCURVE",
"41 0 OFFCURVE",
"45 0 CURVE"
);
}
);
width = 210;
}
);
leftMetricsKey = I;
rightMetricsKey = I;
unicode = 0031;
},
